<?xml version="1.0" encoding="UTF-8"?>
<svg version="1.1" xmlns="http://www.w3.org/2000/svg" width="133" height="66">
<path d="M0 0 C43.89 0 87.78 0 133 0 C133 21.78 133 43.56 133 66 C89.11 66 45.22 66 0 66 C0 44.22 0 22.44 0 0 Z " fill="#040202" transform="translate(0,0)"/>
<path d="M0 0 C5.23960768 1.38695497 7.97257638 4.72272259 11 9 C11.69313908 10.65583225 12.36474424 12.32110979 13 14 C14.051875 14.86625 14.051875 14.86625 15.125 15.75 C17.60613131 18.72735757 17.69323998 20.69431349 17.51171875 24.5 C15.18854533 35.8498549 4.91839776 43.67604523 -4 50 C-7.82946843 48.54744301 -9.12050295 46.57104439 -11 43 C-10.35933594 42.50371094 -9.71867187 42.00742187 -9.05859375 41.49609375 C4.57073395 31.22408926 4.57073395 31.22408926 11 16 C10.34 16 9.68 16 9 16 C8.9175 16.72574219 8.835 17.45148437 8.75 18.19921875 C6.59830888 26.23444027 -3.42482412 34.18490944 -10 39 C-12.26171875 39.71484375 -12.26171875 39.71484375 -14 40 C-18 35.375 -18 35.375 -18 32 C-15.5859375 29.984375 -15.5859375 29.984375 -12.375 27.75 C-5.60675667 22.88609918 -0.04527297 17.9515461 3 10 C3.43324884 6.38959302 3.45164245 4.71510055 1.5 1.625 C1.005 1.08875 0.51 0.5525 0 0 Z " fill="#DD2C27" transform="translate(113,8)"/>
<path d="M0 0 C3.0625 0.1875 3.0625 0.1875 5.0625 2.1875 C5.0625 3.5075 5.0625 4.8275 5.0625 6.1875 C7.3725 5.5275 9.6825 4.8675 12.0625 4.1875 C12.0625 2.8675 12.0625 1.5475 12.0625 0.1875 C16.0225 0.1875 19.9825 0.1875 24.0625 0.1875 C24.0625 1.1775 24.0625 2.1675 24.0625 3.1875 C22.7425 3.5175 21.4225 3.8475 20.0625 4.1875 C21.0525 4.5175 22.0425 4.8475 23.0625 5.1875 C23.0625 6.8375 23.0625 8.4875 23.0625 10.1875 C21.27392578 10.22617187 21.27392578 10.22617187 19.44921875 10.265625 C17.8827758 10.32190439 16.31637097 10.37925177 14.75 10.4375 C13.96431641 10.45167969 13.17863281 10.46585938 12.36914062 10.48046875 C7.72926335 10.53673452 7.72926335 10.53673452 4.1796875 13.2109375 C3.62667969 14.18933594 3.62667969 14.18933594 3.0625 15.1875 C0.5 15.5625 0.5 15.5625 -1.9375 15.1875 C-2.5975 14.5275 -3.2575 13.8675 -3.9375 13.1875 C-3.9375 12.1975 -3.9375 11.2075 -3.9375 10.1875 C-5.2575 10.1875 -6.5775 10.1875 -7.9375 10.1875 C-8.164375 10.826875 -8.39125 11.46625 -8.625 12.125 C-9.9375 14.1875 -9.9375 14.1875 -12.5625 14.9375 C-13.34625 15.02 -14.13 15.1025 -14.9375 15.1875 C-14.9375 13.8675 -14.9375 12.5475 -14.9375 11.1875 C-13.9475 10.8575 -12.9575 10.5275 -11.9375 10.1875 C-11.6075 8.2075 -11.2775 6.2275 -10.9375 4.1875 C-9.9475 4.1875 -8.9575 4.1875 -7.9375 4.1875 C-7.9375 4.8475 -7.9375 5.5075 -7.9375 6.1875 C-6.6175 6.1875 -5.2975 6.1875 -3.9375 6.1875 C-3.958125 5.383125 -3.97875 4.57875 -4 3.75 C-3.91045076 0.07848098 -3.70241054 0.23632408 0 0 Z " fill="#CA2924" transform="translate(18.9375,17.8125)"/>
<path d="M0 0 C2.9375 0.8125 2.9375 0.8125 4.9375 2.8125 C5.1875 6.3125 5.1875 6.3125 4.9375 9.8125 C2.9375 11.8125 2.9375 11.8125 -0.1875 11.9375 C-1.13625 11.89625 -2.085 11.855 -3.0625 11.8125 C-3.000625 12.740625 -2.93875 13.66875 -2.875 14.625 C-3.0625 17.8125 -3.0625 17.8125 -4.125 19.75 C-7.27816824 21.47915678 -9.68758255 20.6715699 -13.0625 19.8125 C-15.0625 16.8125 -15.0625 16.8125 -15.125 13.8125 C-14.774375 12.8225 -14.42375 11.8325 -14.0625 10.8125 C-11.74441636 9.77764123 -9.41074702 8.7769586 -7.0625 7.8125 C-6.23545995 5.34426909 -6.23545995 5.34426909 -6.0625 2.8125 C-4.20548274 -0.11963252 -3.52133546 -0.21559197 0 0 Z " fill="#DC2D27" transform="translate(109.0625,8.1875)"/>
<path d="M0 0 C4.31383769 -0.15406563 7.96723395 -0.13345973 12.125 1.0625 C15.96395152 1.99127859 18.21721335 1.94569666 22 1 C22 1.99 22 2.98 22 4 C8.57142857 6.28571429 8.57142857 6.28571429 4 4 C4 3.34 4 2.68 4 2 C3.34 2 2.68 2 2 2 C2 2.99 2 3.98 2 5 C-6.57142857 5.14285714 -6.57142857 5.14285714 -10 4 C-10 3.34 -10 2.68 -10 2 C-10.66 2 -11.32 2 -12 2 C-12 2.66 -12 3.32 -12 4 C-12.99 4 -13.98 4 -15 4 C-15.33 3.01 -15.66 2.02 -16 1 C-11.38 1 -6.76 1 -2 1 C-2 1.99 -2 2.98 -2 4 C-1.34 4 -0.68 4 0 4 C0 2.68 0 1.36 0 0 Z " fill="#444444" transform="translate(31,47)"/>
<path d="M0 0 C1.93166016 0.01740234 1.93166016 0.01740234 3.90234375 0.03515625 C5.19269531 0.04417969 6.48304687 0.05320312 7.8125 0.0625 C8.81152344 0.07410156 9.81054688 0.08570312 10.83984375 0.09765625 C10.83984375 1.41765625 10.83984375 2.73765625 10.83984375 4.09765625 C6.87984375 4.09765625 2.91984375 4.09765625 -1.16015625 4.09765625 C-1.16015625 4.75765625 -1.16015625 5.41765625 -1.16015625 6.09765625 C1.80984375 6.09765625 4.77984375 6.09765625 7.83984375 6.09765625 C5.19990078 8.73759922 3.27950674 9.3216084 -0.34765625 9.34765625 C-4.16015625 9.09765625 -4.16015625 9.09765625 -5.16015625 8.09765625 C-4.30680992 0.13309054 -4.30680992 0.13309054 0 0 Z " fill="#D12A25" transform="translate(65.16015625,23.90234375)"/>
<path d="M0 0 C1.93166016 0.01740234 1.93166016 0.01740234 3.90234375 0.03515625 C5.19269531 0.04417969 6.48304687 0.05320312 7.8125 0.0625 C8.81152344 0.07410156 9.81054688 0.08570312 10.83984375 0.09765625 C10.83984375 1.41765625 10.83984375 2.73765625 10.83984375 4.09765625 C6.54984375 4.09765625 2.25984375 4.09765625 -2.16015625 4.09765625 C-2.16015625 4.75765625 -2.16015625 5.41765625 -2.16015625 6.09765625 C1.13984375 6.09765625 4.43984375 6.09765625 7.83984375 6.09765625 C2.93148988 9.77892165 1.68478044 9.48093079 -4.16015625 9.09765625 C-4.49015625 8.76765625 -4.82015625 8.43765625 -5.16015625 8.09765625 C-4.30680992 0.13309054 -4.30680992 0.13309054 0 0 Z " fill="#D42B26" transform="translate(48.16015625,23.90234375)"/>
<path d="M0 0 C0 3.96 0 7.92 0 12 C-1.65 12.66 -3.3 13.32 -5 14 C-9 9.375 -9 9.375 -9 6 C-7.28515625 4.39453125 -7.28515625 4.39453125 -5.0625 2.8125 C-4.33160156 2.28269531 -3.60070312 1.75289062 -2.84765625 1.20703125 C-1 0 -1 0 0 0 Z " fill="#D02426" transform="translate(104,34)"/>
<path d="M0 0 C0.33 0 0.66 0 1 0 C1 1.98 1 3.96 1 6 C1.66 6 2.32 6 3 6 C3 5.01 3 4.02 3 3 C4.32 3 5.64 3 7 3 C7 2.01 7 1.02 7 0 C7.66 0 8.32 0 9 0 C9 1.98 9 3.96 9 6 C11.31 6 13.62 6 16 6 C16 6.33 16 6.66 16 7 C8.41 7 0.82 7 -7 7 C-7.33 5.68 -7.66 4.36 -8 3 C-4.98968256 2.06576355 -4.13349732 1.95550089 -1 3 C-0.67 2.01 -0.34 1.02 0 0 Z " fill="#5B5B5A" transform="translate(60,36)"/>
<path d="M0 0 C3.96 0 7.92 0 12 0 C12 0.99 12 1.98 12 3 C10.68 3.33 9.36 3.66 8 4 C8.99 4.66 9.98 5.32 11 6 C5.72 6 0.44 6 -5 6 C-5 5.67 -5 5.34 -5 5 C-3.35 4.67 -1.7 4.34 0 4 C0 2.68 0 1.36 0 0 Z " fill="#6B1613" transform="translate(31,18)"/>
<path d="M0 0 C0.66 0.33 1.32 0.66 2 1 C2 1.66 2 2.32 2 3 C4.475 3.99 4.475 3.99 7 5 C7 5.66 7 6.32 7 7 C9.31 7 11.62 7 14 7 C14 7.33 14 7.66 14 8 C8.06 8 2.12 8 -4 8 C-4.33 8.99 -4.66 9.98 -5 11 C-5.66 11 -6.32 11 -7 11 C-7 10.34 -7 9.68 -7 9 C-6.34 9 -5.68 9 -5 9 C-4.67 7.68 -4.34 6.36 -4 5 C-3.67 5.33 -3.34 5.66 -3 6 C-1.65252916 6.23075082 -0.29622435 6.41153063 1.0625 6.5625 C2.361875 6.706875 3.66125 6.85125 5 7 C5 6.34 5 5.68 5 5 C2.69 5 0.38 5 -2 5 C-2 3.68 -2 2.36 -2 1 C-1.34 0.67 -0.68 0.34 0 0 Z " fill="#70706F" transform="translate(17,35)"/>
<path d="M0 0 C2.31 0 4.62 0 7 0 C7.33 2.64 7.66 5.28 8 8 C7.67 7.34 7.34 6.68 7 6 C2.38 6 -2.24 6 -7 6 C-7 5.67 -7 5.34 -7 5 C-4.36 4.67 -1.72 4.34 1 4 C0.67 2.68 0.34 1.36 0 0 Z " fill="#1B0605" transform="translate(69,18)"/>
<path d="M0 0 C2.31 0 4.62 0 7 0 C7 1.98 7 3.96 7 6 C2.38 6 -2.24 6 -7 6 C-7 5.67 -7 5.34 -7 5 C-4.36 4.67 -1.72 4.34 1 4 C0.67 2.68 0.34 1.36 0 0 Z " fill="#130403" transform="translate(52,18)"/>
<path d="M0 0 C0.66 0.33 1.32 0.66 2 1 C2 1.66 2 2.32 2 3 C4.475 3.99 4.475 3.99 7 5 C6.67 5.99 6.34 6.98 6 8 C2.7 8 -0.6 8 -4 8 C-4.33 8.99 -4.66 9.98 -5 11 C-5.66 11 -6.32 11 -7 11 C-7 10.34 -7 9.68 -7 9 C-6.34 9 -5.68 9 -5 9 C-5 7.68 -5 6.36 -5 5 C-4.34 5 -3.68 5 -3 5 C-3 5.66 -3 6.32 -3 7 C-0.36 7 2.28 7 5 7 C5 6.34 5 5.68 5 5 C2.69 5 0.38 5 -2 5 C-1.125 1.125 -1.125 1.125 0 0 Z " fill="#696968" transform="translate(44,35)"/>
<path d="M0 0 C2.67927341 4.01891012 2.15601248 6.24161923 2 11 C1.34 11 0.68 11 0 11 C-4 6.64705882 -4 6.64705882 -4 3 C-2 1.3125 -2 1.3125 0 0 Z " fill="#CB1E20" transform="translate(99,37)"/>
<path d="M0 0 C4.62 0 9.24 0 14 0 C14 0.99 14 1.98 14 3 C11.36 3 8.72 3 6 3 C6 2.34 6 1.68 6 1 C5.34 1 4.68 1 4 1 C4 1.66 4 2.32 4 3 C3.01 3 2.02 3 1 3 C0.67 2.01 0.34 1.02 0 0 Z " fill="#555454" transform="translate(15,48)"/>
<path d="M0 0 C3.3 0.33 6.6 0.66 10 1 C10 1.99 10 2.98 10 4 C7.69 4.33 5.38 4.66 3 5 C2.67 4.01 2.34 3.02 2 2 C1.34 2 0.68 2 0 2 C-0.33 2.66 -0.66 3.32 -1 4 C-0.67 2.68 -0.34 1.36 0 0 Z " fill="#4D4C4D" transform="translate(56,47)"/>
<path d="M0 0 C2.59335469 1.29667734 3.51711185 2.50605176 5 5 C5.1875 8.25 5.1875 8.25 5 11 C4.01 11 3.02 11 2 11 C1.855625 9.9275 1.71125 8.855 1.5625 7.75 C1.16250558 5.08337051 0.72408076 2.58600271 0 0 Z " fill="#1F0606" transform="translate(112,7)"/>
<path d="M0 0 C0.99 0.33 1.98 0.66 3 1 C5.00875442 0.72428861 7.01178687 0.39764263 9 0 C9 0.99 9 1.98 9 3 C2.25 4.125 2.25 4.125 0 3 C0 2.01 0 1.02 0 0 Z " fill="#535253" transform="translate(44,48)"/>
<path d="M0 0 C0.66 0.33 1.32 0.66 2 1 C2 1.66 2 2.32 2 3 C3.32 3.33 4.64 3.66 6 4 C5.67 4.99 5.34 5.98 5 7 C5 6.34 5 5.68 5 5 C2.69 5 0.38 5 -2 5 C-2 3.68 -2 2.36 -2 1 C-1.34 0.67 -0.68 0.34 0 0 Z " fill="#606060" transform="translate(17,35)"/>
<path d="M0 0 C0.99 0 1.98 0 3 0 C3 1.32 3 2.64 3 4 C3.99 4.33 4.98 4.66 6 5 C4.02 5 2.04 5 0 5 C-0.5625 3.0625 -0.5625 3.0625 -1 1 C-0.67 0.67 -0.34 0.34 0 0 Z " fill="#676867" transform="translate(53,38)"/>
<path d="M0 0 C1.65 0 3.3 0 5 0 C4 2.5 4 2.5 2 5 C-0.79374292 5.46837899 -3.14221036 5.23424505 -6 5 C-6 4.67 -6 4.34 -6 4 C-4.02 4 -2.04 4 0 4 C0 2.68 0 1.36 0 0 Z " fill="#2A2A2A" transform="translate(31,47)"/>
<path d="M0 0 C2.31 0 4.62 0 7 0 C7 0.99 7 1.98 7 3 C4.69 3 2.38 3 0 3 C0 2.01 0 1.02 0 0 Z " fill="#CE2A25" transform="translate(69,18)"/>
<path d="M0 0 C2.31 0 4.62 0 7 0 C7 0.99 7 1.98 7 3 C4.69 3 2.38 3 0 3 C0 2.01 0 1.02 0 0 Z " fill="#D02A25" transform="translate(52,18)"/>
<path d="M0 0 C1.65 0 3.3 0 5 0 C5 0.99 5 1.98 5 3 C2.69 3 0.38 3 -2 3 C-1.34 2.67 -0.68 2.34 0 2 C0 1.34 0 0.68 0 0 Z " fill="#2D2D2D" transform="translate(26,39)"/>
<path d="M0 0 C0 2.83967231 -0.40267181 5.23735711 -1 8 C-1.99 7.34 -2.98 6.68 -4 6 C-4 5.01 -4 4.02 -4 3 C-2 1.3125 -2 1.3125 0 0 Z " fill="#AB181C" transform="translate(99,37)"/>
</svg>
