<?xml version="1.0" encoding="UTF-8"?>
<svg version="1.1" xmlns="http://www.w3.org/2000/svg" width="100" height="100">
<path d="M0 0 C33 0 66 0 100 0 C100 33 100 66 100 100 C67 100 34 100 0 100 C0 67 0 34 0 0 Z " fill="#F8FBFB" transform="translate(0,0)"/>
<path d="M0 0 C0.66 0 1.32 0 2 0 C2.495 0.99 2.495 0.99 3 2 C5.36174386 2.54203958 7.67565654 2.98317268 10.0625 3.375 C16.01353873 4.45317828 20.78548813 5.90991889 26 9 C26.99 9.53625 27.98 10.0725 29 10.625 C29.99 11.305625 29.99 11.305625 31 12 C31 12.66 31 13.32 31 14 C31.5878125 14.25523438 32.175625 14.51046875 32.78125 14.7734375 C38.16918019 17.75197637 42.76125932 23.91112571 45.3515625 29.45703125 C47.02392038 36.01549497 46.7910097 44.19359762 45.41796875 50.80078125 C44.78361081 53.16382679 44.78361081 53.16382679 46 56 C45.34 56 44.68 56 44 56 C44 57.32 44 58.64 44 60 C43.01 60 42.02 60 41 60 C41.495 62.475 41.495 62.475 42 65 C42.66 65 43.32 65 44 65 C43.505 66.98 43.505 66.98 43 69 C42.34 69 41.68 69 41 69 C41 70.65 41 72.3 41 74 C40.34 74 39.68 74 39 74 C39 74.66 39 75.32 39 76 C39.66 76.33 40.32 76.66 41 77 C40.01 78.98 40.01 78.98 39 81 C39.66 81 40.32 81 41 81 C41 80.34 41 79.68 41 79 C41.99 79 42.98 79 44 79 C43.67 78.01 43.34 77.02 43 76 C43.99 76 44.98 76 46 76 C46 77.65 46 79.3 46 81 C45.34 81 44.68 81 44 81 C43.505 82.485 43.505 82.485 43 84 C43 83.34 43 82.68 43 82 C42.34 82 41.68 82 41 82 C41 83.32 41 84.64 41 86 C39.02 86 37.04 86 35 86 C35.66 85.67 36.32 85.34 37 85 C36.7215625 84.071875 36.7215625 84.071875 36.4375 83.125 C36 81 36 81 37 79 C35.35 79 33.7 79 32 79 C32.2784375 79.928125 32.2784375 79.928125 32.5625 80.875 C33 83 33 83 32 85 C29.03 84.34 26.06 83.68 23 83 C23 83.99 23 84.98 23 86 C20.03 85.67 17.06 85.34 14 85 C14 84.34 14 83.68 14 83 C15.65 83 17.3 83 19 83 C18.67 82.34 18.34 81.68 18 81 C16.02 81 14.04 81 12 81 C12 82.32 12 83.64 12 85 C11.01 85.33 10.02 85.66 9 86 C9 83.36 9 80.72 9 78 C10.65 78.33 12.3 78.66 14 79 C14 78.01 14 77.02 14 76 C13.01 76.33 12.02 76.66 11 77 C10.01 76.505 10.01 76.505 9 76 C9 74.68 9 73.36 9 72 C5.37 72 1.74 72 -2 72 C-2 71.01 -2 70.02 -2 69 C-0.68 69 0.64 69 2 69 C2.33 68.34 2.66 67.68 3 67 C2.01 67 1.02 67 0 67 C0 66.34 0 65.68 0 65 C-1.32 65 -2.64 65 -4 65 C-4 67.31 -4 69.62 -4 72 C-4.66 72 -5.32 72 -6 72 C-6 68.7 -6 65.4 -6 62 C-7.1446875 61.814375 -7.1446875 61.814375 -8.3125 61.625 C-11 61 -11 61 -14 59 C-14 58.34 -14 57.68 -14 57 C-14.66 57 -15.32 57 -16 57 C-15.5644131 63.53380347 -14.14562282 68.975871 -11.83984375 75.10546875 C-10.94062668 78.20463085 -10.85258999 80.79026595 -11 84 C-12.32 84 -13.64 84 -15 84 C-15.67260351 82.23141309 -16.33788395 80.46003984 -17 78.6875 C-17.556875 77.20830078 -17.556875 77.20830078 -18.125 75.69921875 C-19 73 -19 73 -19 70 C-19.66 70 -20.32 70 -21 70 C-21.19335938 70.67546875 -21.38671875 71.3509375 -21.5859375 72.046875 C-21.84632812 72.93890625 -22.10671875 73.8309375 -22.375 74.75 C-22.63023438 75.63171875 -22.88546875 76.5134375 -23.1484375 77.421875 C-23.9209934 79.76080572 -24.83625676 81.83442562 -26 84 C-27.32 83.67 -28.64 83.34 -30 83 C-29.67239494 78.41352917 -29.22236051 75.07513488 -26.9375 71.0625 C-24.54182108 66.71222384 -24.59462733 62.86447199 -25 58 C-25.66 58.66 -26.32 59.32 -27 60 C-27.99 60 -28.98 60 -30 60 C-30.103125 60.928125 -30.20625 61.85625 -30.3125 62.8125 C-30.9125057 67.09949726 -32.12488797 71.17338428 -33.30078125 75.33203125 C-34.14588796 78.55665631 -34.63228051 81.69052455 -35 85 C-35.99 85 -36.98 85 -38 85 C-38.33 84.34 -38.66 83.68 -39 83 C-41.11327425 82.09274566 -41.11327425 82.09274566 -43.5625 81.375 C-44.38878906 81.11460938 -45.21507812 80.85421875 -46.06640625 80.5859375 C-46.70449219 80.39257812 -47.34257813 80.19921875 -48 80 C-47.67 77.69 -47.34 75.38 -47 73 C-45.35 73 -43.7 73 -42 73 C-42.33 74.65 -42.66 76.3 -43 78 C-42.01 78 -41.02 78 -40 78 C-40 77.01 -40 76.02 -40 75 C-38.35 75.33 -36.7 75.66 -35 76 C-35.33 74.68 -35.66 73.36 -36 72 C-36.66 72 -37.32 72 -38 72 C-38.33 70.68 -38.66 69.36 -39 68 C-39.8971875 68.99 -39.8971875 68.99 -40.8125 70 C-43 72 -43 72 -46 72 C-45.67 69.36 -45.34 66.72 -45 64 C-41.98968256 63.06576355 -41.13349732 62.95550089 -38 64 C-38 63.34 -38 62.68 -38 62 C-37.34 62 -36.68 62 -36 62 C-36 62.99 -36 63.98 -36 65 C-35.01 65 -34.02 65 -33 65 C-32.93683594 64.443125 -32.87367187 63.88625 -32.80859375 63.3125 C-31.83954553 57.27379951 -29.82969947 54.07707479 -25.4609375 49.82421875 C-23.30751695 47.13532197 -23.96780253 44.67614691 -24.125 41.375 C-24 39 -24 39 -22 37 C-16.76271186 37 -16.76271186 37 -14 38 C-12 41.0625 -12 41.0625 -11 44 C-11.66 44.66 -12.32 45.32 -13 46 C-12.01 46.66 -11.02 47.32 -10 48 C-10 48.99 -10 49.98 -10 51 C-8.68 51.33 -7.36 51.66 -6 52 C-6 51.01 -6 50.02 -6 49 C-3.03 49 -0.06 49 3 49 C3 49.66 3 50.32 3 51 C3.66 51 4.32 51 5 51 C5 50.34 5 49.68 5 49 C5.99 48.67 6.98 48.34 8 48 C8 46.68 8 45.36 8 44 C8.66 44 9.32 44 10 44 C10 43.34 10 42.68 10 42 C9.34 42 8.68 42 8 42 C8 41.34 8 40.68 8 40 C9.98 40 11.96 40 14 40 C14 40.66 14 41.32 14 42 C13.34 42 12.68 42 12 42 C12 43.32 12 44.64 12 46 C12.66 46 13.32 46 14 46 C14 45.34 14 44.68 14 44 C14.99 44 15.98 44 17 44 C16.67 42.35 16.34 40.7 16 39 C16.33 39.66 16.66 40.32 17 41 C17.66 41 18.32 41 19 41 C19 40.34 19 39.68 19 39 C19.66 39 20.32 39 21 39 C21.33 37.35 21.66 35.7 22 34 C17.41193065 31.6319642 13.04768952 31.51091857 8 32 C6.33066942 32.6599679 4.6635479 33.32558869 3 34 C-0.22457063 33.67754294 -2.92734147 33.02421951 -6 32 C-11.10623311 31.7529242 -14.29181133 31.96402652 -19 34 C-21.6875 34.25 -21.6875 34.25 -24 34 C-24.66 33.34 -25.32 32.68 -26 32 C-31.88727255 31.34585861 -37.51994831 31.63024792 -43 34 C-39.89991282 23.33757894 -32.03847211 14.15657802 -22.51953125 8.53515625 C-15.01019532 4.61576004 -8.46458295 2.70299709 0 3 C0 2.01 0 1.02 0 0 Z " fill="#EDEDED" transform="translate(51,2)"/>
<path d="M0 0 C0.66 0 1.32 0 2 0 C2.495 0.99 2.495 0.99 3 2 C5.36174386 2.54203958 7.67565654 2.98317268 10.0625 3.375 C16.01353873 4.45317828 20.78548813 5.90991889 26 9 C26.99 9.53625 27.98 10.0725 29 10.625 C29.99 11.305625 29.99 11.305625 31 12 C31 12.66 31 13.32 31 14 C31.598125 14.226875 32.19625 14.45375 32.8125 14.6875 C36.22110068 16.73266041 37.57372376 19.56616173 38.6875 23.3125 C38.790625 23.869375 38.89375 24.42625 39 25 C39.66 25 40.32 25 41 25 C40.34 26.98 39.68 28.96 39 31 C37.84371094 31.19916016 37.84371094 31.19916016 36.6640625 31.40234375 C35.66117187 31.57894531 34.65828125 31.75554688 33.625 31.9375 C32.62726563 32.11152344 31.62953125 32.28554688 30.6015625 32.46484375 C28.03090344 32.87712062 28.03090344 32.87712062 26 34 C27.98 34.495 27.98 34.495 30 35 C30 35.66 30 36.32 30 37 C28.68 37 27.36 37 26 37 C25.505 37.99 25.505 37.99 25 39 C25 38.34 25 37.68 25 37 C24.34 37 23.68 37 23 37 C23 37.99 23 38.98 23 40 C26.465 39.505 26.465 39.505 30 39 C30 39.66 30 40.32 30 41 C30.66 41.33 31.32 41.66 32 42 C31.34 42 30.68 42 30 42 C30 42.66 30 43.32 30 44 C28.68 44 27.36 44 26 44 C25.67 45.65 25.34 47.3 25 49 C25.66 49 26.32 49 27 49 C27 49.66 27 50.32 27 51 C26.01 51 25.02 51 24 51 C23.67 49.35 23.34 47.7 23 46 C22.34 46 21.68 46 21 46 C21 46.66 21 47.32 21 48 C18.69 47.34 16.38 46.68 14 46 C14 45.34 14 44.68 14 44 C14.99 44 15.98 44 17 44 C16.67 42.35 16.34 40.7 16 39 C16.33 39.66 16.66 40.32 17 41 C17.66 41 18.32 41 19 41 C19 40.34 19 39.68 19 39 C19.66 39 20.32 39 21 39 C21.33 37.35 21.66 35.7 22 34 C17.41193065 31.6319642 13.04768952 31.51091857 8 32 C6.33066942 32.6599679 4.6635479 33.32558869 3 34 C-0.22457063 33.67754294 -2.92734147 33.02421951 -6 32 C-11.10623311 31.7529242 -14.29181133 31.96402652 -19 34 C-21.6875 34.25 -21.6875 34.25 -24 34 C-24.66 33.34 -25.32 32.68 -26 32 C-31.88727255 31.34585861 -37.51994831 31.63024792 -43 34 C-39.89991282 23.33757894 -32.03847211 14.15657802 -22.51953125 8.53515625 C-15.01019532 4.61576004 -8.46458295 2.70299709 0 3 C0 2.01 0 1.02 0 0 Z " fill="#0C4A7E" transform="translate(51,2)"/>
<path d="M0 0 C0.99 0.495 0.99 0.495 2 1 C2 17.5 2 34 2 51 C-14.5 51 -31 51 -48 51 C-48.33 50.34 -48.66 49.68 -49 49 C-54.48248743 47.86021972 -59.91772022 47.8485437 -65.5 47.875 C-66.31597656 47.87113281 -67.13195312 47.86726563 -67.97265625 47.86328125 C-71.70013077 47.86926436 -75.28488205 47.97730891 -78.96875 48.5703125 C-82 49 -82 49 -84 48 C-84.33 47.67 -84.66 47.34 -85 47 C-85.99 47.99 -86.98 48.98 -88 50 C-88.99 49.67 -89.98 49.34 -91 49 C-91 46.69 -91 44.38 -91 42 C-89.02 42 -87.04 42 -85 42 C-85 42.66 -85 43.32 -85 44 C-81.7 44.33 -78.4 44.66 -75 45 C-74.67 44.34 -74.34 43.68 -74 43 C-72.79601562 43.02320313 -71.59203125 43.04640625 -70.3515625 43.0703125 C-68.77604785 43.08906863 -67.20052652 43.10726899 -65.625 43.125 C-64.8309375 43.14175781 -64.036875 43.15851563 -63.21875 43.17578125 C-61.14507985 43.19335473 -59.07116759 43.10335168 -57 43 C-56.34 42.34 -55.68 41.68 -55 41 C-54.67 41.33 -54.34 41.66 -54 42 C-53.67 37.05 -53.34 32.1 -53 27 C-52.34 27 -51.68 27 -51 27 C-51 24.03 -51 21.06 -51 18 C-49.68 18 -48.36 18 -47 18 C-47 18.66 -47 19.32 -47 20 C-46.01 20 -45.02 20 -44 20 C-44.495 21.485 -44.495 21.485 -45 23 C-46.32 22.67 -47.64 22.34 -49 22 C-49 22.99 -49 23.98 -49 25 C-45.37 25 -41.74 25 -38 25 C-38 26.32 -38 27.64 -38 29 C-36.35 29 -34.7 29 -33 29 C-33 29.99 -33 30.98 -33 32 C-34.32 32 -35.64 32 -37 32 C-37 33.98 -37 35.96 -37 38 C-36.34 38 -35.68 38 -35 38 C-35 36.68 -35 35.36 -35 34 C-32.69 33.67 -30.38 33.34 -28 33 C-28 33.99 -28 34.98 -28 36 C-27.34 36.33 -26.68 36.66 -26 37 C-28.31 36.67 -30.62 36.34 -33 36 C-33 36.66 -33 37.32 -33 38 C-30.03 38.33 -27.06 38.66 -24 39 C-24 38.01 -24 37.02 -24 36 C-20.37471432 35.79859524 -18.13498292 36.14223235 -15 38 C-15 36.02 -15 34.04 -15 32 C-13.35 32 -11.7 32 -10 32 C-10 33.98 -10 35.96 -10 38 C-8.02 38.495 -8.02 38.495 -6 39 C-6 37.68 -6 36.36 -6 35 C-4.35 34.67 -2.7 34.34 -1 34 C-1 32.35 -1 30.7 -1 29 C-1.66 29.33 -2.32 29.66 -3 30 C-3 30.66 -3 31.32 -3 32 C-3.99 32 -4.98 32 -6 32 C-6 32.66 -6 33.32 -6 34 C-6.66 34 -7.32 34 -8 34 C-7.7215625 33.1028125 -7.7215625 33.1028125 -7.4375 32.1875 C-6.77906313 29.83591238 -6.77906313 29.83591238 -8 27 C-7.34 27 -6.68 27 -6 27 C-6 25.35 -6 23.7 -6 22 C-5.34 22 -4.68 22 -4 22 C-3.67 20.68 -3.34 19.36 -3 18 C-3.66 18 -4.32 18 -5 18 C-5 17.34 -5 16.68 -5 16 C-5.99 15.67 -6.98 15.34 -8 15 C-7.34 15 -6.68 15 -6 15 C-6 14.34 -6 13.68 -6 13 C-5.01 13 -4.02 13 -3 13 C-3 11.68 -3 10.36 -3 9 C-2.34 9 -1.68 9 -1 9 C-1 8.34 -1 7.68 -1 7 C-1.99 6.67 -2.98 6.34 -4 6 C-3.34 6 -2.68 6 -2 6 C-2 4.35 -2 2.7 -2 1 C-1.34 0.67 -0.68 0.34 0 0 Z " fill="#F4F4F4" transform="translate(98,49)"/>
<path d="M0 0 C0.99 0 1.98 0 3 0 C2.67 1.32 2.34 2.64 2 4 C2.66 4 3.32 4 4 4 C4.33 2.68 4.66 1.36 5 0 C5.66 0 6.32 0 7 0 C7 0.66 7 1.32 7 2 C7.66 2 8.32 2 9 2 C9 1.34 9 0.68 9 0 C10.32 0 11.64 0 13 0 C13.12375 0.639375 13.2475 1.27875 13.375 1.9375 C13.58125 2.618125 13.7875 3.29875 14 4 C14.66 4.33 15.32 4.66 16 5 C16 5.66 16 6.32 16 7 C15.34 7 14.68 7 14 7 C14 8.32 14 9.64 14 11 C13.01 11 12.02 11 11 11 C11.495 13.475 11.495 13.475 12 16 C12.66 16 13.32 16 14 16 C13.67 17.32 13.34 18.64 13 20 C12.34 20 11.68 20 11 20 C11 21.65 11 23.3 11 25 C10.34 25 9.68 25 9 25 C9 25.66 9 26.32 9 27 C9.66 27.33 10.32 27.66 11 28 C10.34 29.32 9.68 30.64 9 32 C9.66 32 10.32 32 11 32 C11 31.34 11 30.68 11 30 C11.99 30 12.98 30 14 30 C13.505 28.515 13.505 28.515 13 27 C13.99 27 14.98 27 16 27 C16 28.65 16 30.3 16 32 C15.34 32 14.68 32 14 32 C13.67 32.99 13.34 33.98 13 35 C13 34.34 13 33.68 13 33 C12.34 33 11.68 33 11 33 C11 34.32 11 35.64 11 37 C9.02 37 7.04 37 5 37 C5.66 36.67 6.32 36.34 7 36 C6.814375 35.38125 6.62875 34.7625 6.4375 34.125 C6 32 6 32 7 30 C5.35 30 3.7 30 2 30 C2.185625 30.61875 2.37125 31.2375 2.5625 31.875 C3 34 3 34 2 36 C-0.97 35.34 -3.94 34.68 -7 34 C-7 34.99 -7 35.98 -7 37 C-9.97 36.67 -12.94 36.34 -16 36 C-16 35.34 -16 34.68 -16 34 C-14.35 34 -12.7 34 -11 34 C-11.33 33.34 -11.66 32.68 -12 32 C-13.98 32 -15.96 32 -18 32 C-18 33.32 -18 34.64 -18 36 C-19.485 36.495 -19.485 36.495 -21 37 C-21 34.36 -21 31.72 -21 29 C-19.35 29.33 -17.7 29.66 -16 30 C-16 29.01 -16 28.02 -16 27 C-16.99 27.33 -17.98 27.66 -19 28 C-19.66 27.67 -20.32 27.34 -21 27 C-21 25.68 -21 24.36 -21 23 C-24.63 23 -28.26 23 -32 23 C-32 22.01 -32 21.02 -32 20 C-30.68 20 -29.36 20 -28 20 C-27.67 19.34 -27.34 18.68 -27 18 C-25.02 18 -23.04 18 -21 18 C-20.67 17.34 -20.34 16.68 -20 16 C-19.34 16 -18.68 16 -18 16 C-18 15.34 -18 14.68 -18 14 C-17.34 14 -16.68 14 -16 14 C-16 13.01 -16 12.02 -16 11 C-15.34 11.33 -14.68 11.66 -14 12 C-14.33 12.66 -14.66 13.32 -15 14 C-13.02 13.67 -11.04 13.34 -9 13 C-9 12.34 -9 11.68 -9 11 C-8.34 11 -7.68 11 -7 11 C-7 10.34 -7 9.68 -7 9 C-8.32 9 -9.64 9 -11 9 C-11.33 9.66 -11.66 10.32 -12 11 C-12 10.01 -12 9.02 -12 8 C-9.36 8 -6.72 8 -4 8 C-4 9.65 -4 11.3 -4 13 C-5.65 13.33 -7.3 13.66 -9 14 C-9 14.66 -9 15.32 -9 16 C-9.99 16 -10.98 16 -12 16 C-12 16.66 -12 17.32 -12 18 C-10.35 18 -8.7 18 -7 18 C-6.34 19.32 -5.68 20.64 -5 22 C-2.69 22 -0.38 22 2 22 C2 20.68 2 19.36 2 18 C2.66 18 3.32 18 4 18 C4 18.66 4 19.32 4 20 C4.99 20 5.98 20 7 20 C7 19.34 7 18.68 7 18 C6.34 18 5.68 18 5 18 C5 15.69 5 13.38 5 11 C5.66 11 6.32 11 7 11 C7 10.34 7 9.68 7 9 C6.01 8.67 5.02 8.34 4 8 C4 7.34 4 6.68 4 6 C3.34 6 2.68 6 2 6 C2 7.65 2 9.3 2 11 C0.68 11 -0.64 11 -2 11 C-2 10.34 -2 9.68 -2 9 C-1.34 9 -0.68 9 0 9 C0 7.68 0 6.36 0 5 C-0.66 4.67 -1.32 4.34 -2 4 C-2 3.34 -2 2.68 -2 2 C-1.34 2 -0.68 2 0 2 C0 1.34 0 0.68 0 0 Z " fill="#ECEDED" transform="translate(81,51)"/>
<path d="M0 0 C15.18 0 30.36 0 46 0 C46 16.5 46 33 46 50 C45.01 50 44.02 50 43 50 C42.98582031 48.94941406 42.97164062 47.89882813 42.95703125 46.81640625 C42.59855534 33.96029593 39.30786875 26.19064119 30 17 C29.34 16.67 28.68 16.34 28 16 C28 15.34 28 14.68 28 14 C27.360625 13.773125 26.72125 13.54625 26.0625 13.3125 C21.86679739 11.51434174 17.96099444 9.26095979 14 7 C14 6.34 14 5.68 14 5 C12.35 5 10.7 5 9 5 C8.67 4.34 8.34 3.68 8 3 C5.36 3 2.72 3 0 3 C0 2.01 0 1.02 0 0 Z " fill="#F9FBFB" transform="translate(54,0)"/>
<path d="M0 0 C1.4540625 0.0309375 1.4540625 0.0309375 2.9375 0.0625 C2.9375 0.7225 2.9375 1.3825 2.9375 2.0625 C3.5975 2.0625 4.2575 2.0625 4.9375 2.0625 C5.535625 2.825625 6.13375 3.58875 6.75 4.375 C8.76005712 7.19085145 8.76005712 7.19085145 11.6875 8.5625 C12.43 9.0575 13.1725 9.5525 13.9375 10.0625 C14.25 12.75 14.25 12.75 13.9375 15.0625 C10.56287285 14.51526317 8.85515 14.0076 5.9375 12.0625 C5.9375 11.4025 5.9375 10.7425 5.9375 10.0625 C5.2775 10.0625 4.6175 10.0625 3.9375 10.0625 C4.3730869 16.59630347 5.79187718 22.038371 8.09765625 28.16796875 C8.99687332 31.26713085 9.08491001 33.85276595 8.9375 37.0625 C7.6175 37.0625 6.2975 37.0625 4.9375 37.0625 C4.26489649 35.29391309 3.59961605 33.52253984 2.9375 31.75 C2.56625 30.76386719 2.195 29.77773437 1.8125 28.76171875 C0.9375 26.0625 0.9375 26.0625 0.9375 23.0625 C0.2775 23.0625 -0.3825 23.0625 -1.0625 23.0625 C-1.25585938 23.73796875 -1.44921875 24.4134375 -1.6484375 25.109375 C-2.03902344 26.44742188 -2.03902344 26.44742188 -2.4375 27.8125 C-2.82035156 29.13507813 -2.82035156 29.13507813 -3.2109375 30.484375 C-3.9834934 32.82330572 -4.89875676 34.89692562 -6.0625 37.0625 C-7.3825 36.7325 -8.7025 36.4025 -10.0625 36.0625 C-9.73489494 31.47602917 -9.28486051 28.13763488 -7 24.125 C-4.60432108 19.77472384 -4.65712733 15.92697199 -5.0625 11.0625 C-5.7225 11.7225 -6.3825 12.3825 -7.0625 13.0625 C-8.0525 13.0625 -9.0425 13.0625 -10.0625 13.0625 C-10.165625 13.990625 -10.26875 14.91875 -10.375 15.875 C-10.9750057 20.16199726 -12.18738797 24.23588428 -13.36328125 28.39453125 C-14.20838796 31.61915631 -14.69478051 34.75302455 -15.0625 38.0625 C-16.0525 38.0625 -17.0425 38.0625 -18.0625 38.0625 C-18.3925 37.4025 -18.7225 36.7425 -19.0625 36.0625 C-21.17577425 35.15524566 -21.17577425 35.15524566 -23.625 34.4375 C-24.45128906 34.17710938 -25.27757812 33.91671875 -26.12890625 33.6484375 C-26.76699219 33.45507812 -27.40507812 33.26171875 -28.0625 33.0625 C-27.7325 30.7525 -27.4025 28.4425 -27.0625 26.0625 C-25.4125 26.0625 -23.7625 26.0625 -22.0625 26.0625 C-22.3925 27.7125 -22.7225 29.3625 -23.0625 31.0625 C-22.0725 31.0625 -21.0825 31.0625 -20.0625 31.0625 C-20.0625 30.0725 -20.0625 29.0825 -20.0625 28.0625 C-18.4125 28.3925 -16.7625 28.7225 -15.0625 29.0625 C-15.3925 27.7425 -15.7225 26.4225 -16.0625 25.0625 C-16.7225 25.0625 -17.3825 25.0625 -18.0625 25.0625 C-18.3925 23.7425 -18.7225 22.4225 -19.0625 21.0625 C-19.660625 21.7225 -20.25875 22.3825 -20.875 23.0625 C-23.0625 25.0625 -23.0625 25.0625 -26.0625 25.0625 C-25.7325 22.4225 -25.4025 19.7825 -25.0625 17.0625 C-22.05218256 16.12826355 -21.19599732 16.01800089 -18.0625 17.0625 C-18.0625 16.4025 -18.0625 15.7425 -18.0625 15.0625 C-17.4025 15.0625 -16.7425 15.0625 -16.0625 15.0625 C-16.0625 16.0525 -16.0625 17.0425 -16.0625 18.0625 C-15.0725 18.0625 -14.0825 18.0625 -13.0625 18.0625 C-12.99933594 17.505625 -12.93617187 16.94875 -12.87109375 16.375 C-11.77904412 9.5698065 -8.91646858 5.83131124 -4.0625 1.0625 C-3.0625 0.0625 -3.0625 0.0625 0 0 Z " fill="#1B4D76" transform="translate(31.0625,48.9375)"/>
<path d="M0 0 C5.23728814 0 5.23728814 0 8 1 C10 4.0625 10 4.0625 11 7 C10.34 7.66 9.68 8.32 9 9 C9.99 9.66 10.98 10.32 12 11 C12 11.99 12 12.98 12 14 C13.32 14.33 14.64 14.66 16 15 C16 14.01 16 13.02 16 12 C18.97 12 21.94 12 25 12 C25 12.66 25 13.32 25 14 C25.66 14 26.32 14 27 14 C27 13.34 27 12.68 27 12 C27.99 11.67 28.98 11.34 30 11 C30 9.68 30 8.36 30 7 C30.66 7 31.32 7 32 7 C32 6.34 32 5.68 32 5 C31.34 5 30.68 5 30 5 C30 4.34 30 3.68 30 3 C31.98 3 33.96 3 36 3 C36 3.66 36 4.32 36 5 C35.34 5 34.68 5 34 5 C34 6.32 34 7.64 34 9 C34.66 9 35.32 9 36 9 C37.625 11 37.625 11 39 13 C40.32 12.67 41.64 12.34 43 12 C43 13.32 43 14.64 43 16 C42.34 16 41.68 16 41 16 C41 16.66 41 17.32 41 18 C42.65 18.33 44.3 18.66 46 19 C46 18.01 46 17.02 46 16 C46.99 16 47.98 16 49 16 C48.67 17.32 48.34 18.64 48 20 C45.36 20 42.72 20 40 20 C41.65 20.33 43.3 20.66 45 21 C45 21.66 45 22.32 45 23 C44.34 23 43.68 23 43 23 C43 23.66 43 24.32 43 25 C40.03 25.495 40.03 25.495 37 26 C36.505 24.515 36.505 24.515 36 23 C36 23.99 36 24.98 36 26 C35.34 26 34.68 26 34 26 C34 26.66 34 27.32 34 28 C33.34 28 32.68 28 32 28 C31.67 29.32 31.34 30.64 31 32 C31 31.34 31 30.68 31 30 C28.03 30 25.06 30 22 30 C22 29.34 22 28.68 22 28 C20.68 28 19.36 28 18 28 C18 30.31 18 32.62 18 35 C17.34 35 16.68 35 16 35 C16 30.05 16 25.1 16 20 C14.35 19.34 12.7 18.68 11 18 C8.6875 16 8.6875 16 7 14 C7 13.34 7 12.68 7 12 C6.34 12 5.68 12 5 12 C5 11.34 5 10.68 5 10 C3.824375 10.0928125 3.824375 10.0928125 2.625 10.1875 C1.325625 10.0946875 1.325625 10.0946875 0 10 C-2.14915785 6.77626323 -2.38286803 5.73296326 -2 2 C-1.34 1.34 -0.68 0.68 0 0 Z " fill="#E0E0E0" transform="translate(29,39)"/>
<path d="M0 0 C-1.39375072 2.78750144 -3.16244861 2.89266287 -6 4 C-6.66 4.66 -7.32 5.32 -8 6 C-8.99 5.34 -9.98 4.68 -11 4 C-11 4.66 -11 5.32 -11 6 C-12.43429001 6.67354499 -13.87257057 7.33859701 -15.3125 8 C-16.11300781 8.37125 -16.91351562 8.7425 -17.73828125 9.125 C-20 10 -20 10 -23 10 C-22.67 10.99 -22.34 11.98 -22 13 C-19.69 13.33 -17.38 13.66 -15 14 C-14.34 13.01 -13.68 12.02 -13 11 C-10.375 10.8125 -10.375 10.8125 -8 11 C-7.67 11.99 -7.34 12.98 -7 14 C-3.7 14 -0.4 14 3 14 C3 15.65 3 17.3 3 19 C2.30132812 19.04898437 1.60265625 19.09796875 0.8828125 19.1484375 C-0.02726562 19.22320313 -0.93734375 19.29796875 -1.875 19.375 C-3.23238281 19.47941406 -3.23238281 19.47941406 -4.6171875 19.5859375 C-7.17941903 19.79568132 -7.17941903 19.79568132 -9 22 C-10.32 22 -11.64 22 -13 22 C-13 21.34 -13 20.68 -13 20 C-13.99 20.99 -14.98 21.98 -16 23 C-14.68 23.99 -13.36 24.98 -12 26 C-12.33 26.99 -12.66 27.98 -13 29 C-16.375 29.625 -16.375 29.625 -20 30 C-20.66 29.34 -21.32 28.68 -22 28 C-27.88727255 27.34585861 -33.51994831 27.63024792 -39 30 C-35.89991282 19.33757894 -28.03847211 10.15657802 -18.51953125 4.53515625 C-5.56531014 -2.22612406 -5.56531014 -2.22612406 0 0 Z " fill="#0B477C" transform="translate(47,6)"/>
<path d="M0 0 C4.29 0 8.58 0 13 0 C13 4.29 13 8.58 13 13 C9.37 13 5.74 13 2 13 C4.5162737 17.24574012 4.5162737 17.24574012 8.1875 17.75 C9.115625 17.8325 10.04375 17.915 11 18 C11 19.32 11 20.64 11 22 C10.01 22.66 9.02 23.32 8 24 C5.97615193 23.32538398 3.95535043 22.64156794 1.9375 21.94921875 C-2.68523169 20.64179174 -7.22895507 20.74485086 -12 20.8125 C-13.29550781 20.8134668 -13.29550781 20.8134668 -14.6171875 20.81445312 C-18.46893285 20.84079485 -22.19353481 20.96246542 -26 21.57421875 C-29 22 -29 22 -31 21 C-31.33 20.67 -31.66 20.34 -32 20 C-32.99 20.99 -33.98 21.98 -35 23 C-35.99 22.67 -36.98 22.34 -38 22 C-38 19.69 -38 17.38 -38 15 C-36.02 15 -34.04 15 -32 15 C-32 15.66 -32 16.32 -32 17 C-28.7 17.33 -25.4 17.66 -22 18 C-21.67 17.34 -21.34 16.68 -21 16 C-19.19402344 16.03480469 -19.19402344 16.03480469 -17.3515625 16.0703125 C-15.77604785 16.08906863 -14.20052652 16.10726899 -12.625 16.125 C-11.8309375 16.14175781 -11.036875 16.15851563 -10.21875 16.17578125 C-8.14507985 16.19335473 -6.07116759 16.10335168 -4 16 C-3.34 15.34 -2.68 14.68 -2 14 C-1.505 14.495 -1.505 14.495 -1 15 C-0.67 10.05 -0.34 5.1 0 0 Z " fill="#B4C5D0" transform="translate(45,76)"/>
<path d="M0 0 C0.763125 0.061875 1.52625 0.12375 2.3125 0.1875 C2.3125 0.8475 2.3125 1.5075 2.3125 2.1875 C2.9725 2.1875 3.6325 2.1875 4.3125 2.1875 C4.6425 1.5275 4.9725 0.8675 5.3125 0.1875 C5.9725 2.1675 6.6325 4.1475 7.3125 6.1875 C7.9725 6.1875 8.6325 6.1875 9.3125 6.1875 C8.6525 8.1675 7.9925 10.1475 7.3125 12.1875 C6.54164062 12.32027344 5.77078125 12.45304687 4.9765625 12.58984375 C3.97367188 12.76644531 2.97078125 12.94304688 1.9375 13.125 C0.93976563 13.29902344 -0.05796875 13.47304688 -1.0859375 13.65234375 C-3.65659656 14.06462062 -3.65659656 14.06462062 -5.6875 15.1875 C-4.3675 15.5175 -3.0475 15.8475 -1.6875 16.1875 C-1.6875 16.8475 -1.6875 17.5075 -1.6875 18.1875 C-3.0075 18.1875 -4.3275 18.1875 -5.6875 18.1875 C-6.0175 18.8475 -6.3475 19.5075 -6.6875 20.1875 C-6.6875 19.5275 -6.6875 18.8675 -6.6875 18.1875 C-7.3475 18.1875 -8.0075 18.1875 -8.6875 18.1875 C-8.6875 19.1775 -8.6875 20.1675 -8.6875 21.1875 C-5.2225 20.6925 -5.2225 20.6925 -1.6875 20.1875 C-1.6875 20.8475 -1.6875 21.5075 -1.6875 22.1875 C-1.0275 22.5175 -0.3675 22.8475 0.3125 23.1875 C-0.3475 23.1875 -1.0075 23.1875 -1.6875 23.1875 C-1.6875 23.8475 -1.6875 24.5075 -1.6875 25.1875 C-3.0075 25.1875 -4.3275 25.1875 -5.6875 25.1875 C-6.0175 26.8375 -6.3475 28.4875 -6.6875 30.1875 C-6.0275 30.1875 -5.3675 30.1875 -4.6875 30.1875 C-4.6875 30.8475 -4.6875 31.5075 -4.6875 32.1875 C-5.6775 32.1875 -6.6675 32.1875 -7.6875 32.1875 C-8.0175 30.5375 -8.3475 28.8875 -8.6875 27.1875 C-9.3475 27.1875 -10.0075 27.1875 -10.6875 27.1875 C-10.6875 27.8475 -10.6875 28.5075 -10.6875 29.1875 C-12.9975 28.5275 -15.3075 27.8675 -17.6875 27.1875 C-17.6875 26.5275 -17.6875 25.8675 -17.6875 25.1875 C-16.6975 25.1875 -15.7075 25.1875 -14.6875 25.1875 C-15.0175 23.5375 -15.3475 21.8875 -15.6875 20.1875 C-15.3575 20.8475 -15.0275 21.5075 -14.6875 22.1875 C-14.0275 22.1875 -13.3675 22.1875 -12.6875 22.1875 C-12.6875 21.5275 -12.6875 20.8675 -12.6875 20.1875 C-12.0275 20.1875 -11.3675 20.1875 -10.6875 20.1875 C-10.3575 18.5375 -10.0275 16.8875 -9.6875 15.1875 C-12.1625 14.1975 -12.1625 14.1975 -14.6875 13.1875 C-14.6875 10.5475 -14.6875 7.9075 -14.6875 5.1875 C-13.76517578 5.02314453 -13.76517578 5.02314453 -12.82421875 4.85546875 C-12.01597656 4.69691406 -11.20773438 4.53835937 -10.375 4.375 C-9.57449219 4.22417969 -8.77398437 4.07335937 -7.94921875 3.91796875 C-4.47159081 2.79479703 -3.72820191 0.26010711 0 0 Z " fill="#054880" transform="translate(82.6875,20.8125)"/>
<path d="M0 0 C0.99 0 1.98 0 3 0 C2.67 1.32 2.34 2.64 2 4 C2.66 4 3.32 4 4 4 C4.33 2.68 4.66 1.36 5 0 C5.66 0 6.32 0 7 0 C7 0.66 7 1.32 7 2 C7.66 2 8.32 2 9 2 C9 1.34 9 0.68 9 0 C10.32 0 11.64 0 13 0 C13.12375 0.639375 13.2475 1.27875 13.375 1.9375 C13.58125 2.618125 13.7875 3.29875 14 4 C14.66 4.33 15.32 4.66 16 5 C16 5.66 16 6.32 16 7 C15.34 7 14.68 7 14 7 C14 8.32 14 9.64 14 11 C13.01 11 12.02 11 11 11 C11.33 12.65 11.66 14.3 12 16 C12.66 16 13.32 16 14 16 C13.67 17.32 13.34 18.64 13 20 C12.34 20 11.68 20 11 20 C11 21.65 11 23.3 11 25 C10.34 25 9.68 25 9 25 C9 25.66 9 26.32 9 27 C9.66 27.33 10.32 27.66 11 28 C10.34 29.32 9.68 30.64 9 32 C9.66 32 10.32 32 11 32 C11 31.34 11 30.68 11 30 C11.99 30 12.98 30 14 30 C13.67 29.01 13.34 28.02 13 27 C13.99 27 14.98 27 16 27 C16 28.65 16 30.3 16 32 C15.34 32 14.68 32 14 32 C13.67 32.99 13.34 33.98 13 35 C13 34.34 13 33.68 13 33 C12.34 33 11.68 33 11 33 C11 34.32 11 35.64 11 37 C9.02 37 7.04 37 5 37 C5.99 36.505 5.99 36.505 7 36 C6.814375 35.38125 6.62875 34.7625 6.4375 34.125 C6 32 6 32 7 30 C5.02 30.33 3.04 30.66 1 31 C1.33 29.68 1.66 28.36 2 27 C2 27.66 2 28.32 2 29 C3.65 29 5.3 29 7 29 C7 27.02 7 25.04 7 23 C5.88625 23.185625 4.7725 23.37125 3.625 23.5625 C0 24 0 24 -2 23 C-2 23.66 -2 24.32 -2 25 C-2.66 25 -3.32 25 -4 25 C-4 25.66 -4 26.32 -4 27 C-4.99 27.33 -5.98 27.66 -7 28 C-7.66 27.67 -8.32 27.34 -9 27 C-9 26.34 -9 25.68 -9 25 C-7.68 25 -6.36 25 -5 25 C-5 24.01 -5 23.02 -5 22 C-2.69 22 -0.38 22 2 22 C2 20.68 2 19.36 2 18 C2.66 18 3.32 18 4 18 C4 18.66 4 19.32 4 20 C4.99 20 5.98 20 7 20 C7 19.34 7 18.68 7 18 C6.34 18 5.68 18 5 18 C5 15.69 5 13.38 5 11 C5.66 11 6.32 11 7 11 C7 10.34 7 9.68 7 9 C6.01 8.67 5.02 8.34 4 8 C4 7.34 4 6.68 4 6 C3.34 6 2.68 6 2 6 C2 7.65 2 9.3 2 11 C0.68 11 -0.64 11 -2 11 C-2 10.34 -2 9.68 -2 9 C-1.34 9 -0.68 9 0 9 C0 7.68 0 6.36 0 5 C-0.66 4.67 -1.32 4.34 -2 4 C-2 3.34 -2 2.68 -2 2 C-1.34 2 -0.68 2 0 2 C0 1.34 0 0.68 0 0 Z " fill="#141212" transform="translate(81,51)"/>
<path d="M0 0 C4.66072786 4.14286921 8.60462003 8.45024859 9.16748047 14.92724609 C9.33950427 19.62531237 9.20511987 24.30503403 9 29 C5.04 29 1.08 29 -3 29 C-3.28875 28.030625 -3.5775 27.06125 -3.875 26.0625 C-4.64214682 22.89335797 -4.64214682 22.89335797 -7 22 C-7 21.34 -7 20.68 -7 20 C-9.31 20.33 -11.62 20.66 -14 21 C-14 20.01 -14 19.02 -14 18 C-11.69 18 -9.38 18 -7 18 C-7 17.34 -7 16.68 -7 16 C-8.65 16 -10.3 16 -12 16 C-9.54908957 13.31566952 -7.71758616 12.08210259 -3.95703125 11.90234375 C-3.24933594 11.91394531 -2.54164062 11.92554688 -1.8125 11.9375 C0.0746875 11.9684375 0.0746875 11.9684375 2 12 C2.144375 11.38125 2.28875 10.7625 2.4375 10.125 C3 8 3 8 4 6 C3.34 6 2.68 6 2 6 C1.34 4.02 0.68 2.04 0 0 Z " fill="#4F667B" transform="translate(88,21)"/>
<path d="M0 0 C1.65 0 3.3 0 5 0 C5 1.98 5 3.96 5 6 C6.32 6.66 7.64 7.32 9 8 C8.01 8.66 7.02 9.32 6 10 C5.67 10.99 5.34 11.98 5 13 C5.66 13 6.32 13 7 13 C7 14.32 7 15.64 7 17 C4.69 17 2.38 17 0 17 C0.33 14.36 0.66 11.72 1 9 C-0.32 8.67 -1.64 8.34 -3 8 C-3 8.66 -3 9.32 -3 10 C-2.34 10.33 -1.68 10.66 -1 11 C-1 12.65 -1 14.3 -1 16 C-1.97582031 16.06058594 -2.95164062 16.12117188 -3.95703125 16.18359375 C-5.86548828 16.30927734 -5.86548828 16.30927734 -7.8125 16.4375 C-9.07707031 16.51871094 -10.34164062 16.59992188 -11.64453125 16.68359375 C-14.99181893 16.87184547 -14.99181893 16.87184547 -18 18 C-18 17.34 -18 16.68 -18 16 C-19.98 16 -21.96 16 -24 16 C-23.67 14.68 -23.34 13.36 -23 12 C-21.02 12 -19.04 12 -17 12 C-17.66 11.67 -18.32 11.34 -19 11 C-19 10.34 -19 9.68 -19 9 C-15.5980513 6.90649311 -12.94727588 6.82057837 -9 7 C-9 6.01 -9 5.02 -9 4 C-5.37471432 3.79859524 -3.13498292 4.14223235 0 6 C0 4.02 0 2.04 0 0 Z " fill="#E7E9E9" transform="translate(83,81)"/>
<path d="M0 0 C1.32 0 2.64 0 4 0 C4 0.66 4 1.32 4 2 C4.99 2 5.98 2 7 2 C6.67 2.99 6.34 3.98 6 5 C4.68 4.67 3.36 4.34 2 4 C2 4.99 2 5.98 2 7 C5.63 7 9.26 7 13 7 C13 8.32 13 9.64 13 11 C14.65 11 16.3 11 18 11 C18 11.99 18 12.98 18 14 C16.68 14 15.36 14 14 14 C14 15.98 14 17.96 14 20 C14.66 20 15.32 20 16 20 C16 18.68 16 17.36 16 16 C19.465 15.505 19.465 15.505 23 15 C23 15.99 23 16.98 23 18 C23.66 18.33 24.32 18.66 25 19 C22.69 18.67 20.38 18.34 18 18 C18 18.66 18 19.32 18 20 C18.99 20 19.98 20 21 20 C20.67 20.99 20.34 21.98 20 23 C19.01 23 18.02 23 17 23 C17 23.66 17 24.32 17 25 C17.99 25.33 18.98 25.66 20 26 C20 26.33 20 26.66 20 27 C17.69 27 15.38 27 13 27 C12.67 27.99 12.34 28.98 12 30 C11.01 30 10.02 30 9 30 C9 29.01 9 28.02 9 27 C6.69 27 4.38 27 2 27 C1.34 25.35 0.68 23.7 0 22 C3.63 22 7.26 22 11 22 C11 17.71 11 13.42 11 9 C7.37 9 3.74 9 0 9 C0 6.03 0 3.06 0 0 Z " fill="#F2F6F7" transform="translate(47,67)"/>
<path d="M0 0 C5.23728814 0 5.23728814 0 8 1 C10 4.0625 10 4.0625 11 7 C10.34 7.66 9.68 8.32 9 9 C9.99 9.66 10.98 10.32 12 11 C12 11.99 12 12.98 12 14 C14.64 14 17.28 14 20 14 C20 14.66 20 15.32 20 16 C19.34 16 18.68 16 18 16 C18 17.32 18 18.64 18 20 C18.99 20.33 19.98 20.66 21 21 C21 21.66 21 22.32 21 23 C21.66 23 22.32 23 23 23 C23 23.66 23 24.32 23 25 C18.25 26.125 18.25 26.125 16 25 C16 23.35 16 21.7 16 20 C15.2575 19.7525 14.515 19.505 13.75 19.25 C10.76976913 17.89534961 9.10080748 16.4898459 7 14 C7 13.34 7 12.68 7 12 C6.34 12 5.68 12 5 12 C5 11.34 5 10.68 5 10 C3.824375 10.0928125 3.824375 10.0928125 2.625 10.1875 C1.325625 10.0946875 1.325625 10.0946875 0 10 C-2.14915785 6.77626323 -2.38286803 5.73296326 -2 2 C-1.34 1.34 -0.68 0.68 0 0 Z " fill="#E8F6F6" transform="translate(29,39)"/>
<path d="M0 0 C0.33 0.66 0.66 1.32 1 2 C3.69885731 2.57422496 6.23792697 3 9 3 C11.67113987 3.30036914 14.33399642 3.65599954 17 4 C17 4.99 17 5.98 17 7 C13.17010894 8.80230168 10.21878192 9.19622241 6 9 C6 11.31 6 13.62 6 16 C3.49642139 15.1654738 1.33214148 14.20628008 -1 13 C-1 12.34 -1 11.68 -1 11 C-2.134375 10.855625 -3.26875 10.71125 -4.4375 10.5625 C-8 10 -8 10 -9 9 C-9.04063832 7.33382885 -9.042721 5.66611905 -9 4 C-8.67 4.99 -8.34 5.98 -8 7 C-7.01 6.67 -6.02 6.34 -5 6 C-5 4.68 -5 3.36 -5 2 C-3.35 2.33 -1.7 2.66 0 3 C0 2.01 0 1.02 0 0 Z " fill="#1B5081" transform="translate(62,17)"/>
<path d="M0 0 C3.09244792 0.03255208 6.18489583 0.06510417 9.27734375 0.09765625 C9.27734375 4.38765625 9.27734375 8.67765625 9.27734375 13.09765625 C4.98734375 13.09765625 0.69734375 13.09765625 -3.72265625 13.09765625 C-3.8203125 3.8203125 -3.8203125 3.8203125 -3.72265625 1.09765625 C-2.72265625 0.09765625 -2.72265625 0.09765625 0 0 Z " fill="#302E2D" transform="translate(48.72265625,36.90234375)"/>
<path d="M0 0 C-0.66 0.33 -1.32 0.66 -2 1 C-2.46523063 2.89533342 -2.46523063 2.89533342 -2.625 5.0625 C-2.74875 6.361875 -2.8725 7.66125 -3 9 C-2.01 9 -1.02 9 0 9 C0.33 8.34 0.66 7.68 1 7 C1 7.66 1 8.32 1 9 C1.99 9 2.98 9 4 9 C4 7.68 4 6.36 4 5 C3.34 5 2.68 5 2 5 C1.505 2.525 1.505 2.525 1 0 C3.31 0 5.62 0 8 0 C7.34 0.33 6.68 0.66 6 1 C5.59270772 3.32156597 5.25561323 5.6568787 5 8 C5.66 8.33 6.32 8.66 7 9 C6.34 9 5.68 9 5 9 C5 9.66 5 10.32 5 11 C-7.54 11 -20.08 11 -33 11 C-33.33 10.34 -33.66 9.68 -34 9 C-32.58622218 8.63447197 -31.16879424 8.28304505 -29.75 7.9375 C-28.96109375 7.74027344 -28.1721875 7.54304688 -27.359375 7.33984375 C-24.89605178 6.98502733 -23.34395868 7.23122456 -21 8 C-21 8.66 -21 9.32 -21 10 C-20.01 9.34 -19.02 8.68 -18 8 C-16.0625 7.55078125 -16.0625 7.55078125 -14 7.3125 C-13.319375 7.22613281 -12.63875 7.13976562 -11.9375 7.05078125 C-10 7 -10 7 -7 8 C-6.67 7.34 -6.34 6.68 -6 6 C-6 6.66 -6 7.32 -6 8 C-5.34 8 -4.68 8 -4 8 C-4 6.35 -4 4.7 -4 3 C-4.99 2.67 -5.98 2.34 -7 2 C-7.33 1.34 -7.66 0.68 -8 0 C-5.13822943 -1.43088528 -3.06624227 -0.59991697 0 0 Z " fill="#E7F4F9" transform="translate(86,89)"/>
<path d="M0 0 C4.29 0 8.58 0 13 0 C13 3.96 13 7.92 13 12 C8.71 12 4.42 12 0 12 C0 8.04 0 4.08 0 0 Z " fill="#D9D7D4" transform="translate(45,76)"/>
<path d="M0 0 C2 0 2 0 3.625 1.375 C5 3 5 3 5 5 C4.34 5 3.68 5 3 5 C3 6.32 3 7.64 3 9 C3.66 9.33 4.32 9.66 5 10 C4.34 10 3.68 10 3 10 C3 10.66 3 11.32 3 12 C3.66 12 4.32 12 5 12 C5 12.66 5 13.32 5 14 C4.01 14 3.02 14 2 14 C2 13.34 2 12.68 2 12 C1.34 12 0.68 12 0 12 C0 13.32 0 14.64 0 16 C-2.31 16 -4.62 16 -7 16 C-7.33 16.99 -7.66 17.98 -8 19 C-8.33 16.69 -8.66 14.38 -9 12 C-10.65 12 -12.3 12 -14 12 C-14 11.34 -14 10.68 -14 10 C-13.01 10 -12.02 10 -11 10 C-11 9.34 -11 8.68 -11 8 C-9.73160474 7.49384702 -8.46016898 6.99530901 -7.1875 6.5 C-6.12595703 6.08234375 -6.12595703 6.08234375 -5.04296875 5.65625 C-3 5 -3 5 0 5 C0 3.35 0 1.7 0 0 Z " fill="#BDBDBD" transform="translate(83,57)"/>
<path d="M0 0 C1.65 0 3.3 0 5 0 C5.33 0.99 5.66 1.98 6 3 C9.3 3 12.6 3 16 3 C16 4.65 16 6.3 16 8 C15.30132812 8.04898437 14.60265625 8.09796875 13.8828125 8.1484375 C12.97273438 8.22320312 12.06265625 8.29796875 11.125 8.375 C10.22007813 8.44460937 9.31515625 8.51421875 8.3828125 8.5859375 C5.82058097 8.79568132 5.82058097 8.79568132 4 11 C2.68 11 1.36 11 0 11 C0 10.34 0 9.68 0 9 C-0.99 9.66 -1.98 10.32 -3 11 C-3.99 10.67 -4.98 10.34 -6 10 C-5.67 9.67 -5.34 9.34 -5 9 C-5.66 8.34 -6.32 7.68 -7 7 C-7 6.01 -7 5.02 -7 4 C-5.35 4 -3.7 4 -2 4 C-1.34 2.68 -0.68 1.36 0 0 Z " fill="#5A86AD" transform="translate(34,17)"/>
<path d="M0 0 C4.00646537 1.58149949 7.42353902 0.25465366 11.375 -1.0625 C17.15986795 -1.6354774 21.31072769 -1.17897527 26.375 1.9375 C25.715 3.5875 25.055 5.2375 24.375 6.9375 C23.715 6.9375 23.055 6.9375 22.375 6.9375 C22.375 7.5975 22.375 8.2575 22.375 8.9375 C21.715 8.9375 21.055 8.9375 20.375 8.9375 C19.715 6.9575 19.055 4.9775 18.375 2.9375 C18.045 4.2575 17.715 5.5775 17.375 6.9375 C15.395 6.9375 13.415 6.9375 11.375 6.9375 C12.035 5.2875 12.695 3.6375 13.375 1.9375 C8.095 2.5975 2.815 3.2575 -2.625 3.9375 C-2.955 2.6175 -3.285 1.2975 -3.625 -0.0625 C-4.23988281 0.081875 -4.85476562 0.22625 -5.48828125 0.375 C-6.29652344 0.560625 -7.10476562 0.74625 -7.9375 0.9375 C-9.13826172 1.2159375 -9.13826172 1.2159375 -10.36328125 1.5 C-12.625 1.9375 -12.625 1.9375 -15.625 1.9375 C-11.51250905 -2.17499095 -5.16600907 -2.09100367 0 0 Z " fill="#DCEEF5" transform="translate(47.625,34.0625)"/>
<path d="M0 0 C2.64 0 5.28 0 8 0 C8 1.65 8 3.3 8 5 C6.35 5.33 4.7 5.66 3 6 C3 6.66 3 7.32 3 8 C1.68 8 0.36 8 -1 8 C-1.33 8.66 -1.66 9.32 -2 10 C-2 9.34 -2 8.68 -2 8 C-2.99 8.33 -3.98 8.66 -5 9 C-5 9.99 -5 10.98 -5 12 C-5.99 12.33 -6.98 12.66 -8 13 C-8 14.32 -8 15.64 -8 17 C-6.68 17 -5.36 17 -4 17 C-4 17.66 -4 18.32 -4 19 C-4.99 19.33 -5.98 19.66 -7 20 C-7.66 19.67 -8.32 19.34 -9 19 C-9 17.68 -9 16.36 -9 15 C-12.63 15 -16.26 15 -20 15 C-20 14.01 -20 13.02 -20 12 C-18.68 12 -17.36 12 -16 12 C-15.67 11.34 -15.34 10.68 -15 10 C-13.02 10 -11.04 10 -9 10 C-8.67 9.34 -8.34 8.68 -8 8 C-7.34 8 -6.68 8 -6 8 C-6 7.34 -6 6.68 -6 6 C-5.34 6 -4.68 6 -4 6 C-4 5.01 -4 4.02 -4 3 C-3.34 3.33 -2.68 3.66 -2 4 C-2.33 4.66 -2.66 5.32 -3 6 C-1.02 5.67 0.96 5.34 3 5 C3 4.34 3 3.68 3 3 C3.66 3 4.32 3 5 3 C5 2.34 5 1.68 5 1 C3.68 1 2.36 1 1 1 C0.67 1.66 0.34 2.32 0 3 C0 2.01 0 1.02 0 0 Z " fill="#1E1E1E" transform="translate(69,59)"/>
<path d="M0 0 C0.66 0.33 1.32 0.66 2 1 C1.67 1.66 1.34 2.32 1 3 C2.32 3 3.64 3 5 3 C5 7.62 5 12.24 5 17 C2.03 17 -0.94 17 -4 17 C-4.11521265 11.58500559 -3.68201156 6.37084106 -3 1 C-2.01 0.67 -1.02 0.34 0 0 Z " fill="#EFF1F0" transform="translate(95,83)"/>
<path d="M0 0 C2.64 0 5.28 0 8 0 C7.360625 0.12375 6.72125 0.2475 6.0625 0.375 C5.381875 0.58125 4.70125 0.7875 4 1 C3.67 1.66 3.34 2.32 3 3 C3 2.34 3 1.68 3 1 C2.34 1 1.68 1 1 1 C1 1.99 1 2.98 1 4 C4.465 3.505 4.465 3.505 8 3 C8 3.66 8 4.32 8 5 C8.66 5.33 9.32 5.66 10 6 C9.34 6 8.68 6 8 6 C8 6.66 8 7.32 8 8 C6.68 8 5.36 8 4 8 C3.67 9.65 3.34 11.3 3 13 C3.66 13 4.32 13 5 13 C5 13.66 5 14.32 5 15 C4.01 15 3.02 15 2 15 C1.67 13.35 1.34 11.7 1 10 C0.34 10 -0.32 10 -1 10 C-1 10.66 -1 11.32 -1 12 C-3.31 11.34 -5.62 10.68 -8 10 C-8 9.34 -8 8.68 -8 8 C-7.01 8 -6.02 8 -5 8 C-5.33 6.35 -5.66 4.7 -6 3 C-5.67 3.66 -5.34 4.32 -5 5 C-4.34 5 -3.68 5 -3 5 C-3 4.34 -3 3.68 -3 3 C-2.34 3 -1.68 3 -1 3 C-0.67 2.01 -0.34 1.02 0 0 Z " fill="#191A1D" transform="translate(73,38)"/>
<path d="M0 0 C0.99 0 1.98 0 3 0 C2.67 1.32 2.34 2.64 2 4 C2.66 4 3.32 4 4 4 C4.33 2.68 4.66 1.36 5 0 C5.66 0 6.32 0 7 0 C7 0.66 7 1.32 7 2 C7.66 2 8.32 2 9 2 C9 1.34 9 0.68 9 0 C10.32 0 11.64 0 13 0 C13.12375 0.61875 13.2475 1.2375 13.375 1.875 C13.87197356 4.19120832 13.87197356 4.19120832 16 6 C15.01 6 14.02 6 13 6 C13 6.99 13 7.98 13 9 C10.36 9 7.72 9 5 9 C4.67 8.01 4.34 7.02 4 6 C3.34 6 2.68 6 2 6 C2 7.65 2 9.3 2 11 C0.68 11 -0.64 11 -2 11 C-2 10.34 -2 9.68 -2 9 C-1.34 9 -0.68 9 0 9 C0 7.68 0 6.36 0 5 C-0.66 4.67 -1.32 4.34 -2 4 C-2 3.34 -2 2.68 -2 2 C-1.34 2 -0.68 2 0 2 C0 1.34 0 0.68 0 0 Z " fill="#CECECE" transform="translate(81,51)"/>
<path d="M0 0 C2.97 0 5.94 0 9 0 C9 0.66 9 1.32 9 2 C9.66 2 10.32 2 11 2 C11 2.66 11 3.32 11 4 C11.7425 4.12375 12.485 4.2475 13.25 4.375 C15.80141485 4.95486701 17.7267573 5.73708739 20 7 C20 7.66 20 8.32 20 9 C19.34 9 18.68 9 18 9 C18 9.66 18 10.32 18 11 C17.34 11 16.68 11 16 11 C16 10.34 16 9.68 16 9 C14.35 9 12.7 9 11 9 C11.66 8.67 12.32 8.34 13 8 C13 7.34 13 6.68 13 6 C11.02463255 6.34786708 11.02463255 6.34786708 9 7 C8.67 7.66 8.34 8.32 8 9 C8 8.34 8 7.68 8 7 C7.01 7.66 6.02 8.32 5 9 C2.875 8.75 2.875 8.75 1 8 C0.67 7.34 0.34 6.68 0 6 C0.66 6 1.32 6 2 6 C2 5.34 2 4.68 2 4 C2.66 4 3.32 4 4 4 C4 3.34 4 2.68 4 2 C2.68 2 1.36 2 0 2 C0 1.34 0 0.68 0 0 Z " fill="#777777" transform="translate(45,51)"/>
<path d="M0 0 C0 0.66 0 1.32 0 2 C-3.96 2 -7.92 2 -12 2 C-12 3.98 -12 5.96 -12 8 C-12.99 8 -13.98 8 -15 8 C-15 7.34 -15 6.68 -15 6 C-17.31 6.33 -19.62 6.66 -22 7 C-22 6.01 -22 5.02 -22 4 C-19.69 4 -17.38 4 -15 4 C-15 3.34 -15 2.68 -15 2 C-16.65 2 -18.3 2 -20 2 C-14.58791503 -3.92752163 -6.87449635 -2.74979854 0 0 Z " fill="#F7F8F9" transform="translate(96,35)"/>
<path d="M0 0 C1.32 0 2.64 0 4 0 C4 0.66 4 1.32 4 2 C4.99 2 5.98 2 7 2 C6.67 2.99 6.34 3.98 6 5 C4.68 4.67 3.36 4.34 2 4 C2 4.99 2 5.98 2 7 C5.63 7 9.26 7 13 7 C13 8.32 13 9.64 13 11 C14.65 11 16.3 11 18 11 C18 11.99 18 12.98 18 14 C16.68 14 15.36 14 14 14 C13.67 16.31 13.34 18.62 13 21 C12.34 21 11.68 21 11 21 C11 17.04 11 13.08 11 9 C7.37 9 3.74 9 0 9 C0 6.03 0 3.06 0 0 Z " fill="#D8D8D8" transform="translate(47,67)"/>
<path d="M0 0 C-1.39375072 2.78750144 -3.16244861 2.89266287 -6 4 C-6.66 4.66 -7.32 5.32 -8 6 C-8.99 5.34 -9.98 4.68 -11 4 C-11 4.66 -11 5.32 -11 6 C-12.43429001 6.67354499 -13.87257057 7.33859701 -15.3125 8 C-16.11300781 8.37125 -16.91351563 8.7425 -17.73828125 9.125 C-20 10 -20 10 -23 10 C-22.67 11.65 -22.34 13.3 -22 15 C-22.66 15 -23.32 15 -24 15 C-25.625 13 -25.625 13 -27 11 C-8.80106572 -3.52042629 -8.80106572 -3.52042629 0 0 Z " fill="#1D517D" transform="translate(47,6)"/>
<path d="M0 0 C3.93239315 3.93239315 4.90780214 10.21750806 5.1875 15.625 C5.125625 16.40875 5.06375 17.1925 5 18 C3.68 18 2.36 18 1 18 C0.34956281 16.27255984 -0.29514844 14.5429631 -0.9375 12.8125 C-1.47697266 11.36810547 -1.47697266 11.36810547 -2.02734375 9.89453125 C-2.91156562 7.2631722 -3.52568586 4.73105092 -4 2 C-2.68 2 -1.36 2 0 2 C0 1.34 0 0.68 0 0 Z " fill="#1A496E" transform="translate(35,68)"/>
<path d="M0 0 C1.65 0 3.3 0 5 0 C5 1.98 5 3.96 5 6 C6.32 6.66 7.64 7.32 9 8 C8.01 8.66 7.02 9.32 6 10 C5.67 10.99 5.34 11.98 5 13 C5.66 13 6.32 13 7 13 C7 14.32 7 15.64 7 17 C4.69 17 2.38 17 0 17 C0.226875 15.741875 0.45375 14.48375 0.6875 13.1875 C1.20193197 9.85861291 1.20193197 9.85861291 -0.4375 7 C-0.953125 6.67 -1.46875 6.34 -2 6 C-1.34 6 -0.68 6 0 6 C0 4.02 0 2.04 0 0 Z " fill="#A7B5BF" transform="translate(83,81)"/>
<path d="M0 0 C1.98 0 3.96 0 6 0 C6 0.66 6 1.32 6 2 C5.34 2 4.68 2 4 2 C4 3.32 4 4.64 4 6 C4.66 6 5.32 6 6 6 C7.625 8 7.625 8 9 10 C10.32 9.67 11.64 9.34 13 9 C13 10.32 13 11.64 13 13 C11.68 13 10.36 13 9 13 C7.32774271 13.30404678 5.65919896 13.63128912 4 14 C4 13.01 4 12.02 4 11 C1.69 11 -0.62 11 -3 11 C-3 10.34 -3 9.68 -3 9 C-2.01 8.67 -1.02 8.34 0 8 C0 6.68 0 5.36 0 4 C0.66 4 1.32 4 2 4 C2 3.34 2 2.68 2 2 C1.34 2 0.68 2 0 2 C0 1.34 0 0.68 0 0 Z " fill="#343434" transform="translate(59,42)"/>
<path d="M0 0 C0.66 0 1.32 0 2 0 C2 0.66 2 1.32 2 2 C4.475 2.99 4.475 2.99 7 4 C5.68 4.33 4.36 4.66 3 5 C4.00193437 8.79303725 4.81024227 11.71536341 7 15 C7.33 15 7.66 15 8 15 C8 17.31 8 19.62 8 22 C7.34 22 6.68 22 6 22 C5.67 23.32 5.34 24.64 5 26 C4.72285156 24.94039062 4.44570313 23.88078125 4.16015625 22.7890625 C3.794386 21.40101131 3.42849428 20.01299213 3.0625 18.625 C2.88009766 17.92632812 2.69769531 17.22765625 2.50976562 16.5078125 C1.51487491 12.66044902 1.51487491 12.66044902 0 9 C-0.06950541 7.45976004 -0.08452357 5.91665012 -0.0625 4.375 C-0.05347656 3.55773438 -0.04445312 2.74046875 -0.03515625 1.8984375 C-0.02355469 1.27195313 -0.01195312 0.64546875 0 0 Z " fill="#DEF4FA" transform="translate(35,59)"/>
<path d="M0 0 C1.32 0 2.64 0 4 0 C3.34 1.65 2.68 3.3 2 5 C2.99 5 3.98 5 5 5 C5.33 4.01 5.66 3.02 6 2 C6 2.99 6 3.98 6 5 C6.66 5 7.32 5 8 5 C8 3.68 8 2.36 8 1 C7.34 0.67 6.68 0.34 6 0 C7.65 0 9.3 0 11 0 C10.01 0.495 10.01 0.495 9 1 C9.66 3.97 10.32 6.94 11 10 C10.01 10 9.02 10 8 10 C8 10.66 8 11.32 8 12 C7.34 12 6.68 12 6 12 C6 10.68 6 9.36 6 8 C6.66 8 7.32 8 8 8 C8 7.34 8 6.68 8 6 C6.02 6 4.04 6 2 6 C2 6.66 2 7.32 2 8 C2.66 8 3.32 8 4 8 C4 8.66 4 9.32 4 10 C3.34 10 2.68 10 2 10 C2 11.32 2 12.64 2 14 C2.66 14.33 3.32 14.66 4 15 C2.35 15 0.7 15 -1 15 C-1 15.66 -1 16.32 -1 17 C-1.66 17 -2.32 17 -3 17 C-3 16.34 -3 15.68 -3 15 C-5.97 15 -8.94 15 -12 15 C-12 14.67 -12 14.34 -12 14 C-7.71 14 -3.42 14 1 14 C0.67 9.38 0.34 4.76 0 0 Z " fill="#F6F5F0" transform="translate(57,36)"/>
<path d="M0 0 C0.99 0.33 1.98 0.66 3 1 C2.34 1 1.68 1 1 1 C1 2.32 1 3.64 1 5 C0.01 5 -0.98 5 -2 5 C-1.67 6.65 -1.34 8.3 -1 10 C-0.34 10 0.32 10 1 10 C0.67 11.32 0.34 12.64 0 14 C-1.32 14 -2.64 14 -4 14 C-4 14.66 -4 15.32 -4 16 C-4.66 16 -5.32 16 -6 16 C-6 14.68 -6 13.36 -6 12 C-6.66 12 -7.32 12 -8 12 C-8 9.69 -8 7.38 -8 5 C-7.34 5 -6.68 5 -6 5 C-6 4.34 -6 3.68 -6 3 C-4.02 3 -2.04 3 0 3 C0 2.01 0 1.02 0 0 Z " fill="#252525" transform="translate(94,57)"/>
<path d="M0 0 C2.97 0 5.94 0 9 0 C9 2.97 9 5.94 9 9 C6.03 9 3.06 9 0 9 C0 6.03 0 3.06 0 0 Z " fill="#DFDDDB" transform="translate(47,39)"/>
<path d="M0 0 C2.97 0 5.94 0 9 0 C9 2.97 9 5.94 9 9 C6.03 9 3.06 9 0 9 C0 6.03 0 3.06 0 0 Z " fill="#D3CFD1" transform="translate(86,39)"/>
<path d="M0 0 C0.33 1.98 0.66 3.96 1 6 C-0.32 6 -1.64 6 -3 6 C-3.33 6.99 -3.66 7.98 -4 9 C-4.66 8.01 -5.32 7.02 -6 6 C-8.43693311 5.63583953 -8.43693311 5.63583953 -11.125 5.8125 C-12.03507812 5.83957031 -12.94515625 5.86664063 -13.8828125 5.89453125 C-14.58148437 5.92933594 -15.28015625 5.96414062 -16 6 C-16.33 4.68 -16.66 3.36 -17 2 C-15.39125 2.061875 -15.39125 2.061875 -13.75 2.125 C-8.70295441 1.95676515 -5.24232887 -0.23828768 0 0 Z " fill="#F8FBF8" transform="translate(44,34)"/>
<path d="M0 0 C0.66 0.66 1.32 1.32 2 2 C2.66 1.34 3.32 0.68 4 0 C5.16161779 2.86578759 4.9946154 4.01630163 4.00390625 7.015625 C3.29041016 8.61664063 3.29041016 8.61664063 2.5625 10.25 C2.08941406 11.32765625 1.61632812 12.4053125 1.12890625 13.515625 C0.75636719 14.33546875 0.38382813 15.1553125 0 16 C-1.32 15.67 -2.64 15.34 -4 15 C-3.50341703 9.33895411 -2.45489316 5.12325529 0 0 Z " fill="#2D608A" transform="translate(25,70)"/>
<path d="M0 0 C1.65 0 3.3 0 5 0 C5 0.66 5 1.32 5 2 C6.65 2 8.3 2 10 2 C10 2.66 10 3.32 10 4 C9.34 4 8.68 4 8 4 C8 4.99 8 5.98 8 7 C7.34 7 6.68 7 6 7 C6 7.66 6 8.32 6 9 C3.03 9 0.06 9 -3 9 C-3 7.68 -3 6.36 -3 5 C-2.01 4.34 -1.02 3.68 0 3 C0 2.01 0 1.02 0 0 Z " fill="#8B8B8B" transform="translate(64,67)"/>
<path d="M0 0 C4.29 0 8.58 0 13 0 C13 3.96 13 7.92 13 12 C8.71 12 4.42 12 0 12 C0 8.04 0 4.08 0 0 Z M2 2 C2 4.97 2 7.94 2 11 C4.97 11 7.94 11 11 11 C11 8.03 11 5.06 11 2 C8.03 2 5.06 2 2 2 Z " fill="#201D1B" transform="translate(45,76)"/>
<path d="M0 0 C4.29 0 8.58 0 13 0 C13 0.33 13 0.66 13 1 C9.37 1 5.74 1 2 1 C4.5162737 5.24574012 4.5162737 5.24574012 8.1875 5.75 C9.115625 5.8325 10.04375 5.915 11 6 C11 7.32 11 8.64 11 10 C10.01 10.66 9.02 11.32 8 12 C5 11 5 11 3.0625 9 C0.94325285 6.94497246 -0.13747914 6.40893155 -3 6 C-2.67 4.68 -2.34 3.36 -2 2 C-1.67 2.33 -1.34 2.66 -1 3 C-0.67 2.01 -0.34 1.02 0 0 Z " fill="#CFD9DD" transform="translate(45,88)"/>
<path d="M0 0 C0.99 0 1.98 0 3 0 C3.33 1.65 3.66 3.3 4 5 C7.63 5.33 11.26 5.66 15 6 C15 7.65 15 9.3 15 11 C14.34 10.01 13.68 9.02 13 8 C12.01 8.495 12.01 8.495 11 9 C11 8.34 11 7.68 11 7 C10.34 7 9.68 7 9 7 C9 7.66 9 8.32 9 9 C8.34 9 7.68 9 7 9 C7 8.34 7 7.68 7 7 C6.34 7 5.68 7 5 7 C4.67 8.32 4.34 9.64 4 11 C3.34 11 2.68 11 2 11 C2.33 9.68 2.66 8.36 3 7 C2.01 7 1.02 7 0 7 C-0.33 7.66 -0.66 8.32 -1 9 C-2.5 7.75 -2.5 7.75 -4 6 C-4 4.68 -4 3.36 -4 2 C-2.68 2 -1.36 2 0 2 C0 1.34 0 0.68 0 0 Z " fill="#E5E4E4" transform="translate(81,44)"/>
<path d="M0 0 C0.33 0.66 0.66 1.32 1 2 C4.02934491 2.65772428 4.02934491 2.65772428 7 3 C6.67 3.66 6.34 4.32 6 5 C-0.93 5 -7.86 5 -15 5 C-15.33 4.34 -15.66 3.68 -16 3 C-14.43883181 2.66048381 -12.87598662 2.32867456 -11.3125 2 C-10.44238281 1.814375 -9.57226562 1.62875 -8.67578125 1.4375 C-6.06561788 1.01072876 -3.63690746 1 -1 1 C-0.67 0.67 -0.34 0.34 0 0 Z " fill="#EDF5FA" transform="translate(44,95)"/>
<path d="M0 0 C2.97 0 5.94 0 9 0 C9 1.98 9 3.96 9 6 C7.35 6 5.7 6 4 6 C4.2784375 7.175625 4.2784375 7.175625 4.5625 8.375 C5 11 5 11 4 13 C2.68 12.67 1.36 12.34 0 12 C0.66 11.67 1.32 11.34 2 11 C1.42547254 7.06924356 1.42547254 7.06924356 -1 4 C-0.67 2.68 -0.34 1.36 0 0 Z " fill="#24201D" transform="translate(79,74)"/>
<path d="M0 0 C2.5 0.25 2.5 0.25 4.5 2.25 C4.75 4.75 4.75 4.75 4.5 7.25 C3.84 7.91 3.18 8.57 2.5 9.25 C-3.06818182 8.68181818 -3.06818182 8.68181818 -4.5 7.25 C-4.6875 4.8125 -4.6875 4.8125 -4.5 2.25 C-2.5 0.25 -2.5 0.25 0 0 Z " fill="#215076" transform="translate(31.5,38.75)"/>
<path d="M0 0 C1.98 0 3.96 0 6 0 C6.33 0.66 6.66 1.32 7 2 C8.546875 1.9071875 8.546875 1.9071875 10.125 1.8125 C14.23468973 2.01135595 16.48882496 2.94467803 20 5 C20 5.66 20 6.32 20 7 C15.38 6.34 10.76 5.68 6 5 C5.67 4.01 5.34 3.02 5 2 C4.34 2 3.68 2 3 2 C3 2.99 3 3.98 3 5 C-1.455 5.495 -1.455 5.495 -6 6 C-6 5.34 -6 4.68 -6 4 C-4.35 3.67 -2.7 3.34 -1 3 C-0.67 2.01 -0.34 1.02 0 0 Z " fill="#D8ECF5" transform="translate(48,0)"/>
<path d="M0 0 C0 0.66 0 1.32 0 2 C0.99 1.34 1.98 0.68 3 0 C7.2475253 -0.30891093 10.3586453 -0.33046701 14 2 C14 2.33 14 2.66 14 3 C5.42 3 -3.16 3 -12 3 C-12.33 2.34 -12.66 1.68 -13 1 C-4.57142857 -1.42857143 -4.57142857 -1.42857143 0 0 Z " fill="#EFFBFE" transform="translate(65,97)"/>
<path d="M0 0 C1.01351725 4.05406901 0.98587468 4.96467213 -0.3125 8.6875 C-0.70888672 9.86892578 -0.70888672 9.86892578 -1.11328125 11.07421875 C-2 13 -2 13 -4 14 C-4.33 14.99 -4.66 15.98 -5 17 C-7.64 17 -10.28 17 -13 17 C-13.33 16.01 -13.66 15.02 -14 14 C-12.35 14 -10.7 14 -9 14 C-8.67 13.34 -8.34 12.68 -8 12 C-7.34 11.67 -6.68 11.34 -6 11 C-6.33 10.01 -6.66 9.02 -7 8 C-5.68 8 -4.36 8 -3 8 C-2.01 5.36 -1.02 2.72 0 0 Z " fill="#EAF4F9" transform="translate(28,77)"/>
<path d="M0 0 C0.66 0 1.32 0 2 0 C2 0.99 2 1.98 2 3 C2.99 3.33 3.98 3.66 5 4 C4.01 4 3.02 4 2 4 C2 4.99 2 5.98 2 7 C1.01 6.67 0.02 6.34 -1 6 C-1.598125 6.66 -2.19625 7.32 -2.8125 8 C-5 10 -5 10 -8 10 C-7.67 7.36 -7.34 4.72 -7 2 C-3.98968256 1.06576355 -3.13349732 0.95550089 0 2 C0 1.34 0 0.68 0 0 Z " fill="#20517F" transform="translate(13,64)"/>
<path d="M0 0 C3.96 0 7.92 0 12 0 C12 3.96 12 7.92 12 12 C8.04 12 4.08 12 0 12 C0 8.04 0 4.08 0 0 Z M1 1 C1 3.97 1 6.94 1 10 C3.97 10 6.94 10 10 10 C10 7.03 10 4.06 10 1 C7.03 1 4.06 1 1 1 Z " fill="#232021" transform="translate(85,38)"/>
<path d="M0 0 C2.97 0.33 5.94 0.66 9 1 C9.33 1.99 9.66 2.98 10 4 C8.68 4.99 7.36 5.98 6 7 C7.32 7.66 8.64 8.32 10 9 C3.4704 9.3696 3.4704 9.3696 1.25 7.625 C0.8375 7.08875 0.425 6.5525 0 6 C-0.99 5.34 -1.98 4.68 -3 4 C-2.34 3.67 -1.68 3.34 -1 3 C-0.67 2.01 -0.34 1.02 0 0 Z " fill="#214F77" transform="translate(71,29)"/>
<path d="M0 0 C4.60428934 1.31551124 8.18320388 3.09196486 12 6 C12 6.66 12 7.32 12 8 C12.61875 8.268125 13.2375 8.53625 13.875 8.8125 C16 10 16 10 18 13 C17.67 13.66 17.34 14.32 17 15 C16.34 15 15.68 15 15 15 C15 14.34 15 13.68 15 13 C13.02 13.33 11.04 13.66 9 14 C9.33 12.02 9.66 10.04 10 8 C8.68 7.34 7.36 6.68 6 6 C6 5.34 6 4.68 6 4 C4.68 4 3.36 4 2 4 C2 3.34 2 2.68 2 2 C1.34 2 0.68 2 0 2 C0 1.34 0 0.68 0 0 Z " fill="#1B4E78" transform="translate(70,8)"/>
<path d="M0 0 C2 2 2 2 2.3125 4.4375 C2 7 2 7 0.6875 8.8125 C-1 10 -1 10 -4 10 C-4 11.32 -4 12.64 -4 14 C-4.99 14.33 -5.98 14.66 -7 15 C-6.03739986 8.5347752 -4.58547143 4.70614174 0 0 Z " fill="#2F5878" transform="translate(25,52)"/>
<path d="M0 0 C4 0 4 0 6 0.5625 C8.02804696 1.16560548 8.02804696 1.16560548 10.125 0.4375 C10.74375 0.293125 11.3625 0.14875 12 0 C12.66 0.66 13.32 1.32 14 2 C10.91111478 4.05925681 10.29064073 4.2390374 6.8125 4.125 C4.9253125 4.063125 4.9253125 4.063125 3 4 C2.34 5.32 1.68 6.64 1 8 C0.34 8 -0.32 8 -1 8 C-1.04241723 5.66705225 -1.04092937 3.33297433 -1 1 C-0.67 0.67 -0.34 0.34 0 0 Z " fill="#B2CFE3" transform="translate(63,20)"/>
<path d="M0 0 C0.99 0 1.98 0 3 0 C2.67 1.32 2.34 2.64 2 4 C2.66 4 3.32 4 4 4 C4.33 2.68 4.66 1.36 5 0 C5.66 0 6.32 0 7 0 C6.814375 0.928125 6.62875 1.85625 6.4375 2.8125 C5.75876119 6.01343771 5.75876119 6.01343771 7 9 C6.01 8.67 5.02 8.34 4 8 C4 7.34 4 6.68 4 6 C3.34 6 2.68 6 2 6 C2 7.65 2 9.3 2 11 C0.68 11 -0.64 11 -2 11 C-2 10.34 -2 9.68 -2 9 C-1.34 9 -0.68 9 0 9 C0 7.68 0 6.36 0 5 C-0.66 4.67 -1.32 4.34 -2 4 C-2 3.34 -2 2.68 -2 2 C-1.34 2 -0.68 2 0 2 C0 1.34 0 0.68 0 0 Z " fill="#333333" transform="translate(81,51)"/>
<path d="M0 0 C0.66 0 1.32 0 2 0 C2 0.66 2 1.32 2 2 C2.639375 1.67 3.27875 1.34 3.9375 1 C8.01236841 -0.33056928 11.75190425 -0.16659199 16 0 C16 1.32 16 2.64 16 4 C13.70839681 4.02692484 11.41670454 4.04636124 9.125 4.0625 C7.84882812 4.07410156 6.57265625 4.08570313 5.2578125 4.09765625 C2 4 2 4 0 3 C0 2.01 0 1.02 0 0 Z " fill="#044783" transform="translate(32,26)"/>
<path d="M0 0 C3.42436208 2.9836935 3.57781494 5.5248384 4 10 C3.38125 10.04125 2.7625 10.0825 2.125 10.125 C1.42375 10.41375 0.7225 10.7025 0 11 C-1.3045656 13.99615946 -1.3045656 13.99615946 -2 17 C-2.99 17 -3.98 17 -5 17 C-5.33 16.01 -5.66 15.02 -6 14 C-5.01 13.67 -4.02 13.34 -3 13 C-1.96452953 9.97717357 -1.96452953 9.97717357 -1.3125 6.4375 C-1.06113281 5.23996094 -0.80976563 4.04242188 -0.55078125 2.80859375 C-0.36902344 1.88175781 -0.18726563 0.95492187 0 0 Z " fill="#F4FCFD" transform="translate(29,76)"/>
<path d="M0 0 C0.33 0.66 0.66 1.32 1 2 C3.52733235 2.65555119 3.52733235 2.65555119 6 3 C6 2.01 6 1.02 6 0 C6.99 0 7.98 0 9 0 C8.67 1.32 8.34 2.64 8 4 C5.36 4 2.72 4 0 4 C1.65 4.33 3.3 4.66 5 5 C5 5.66 5 6.32 5 7 C4.34 7 3.68 7 3 7 C3 7.66 3 8.32 3 9 C1.02 9.33 -0.96 9.66 -3 10 C-2.88637738 8.5199159 -2.75877092 7.04089926 -2.625 5.5625 C-2.55539063 4.73878906 -2.48578125 3.91507813 -2.4140625 3.06640625 C-2.27742188 2.38449219 -2.14078125 1.70257813 -2 1 C-1.34 0.67 -0.68 0.34 0 0 Z " fill="#636363" transform="translate(69,55)"/>
<path d="M0 0 C2.97 0 5.94 0 9 0 C9 0.66 9 1.32 9 2 C8.01 2 7.02 2 6 2 C5.67 3.32 5.34 4.64 5 6 C6.98 5.67 8.96 5.34 11 5 C11 5.66 11 6.32 11 7 C10.34 7 9.68 7 9 7 C8.67 7.66 8.34 8.32 8 9 C8 8.34 8 7.68 8 7 C7.01 7.66 6.02 8.32 5 9 C2.875 8.75 2.875 8.75 1 8 C0.67 7.34 0.34 6.68 0 6 C0.66 6 1.32 6 2 6 C2 5.34 2 4.68 2 4 C2.66 4 3.32 4 4 4 C4 3.34 4 2.68 4 2 C2.68 2 1.36 2 0 2 C0 1.34 0 0.68 0 0 Z " fill="#1A1C1A" transform="translate(45,51)"/>
<path d="M0 0 C1.98 0 3.96 0 6 0 C6 0.66 6 1.32 6 2 C8.97 2.495 8.97 2.495 12 3 C11.67 3.99 11.34 4.98 11 6 C4.375 7.25 4.375 7.25 1 5 C0.3125 2.375 0.3125 2.375 0 0 Z " fill="#1F5585" transform="translate(66,15)"/>
<path d="M0 0 C0.33 0 0.66 0 1 0 C1 1.98 1 3.96 1 6 C1.66 6 2.32 6 3 6 C3.33 7.32 3.66 8.64 4 10 C2.35 9.67 0.7 9.34 -1 9 C-1 9.99 -1 10.98 -1 12 C-1.99 12 -2.98 12 -4 12 C-3.67 10.35 -3.34 8.7 -3 7 C-4.65 7 -6.3 7 -8 7 C-7.67 6.34 -7.34 5.68 -7 5 C-6.195625 4.87625 -5.39125 4.7525 -4.5625 4.625 C-1.84016601 4.27432836 -1.84016601 4.27432836 -0.6875 1.9375 C-0.460625 1.298125 -0.23375 0.65875 0 0 Z " fill="#B3D3E9" transform="translate(12,68)"/>
<path d="M0 0 C2.64 0 5.28 0 8 0 C8 1.65 8 3.3 8 5 C6.35 5.33 4.7 5.66 3 6 C3 6.66 3 7.32 3 8 C1.68 8 0.36 8 -1 8 C-1.33 8.66 -1.66 9.32 -2 10 C-2 9.34 -2 8.68 -2 8 C-2.99 7.67 -3.98 7.34 -5 7 C-4.67 5.68 -4.34 4.36 -4 3 C-3.34 3.33 -2.68 3.66 -2 4 C-2.33 4.66 -2.66 5.32 -3 6 C-1.02 5.67 0.96 5.34 3 5 C3 4.34 3 3.68 3 3 C3.66 3 4.32 3 5 3 C5 2.34 5 1.68 5 1 C3.68 1 2.36 1 1 1 C0.67 1.66 0.34 2.32 0 3 C0 2.01 0 1.02 0 0 Z " fill="#161616" transform="translate(69,59)"/>
<path d="M0 0 C1.32 0 2.64 0 4 0 C4 0.66 4 1.32 4 2 C3.34 2 2.68 2 2 2 C2 3.32 2 4.64 2 6 C2.99 6.33 3.98 6.66 5 7 C5 7.66 5 8.32 5 9 C5.66 9 6.32 9 7 9 C7 9.66 7 10.32 7 11 C2.25 12.125 2.25 12.125 0 11 C0 9.35 0 7.7 0 6 C-0.66 6 -1.32 6 -2 6 C-1.125 1.125 -1.125 1.125 0 0 Z " fill="#D9E0E0" transform="translate(45,53)"/>
<path d="M0 0 C0.96164063 -0.01675781 1.92328125 -0.03351562 2.9140625 -0.05078125 C3.72617187 0.06910156 4.53828125 0.18898437 5.375 0.3125 C6.035 1.3025 6.695 2.2925 7.375 3.3125 C2.58199867 4.70401652 -1.77635782 3.99912689 -6.625 3.3125 C-6.625 3.9725 -6.625 4.6325 -6.625 5.3125 C-7.285 5.3125 -7.945 5.3125 -8.625 5.3125 C-8.955 4.3225 -9.285 3.3325 -9.625 2.3125 C-6.34357559 0.36075231 -3.79716428 0.01535242 0 0 Z " fill="#CBE4F1" transform="translate(19.625,32.6875)"/>
<path d="M0 0 C0.99 0 1.98 0 3 0 C3 0.99 3 1.98 3 3 C3.99 2.67 4.98 2.34 6 2 C6.99 2 7.98 2 9 2 C9.33 2.99 9.66 3.98 10 5 C8.35 5 6.7 5 5 5 C5 5.99 5 6.98 5 8 C2.03 7.67 -0.94 7.34 -4 7 C-4 6.34 -4 5.68 -4 5 C-2.35 5 -0.7 5 1 5 C0.67 3.35 0.34 1.7 0 0 Z " fill="#292727" transform="translate(69,80)"/>
<path d="M0 0 C0.66 0 1.32 0 2 0 C2 2.31 2 4.62 2 7 C1.01 7 0.02 7 -1 7 C-1 6.34 -1 5.68 -1 5 C-2.32 5 -3.64 5 -5 5 C-5 7.31 -5 9.62 -5 12 C-5.66 12 -6.32 12 -7 12 C-7 8.7 -7 5.4 -7 2 C-4.69 2 -2.38 2 0 2 C0 1.34 0 0.68 0 0 Z " fill="#171818" transform="translate(52,62)"/>
<path d="M0 0 C2 0 2 0 3.625 1.375 C5 3 5 3 5 5 C4.34 5 3.68 5 3 5 C3 6.32 3 7.64 3 9 C3.66 9.33 4.32 9.66 5 10 C4.34 10 3.68 10 3 10 C3 10.66 3 11.32 3 12 C3.66 12 4.32 12 5 12 C5 12.66 5 13.32 5 14 C4.01 14 3.02 14 2 14 C2 13.34 2 12.68 2 12 C1.34 12 0.68 12 0 12 C0 8.04 0 4.08 0 0 Z " fill="#F1F1F1" transform="translate(83,57)"/>
<path d="M0 0 C6.93 0.495 6.93 0.495 14 1 C14 1.99 14 2.98 14 4 C11.36 4.66 8.72 5.32 6 6 C6 5.34 6 4.68 6 4 C4.02 4 2.04 4 0 4 C0 2.68 0 1.36 0 0 Z " fill="#96A9B7" transform="translate(59,93)"/>
<path d="M0 0 C0.66 1.32 1.32 2.64 2 4 C1.01 4 0.02 4 -1 4 C-1 3.01 -1 2.02 -1 1 C-1.66 1 -2.32 1 -3 1 C-3 1.66 -3 2.32 -3 3 C-5.31 3 -7.62 3 -10 3 C-10.33 5.31 -10.66 7.62 -11 10 C-12.5 8.6875 -12.5 8.6875 -14 7 C-14 6.01 -14 5.02 -14 4 C-9.65802646 -0.03183257 -5.73642992 -0.13037341 0 0 Z " fill="#E8F8FD" transform="translate(16,63)"/>
<path d="M0 0 C1.65 0 3.3 0 5 0 C4.835 0.61875 4.67 1.2375 4.5 1.875 C3.92365356 3.96063386 3.92365356 3.96063386 4 6 C5.65 6 7.3 6 9 6 C8.67 6.66 8.34 7.32 8 8 C5.36 8 2.72 8 0 8 C-0.79953138 4.71303767 -1.09658936 3.28976808 0 0 Z " fill="#284B6A" transform="translate(4,75)"/>
<path d="M0 0 C0 0.66 0 1.32 0 2 C-0.66 2 -1.32 2 -2 2 C-2.33 3.98 -2.66 5.96 -3 8 C-2.01 8 -1.02 8 0 8 C0 8.99 0 9.98 0 11 C-1.32 11.33 -2.64 11.66 -4 12 C-4 11.34 -4 10.68 -4 10 C-4.66 9.67 -5.32 9.34 -6 9 C-5.34 9 -4.68 9 -4 9 C-4 7.68 -4 6.36 -4 5 C-5.32 5 -6.64 5 -8 5 C-7.67 3.68 -7.34 2.36 -7 1 C-2.25 0 -2.25 0 0 0 Z " fill="#7F7F7F" transform="translate(58,57)"/>
<path d="M0 0 C0.33 0.66 0.66 1.32 1 2 C1.99 2 2.98 2 4 2 C4 1.34 4 0.68 4 0 C4.66 0 5.32 0 6 0 C7.4606285 2.64738916 8 3.89448334 8 7 C8.66 7 9.32 7 10 7 C10 7.66 10 8.32 10 9 C9.01 9 8.02 9 7 9 C6.67 7.35 6.34 5.7 6 4 C5.34 4 4.68 4 4 4 C4 4.66 4 5.32 4 6 C1.69 5.34 -0.62 4.68 -3 4 C-3 3.34 -3 2.68 -3 2 C-2.01 2 -1.02 2 0 2 C0 1.34 0 0.68 0 0 Z " fill="#565453" transform="translate(68,44)"/>
<path d="M0 0 C0 0.66 0 1.32 0 2 C-0.59167969 1.9278125 -1.18335937 1.855625 -1.79296875 1.78125 C-7.87943448 1.02344639 -7.87943448 1.02344639 -14 1 C-14.33 1.33 -14.66 1.66 -15 2 C-16.66617115 2.04063832 -18.33388095 2.042721 -20 2 C-14.58791503 -3.92752163 -6.87449635 -2.74979854 0 0 Z " fill="#D4E9F7" transform="translate(96,35)"/>
<path d="M0 0 C-1.39375072 2.78750144 -3.16244861 2.89266287 -6 4 C-6.66 4.66 -7.32 5.32 -8 6 C-8.99 5.67 -9.98 5.34 -11 5 C-12.33106622 4.65772583 -13.66400079 4.32248257 -15 4 C-10.85384107 0.35138015 -5.42017988 -2.16807195 0 0 Z " fill="#1C4B70" transform="translate(47,6)"/>
<path d="M0 0 C5.28 0 10.56 0 16 0 C16 0.99 16 1.98 16 3 C10.72 3 5.44 3 0 3 C0 2.01 0 1.02 0 0 Z " fill="#6A8196" transform="translate(32,94)"/>
<path d="M0 0 C0.66 0 1.32 0 2 0 C2.33 0.66 2.66 1.32 3 2 C5.80980673 2.69227032 5.80980673 2.69227032 9.0625 3.125 C10.71958984 3.37636719 10.71958984 3.37636719 12.41015625 3.6328125 C13.26480469 3.75398437 14.11945313 3.87515625 15 4 C11.1925885 6.15808023 9.28457123 5.80335711 5 5 C4.29875 5.20625 3.5975 5.4125 2.875 5.625 C1 6 1 6 -1.25 4.5625 C-1.8275 4.046875 -2.405 3.53125 -3 3 C-2.01 3 -1.02 3 0 3 C0 2.01 0 1.02 0 0 Z " fill="#235278" transform="translate(51,2)"/>
<path d="M0 0 C0.99 0.66 1.98 1.32 3 2 C3.29296875 4.3828125 3.29296875 4.3828125 3.1875 7.125 C3.16042969 8.03507812 3.13335937 8.94515625 3.10546875 9.8828125 C3.07066406 10.58148438 3.03585938 11.28015625 3 12 C2.01 12.495 2.01 12.495 1 13 C0.34 12.67 -0.32 12.34 -1 12 C-0.67 9.03 -0.34 6.06 0 3 C-0.99 2.67 -1.98 2.34 -3 2 C-2.01 1.34 -1.02 0.68 0 0 Z " fill="#F4F4F4" transform="translate(97,74)"/>
<path d="M0 0 C3.20870233 0.16757757 3.20870233 0.16757757 6 0 C6 0.66 6 1.32 6 2 C2.37 2.33 -1.26 2.66 -5 3 C-5.33 1.68 -5.66 0.36 -6 -1 C-6.61488281 -0.855625 -7.22976562 -0.71125 -7.86328125 -0.5625 C-8.67152344 -0.376875 -9.47976562 -0.19125 -10.3125 0 C-11.51326172 0.2784375 -11.51326172 0.2784375 -12.73828125 0.5625 C-15 1 -15 1 -18 1 C-12.98354838 -4.01645162 -5.88928804 -2.47970023 0 0 Z " fill="#CBE1ED" transform="translate(50,35)"/>
<path d="M0 0 C0.80824219 0.19464844 1.61648437 0.38929687 2.44921875 0.58984375 C3.06410156 0.74582031 3.67898437 0.90179687 4.3125 1.0625 C4.3125 1.7225 4.3125 2.3825 4.3125 3.0625 C7.2825 3.5575 7.2825 3.5575 10.3125 4.0625 C8.3125 6.0625 8.3125 6.0625 6.4375 6.07421875 C5.73625 5.96722656 5.035 5.86023437 4.3125 5.75 C3.61125 5.65074219 2.91 5.55148438 2.1875 5.44921875 C0.3125 5.0625 0.3125 5.0625 -1.6875 4.0625 C-1.6875 3.4025 -1.6875 2.7425 -1.6875 2.0625 C-3.6675 2.0625 -5.6475 2.0625 -7.6875 2.0625 C-7.6875 1.4025 -7.6875 0.7425 -7.6875 0.0625 C-4.39053895 -1.03648702 -3.28255097 -0.80874444 0 0 Z " fill="#0A3F70" transform="translate(56.6875,26.9375)"/>
<path d="M0 0 C1.98 0 3.96 0 6 0 C5.67 1.65 5.34 3.3 5 5 C1.7 5 -1.6 5 -5 5 C-5 4.01 -5 3.02 -5 2 C-3.68 2 -2.36 2 -1 2 C-0.67 1.34 -0.34 0.68 0 0 Z " fill="#2A2A2A" transform="translate(54,69)"/>
<path d="M0 0 C0.99 0 1.98 0 3 0 C3 1.65 3 3.3 3 5 C1.35 5 -0.3 5 -2 5 C-2 6.32 -2 7.64 -2 9 C-2.99 9.33 -3.98 9.66 -5 10 C-5 7.36 -5 4.72 -5 2 C-2.525 2.495 -2.525 2.495 0 3 C0 2.01 0 1.02 0 0 Z " fill="#18191B" transform="translate(65,78)"/>
<path d="M0 0 C0.66 0 1.32 0 2 0 C1.814375 0.61875 1.62875 1.2375 1.4375 1.875 C0.76313824 4.04160178 0.76313824 4.04160178 2 6 C1.01 6.495 1.01 6.495 0 7 C0 7.66 0 8.32 0 9 C-0.99 9 -1.98 9 -3 9 C-3 9.66 -3 10.32 -3 11 C-3.66 11 -4.32 11 -5 11 C-4.7215625 10.1028125 -4.7215625 10.1028125 -4.4375 9.1875 C-3.77906313 6.83591238 -3.77906313 6.83591238 -5 4 C-4.01 4 -3.02 4 -2 4 C-2 3.34 -2 2.68 -2 2 C-1.34 2 -0.68 2 0 2 C0 1.34 0 0.68 0 0 Z " fill="#B9B8B8" transform="translate(95,72)"/>
<path d="M0 0 C5.53846154 -0.36923077 5.53846154 -0.36923077 7.875 1.5 C8.24625 1.995 8.6175 2.49 9 3 C6.69 3 4.38 3 2 3 C1.67 3.99 1.34 4.98 1 6 C0.01 6 -0.98 6 -2 6 C-2 5.01 -2 4.02 -2 3 C-2.99 2.67 -3.98 2.34 -5 2 C-3.35 2 -1.7 2 0 2 C0 1.34 0 0.68 0 0 Z " fill="#DEEAF1" transform="translate(58,91)"/>
<path d="M0 0 C0.66 0 1.32 0 2 0 C3.85776765 3.13498292 4.20140476 5.37471432 4 9 C3.34 9 2.68 9 2 9 C1.67 8.34 1.34 7.68 1 7 C0.01 7 -0.98 7 -2 7 C-2.33 5.68 -2.66 4.36 -3 3 C-2.01 2.67 -1.02 2.34 0 2 C0 1.34 0 0.68 0 0 Z " fill="#A0A1A3" transform="translate(77,76)"/>
<path d="M0 0 C2.64 0.33 5.28 0.66 8 1 C8.33 2.65 8.66 4.3 9 6 C8.34 6 7.68 6 7 6 C6.67 6.66 6.34 7.32 6 8 C5.34 8 4.68 8 4 8 C3.34 7.34 2.68 6.68 2 6 C2 4.68 2 3.36 2 2 C1.34 2 0.68 2 0 2 C0 1.34 0 0.68 0 0 Z " fill="#0E5390" transform="translate(27,53)"/>
<path d="M0 0 C0.33 0.99 0.66 1.98 1 3 C1.66 3 2.32 3 3 3 C3 2.34 3 1.68 3 1 C3.66 1 4.32 1 5 1 C6.10844919 4.32534757 5.84454356 6.62182575 5 10 C4.34 10 3.68 10 3 10 C3 8.02 3 6.04 3 4 C1.35 4.66 -0.3 5.32 -2 6 C-2.66 4.35 -3.32 2.7 -4 1 C-2.68 1.33 -1.36 1.66 0 2 C0 1.34 0 0.68 0 0 Z " fill="#C6C6C6" transform="translate(69,47)"/>
<path d="M0 0 C0.33 0.99 0.66 1.98 1 3 C-2.375 3.625 -2.375 3.625 -6 4 C-6.66 3.34 -7.32 2.68 -8 2 C-10.65537372 1.43479997 -13.29144713 1.26211802 -16 1 C-16 0.67 -16 0.34 -16 0 C-10.31302429 -0.91397824 -5.68697571 -0.91397824 0 0 Z " fill="#1C4D74" transform="translate(33,32)"/>
<path d="M0 0 C0.66 0 1.32 0 2 0 C3.32 4.29 4.64 8.58 6 13 C5.01 13 4.02 13 3 13 C2.566875 11.88625 2.566875 11.88625 2.125 10.75 C1.09690198 8.06203107 1.09690198 8.06203107 -0.1875 5.9375 C-1.18971474 3.5476033 -0.85580298 2.39624834 0 0 Z " fill="#D4F1F9" transform="translate(30,72)"/>
<path d="M0 0 C1 3 1 3 0 6 C-0.66 6 -1.32 6 -2 6 C-2 7.65 -2 9.3 -2 11 C-2.66 10.67 -3.32 10.34 -4 10 C-4 9.34 -4 8.68 -4 8 C-4.66 8 -5.32 8 -6 8 C-6 7.01 -6 6.02 -6 5 C-5.34 5 -4.68 5 -4 5 C-4 4.01 -4 3.02 -4 2 C-2.68 1.34 -1.36 0.68 0 0 Z " fill="#143F65" transform="translate(19,66)"/>
<path d="M0 0 C0.33 0.66 0.66 1.32 1 2 C2.32 1.67 3.64 1.34 5 1 C5 2.65 5 4.3 5 6 C2.36 6 -0.28 6 -3 6 C-3 4.68 -3 3.36 -3 2 C-2.01 1.34 -1.02 0.68 0 0 Z " fill="#93A7B6" transform="translate(77,91)"/>
<path d="M0 0 C1.98 0 3.96 0 6 0 C6 0.66 6 1.32 6 2 C5.34 2 4.68 2 4 2 C4.33 3.65 4.66 5.3 5 7 C4.01 7.495 4.01 7.495 3 8 C2.01 7.67 1.02 7.34 0 7 C0 4.69 0 2.38 0 0 Z " fill="#B8C4CB" transform="translate(7,91)"/>
<path d="M0 0 C1.98 0 3.96 0 6 0 C6 0.66 6 1.32 6 2 C5.34 2 4.68 2 4 2 C4 3.98 4 5.96 4 8 C3.01 8.495 3.01 8.495 2 9 C1.34 8.67 0.68 8.34 0 8 C0 6.68 0 5.36 0 4 C0.66 4 1.32 4 2 4 C2 3.34 2 2.68 2 2 C1.34 2 0.68 2 0 2 C0 1.34 0 0.68 0 0 Z " fill="#4D4E50" transform="translate(59,42)"/>
<path d="M0 0 C2.31 0 4.62 0 7 0 C7 1.32 7 2.64 7 4 C6.01 4.66 5.02 5.32 4 6 C3.01 5.67 2.02 5.34 1 5 C0.67 3.35 0.34 1.7 0 0 Z " fill="#96A5B0" transform="translate(49,94)"/>
<path d="M0 0 C0.33 0.66 0.66 1.32 1 2 C1.66 2 2.32 2 3 2 C2.34 3.98 1.68 5.96 1 8 C-0.32 7.67 -1.64 7.34 -3 7 C-2.625 4.0625 -2.625 4.0625 -2 1 C-1.34 0.67 -0.68 0.34 0 0 Z " fill="#20496A" transform="translate(24,78)"/>
<path d="M0 0 C1.32 0.33 2.64 0.66 4 1 C3.375 3.875 3.375 3.875 2 7 C-1.125 8.375 -1.125 8.375 -4 9 C-2.94124926 5.59687262 -1.99097846 2.98646769 0 0 Z " fill="#305B7E" transform="translate(12,27)"/>
<path d="M0 0 C1.03103689 4.12414757 0.94701684 4.9841142 -0.4375 8.75 C-0.72496094 9.54921875 -1.01242188 10.3484375 -1.30859375 11.171875 C-1.53675781 11.77515625 -1.76492187 12.3784375 -2 13 C-3.9375 12.1875 -3.9375 12.1875 -6 11 C-6.33 10.01 -6.66 9.02 -7 8 C-5.68 8 -4.36 8 -3 8 C-2.01 5.36 -1.02 2.72 0 0 Z " fill="#C6DDE9" transform="translate(28,77)"/>
<path d="M0 0 C1.65 0 3.3 0 5 0 C5 1.98 5 3.96 5 6 C3.35 6 1.7 6 0 6 C0 4.02 0 2.04 0 0 Z " fill="#BFBFBF" transform="translate(83,74)"/>
<path d="M0 0 C0.99 0 1.98 0 3 0 C3 2.31 3 4.62 3 7 C0.69 7 -1.62 7 -4 7 C-4 5.35 -4 3.7 -4 2 C-3.67 2.99 -3.34 3.98 -3 5 C-2.01 4.67 -1.02 4.34 0 4 C0 2.68 0 1.36 0 0 Z " fill="#A0CDEC" transform="translate(57,19)"/>
<path d="M0 0 C0.99 0.33 1.98 0.66 3 1 C3 1.66 3 2.32 3 3 C3.66 3 4.32 3 5 3 C5.33 3.99 5.66 4.98 6 6 C4 7 4 7 1.4375 6.3125 C-1 5 -1 5 -1.8125 2.875 C-1.874375 2.25625 -1.93625 1.6375 -2 1 C-1.34 0.67 -0.68 0.34 0 0 Z " fill="#144A74" transform="translate(67,7)"/>
<path d="M0 0 C2.97 0.495 2.97 0.495 6 1 C6 2.32 6 3.64 6 5 C3.03 4.505 3.03 4.505 0 4 C0 2.68 0 1.36 0 0 Z M0 5 C0.99 5.33 1.98 5.66 3 6 C2.01 6.33 1.02 6.66 0 7 C0 6.34 0 5.68 0 5 Z " fill="#9EB1BD" transform="translate(91,93)"/>
<path d="M0 0 C-2.375 1.0625 -2.375 1.0625 -5 2 C-5.66 1.67 -6.32 1.34 -7 1 C-7 1.66 -7 2.32 -7 3 C-7.66 3 -8.32 3 -9 3 C-9 3.66 -9 4.32 -9 5 C-9.99 5.33 -10.98 5.66 -12 6 C-12.66 5.67 -13.32 5.34 -14 5 C-14 4.34 -14 3.68 -14 3 C-12.68 3 -11.36 3 -10 3 C-10 2.01 -10 1.02 -10 0 C-2.25 -1.125 -2.25 -1.125 0 0 Z " fill="#0C0C0C" transform="translate(86,73)"/>
<path d="M0 0 C1.65 0 3.3 0 5 0 C5 0.66 5 1.32 5 2 C4.34 2 3.68 2 3 2 C3 2.99 3 3.98 3 5 C2.34 5 1.68 5 1 5 C1 5.66 1 6.32 1 7 C-0.65 7 -2.3 7 -4 7 C-4.33 6.01 -4.66 5.02 -5 4 C-3.35 4 -1.7 4 0 4 C0 2.68 0 1.36 0 0 Z " fill="#131313" transform="translate(69,69)"/>
<path d="M0 0 C1.32 0 2.64 0 4 0 C4 0.66 4 1.32 4 2 C4.99 2 5.98 2 7 2 C6.67 2.99 6.34 3.98 6 5 C4.68 4.67 3.36 4.34 2 4 C2 4.99 2 5.98 2 7 C1.34 7 0.68 7 0 7 C0 4.69 0 2.38 0 0 Z " fill="#DCDCDC" transform="translate(47,67)"/>
<path d="M0 0 C0.33 0.99 0.66 1.98 1 3 C2.65 3 4.3 3 6 3 C5.3125 4.9375 5.3125 4.9375 4 7 C1.375 7.75 1.375 7.75 -1 8 C-0.67 5.36 -0.34 2.72 0 0 Z " fill="#315980" transform="translate(6,66)"/>
<path d="M0 0 C1.65 0 3.3 0 5 0 C5 0.33 5 0.66 5 1 C6.11375 0.95875 7.2275 0.9175 8.375 0.875 C12 1 12 1 14 3 C13.625 5.125 13.625 5.125 13 7 C12.34 6.01 11.68 5.02 11 4 C8.56306689 3.63583953 8.56306689 3.63583953 5.875 3.8125 C4.50988281 3.85310547 4.50988281 3.85310547 3.1171875 3.89453125 C2.41851563 3.92933594 1.71984375 3.96414062 1 4 C0.67 2.68 0.34 1.36 0 0 Z " fill="#E0EAEF" transform="translate(27,36)"/>
<path d="M0 0 C4.60428934 1.31551124 8.18320388 3.09196486 12 6 C12 6.66 12 7.32 12 8 C12.66 8.33 13.32 8.66 14 9 C11.07120629 8.37240135 8.63904371 7.41377341 6 6 C6 5.34 6 4.68 6 4 C4.68 4 3.36 4 2 4 C2 3.34 2 2.68 2 2 C1.34 2 0.68 2 0 2 C0 1.34 0 0.68 0 0 Z " fill="#345B79" transform="translate(70,8)"/>
<path d="M0 0 C1.65 0 3.3 0 5 0 C5 1.98 5 3.96 5 6 C3.35 6.33 1.7 6.66 0 7 C0 4.69 0 2.38 0 0 Z " fill="#A7A39F" transform="translate(83,81)"/>
<path d="M0 0 C2.09350689 3.4019487 2.17942163 6.05272412 2 10 C0.68 10 -0.64 10 -2 10 C-2.33 8.68 -2.66 7.36 -3 6 C-2.34 6 -1.68 6 -1 6 C-0.67 4.02 -0.34 2.04 0 0 Z " fill="#375D7C" transform="translate(38,76)"/>
<path d="M0 0 C0.99 0 1.98 0 3 0 C3 1.65 3 3.3 3 5 C2.34 5 1.68 5 1 5 C0.67 5.99 0.34 6.98 0 8 C0 7.34 0 6.68 0 6 C-0.66 6 -1.32 6 -2 6 C-2.33 7.32 -2.66 8.64 -3 10 C-3.33 8.35 -3.66 6.7 -4 5 C-3.34 5 -2.68 5 -2 5 C-2 4.34 -2 3.68 -2 3 C-1.01 3 -0.02 3 1 3 C0.67 2.01 0.34 1.02 0 0 Z " fill="#2E2B29" transform="translate(94,78)"/>
<path d="M0 0 C0.99 0 1.98 0 3 0 C3 1.98 3 3.96 3 6 C2.34 6 1.68 6 1 6 C1 6.66 1 7.32 1 8 C0.34 8 -0.32 8 -1 8 C-2.2077558 4.37673261 -1.54311128 3.35853631 0 0 Z " fill="#064981" transform="translate(30,64)"/>
<path d="M0 0 C0.33 0.66 0.66 1.32 1 2 C1.99 2 2.98 2 4 2 C4 2.66 4 3.32 4 4 C5.32 3.01 6.64 2.02 8 1 C8.33 1.66 8.66 2.32 9 3 C8.67 3.66 8.34 4.32 8 5 C7.34 5 6.68 5 6 5 C5.67 6.32 5.34 7.64 5 9 C5 8.34 5 7.68 5 7 C3.35 7 1.7 7 0 7 C0.99 6.67 1.98 6.34 3 6 C3 5.01 3 4.02 3 3 C2.01 3 1.02 3 0 3 C0 2.01 0 1.02 0 0 Z " fill="#F8F8F8" transform="translate(55,62)"/>
<path d="M0 0 C1.65 0 3.3 0 5 0 C5 0.66 5 1.32 5 2 C5.66 2.33 6.32 2.66 7 3 C6.01 4.485 6.01 4.485 5 6 C4.34 6 3.68 6 3 6 C3 5.34 3 4.68 3 4 C2.01 4 1.02 4 0 4 C0 2.68 0 1.36 0 0 Z " fill="#BCBCBC" transform="translate(56,60)"/>
<path d="M0 0 C1.32 0 2.64 0 4 0 C4.6875 1.8125 4.6875 1.8125 5 4 C3.6875 5.75 3.6875 5.75 2 7 C1.34 7 0.68 7 0 7 C0 6.01 0 5.02 0 4 C-0.66 4 -1.32 4 -2 4 C-2 3.34 -2 2.68 -2 2 C-1.34 2 -0.68 2 0 2 C0 1.34 0 0.68 0 0 Z " fill="#3C3C3C" transform="translate(90,51)"/>
<path d="M0 0 C0.66 0 1.32 0 2 0 C2.99 1.98 3.98 3.96 5 6 C4.38125 6.268125 3.7625 6.53625 3.125 6.8125 C0.7004767 7.95556848 0.7004767 7.95556848 -1 11 C-1 10.34 -1 9.68 -1 9 C-2.65 9 -4.3 9 -6 9 C-5.67 8.34 -5.34 7.68 -5 7 C-2.4375 6.375 -2.4375 6.375 0 6 C0 4.02 0 2.04 0 0 Z " fill="#CEE6F3" transform="translate(35,40)"/>
<path d="M0 0 C2.97 0.33 5.94 0.66 9 1 C8.34 2.32 7.68 3.64 7 5 C3.125 4.125 3.125 4.125 2 3 C1.01 3.495 1.01 3.495 0 4 C0 2.68 0 1.36 0 0 Z " fill="#677C8C" transform="translate(11,93)"/>
<path d="M0 0 C2.475 0.99 2.475 0.99 5 2 C5 3.65 5 5.3 5 7 C3.35 6.67 1.7 6.34 0 6 C0 4 0 2 0 0 Z " fill="#2F4F77" transform="translate(40,57)"/>
<path d="M0 0 C0.33 0.66 0.66 1.32 1 2 C2.32 2 3.64 2 5 2 C4.67 2.99 4.34 3.98 4 5 C3.67 4.34 3.34 3.68 3 3 C2.01 3.495 2.01 3.495 1 4 C1 5.65 1 7.3 1 9 C-0.32 9.33 -1.64 9.66 -3 10 C-2.67 7.69 -2.34 5.38 -2 3 C-1.34 3 -0.68 3 0 3 C0 2.01 0 1.02 0 0 Z " fill="#1D4166" transform="translate(62,17)"/>
<path d="M0 0 C0.66 0 1.32 0 2 0 C2 0.66 2 1.32 2 2 C2.66 2 3.32 2 4 2 C4 2.66 4 3.32 4 4 C5.65 4.33 7.3 4.66 9 5 C9 5.33 9 5.66 9 6 C6.69 6 4.38 6 2 6 C1.67 6.99 1.34 7.98 1 9 C0.67 6.03 0.34 3.06 0 0 Z " fill="#6C6C6C" transform="translate(74,67)"/>
<path d="M0 0 C1.65 0 3.3 0 5 0 C5 1.65 5 3.3 5 5 C3.35 5 1.7 5 0 5 C0 3.35 0 1.7 0 0 Z " fill="#07080A" transform="translate(49,80)"/>
<path d="M0 0 C2.31 0.66 4.62 1.32 7 2 C7 2.66 7 3.32 7 4 C6.34 4 5.68 4 5 4 C5 4.66 5 5.32 5 6 C4.34 6 3.68 6 3 6 C3 5.34 3 4.68 3 4 C1.35 4 -0.3 4 -2 4 C-1.34 3.67 -0.68 3.34 0 3 C0 2.01 0 1.02 0 0 Z " fill="#212121" transform="translate(58,56)"/>
<path d="M0 0 C1.65 0 3.3 0 5 0 C5 1.65 5 3.3 5 5 C3.35 5 1.7 5 0 5 C0 3.35 0 1.7 0 0 Z " fill="#07090B" transform="translate(49,41)"/>
<path d="M0 0 C1.65 0 3.3 0 5 0 C5 1.65 5 3.3 5 5 C3.35 5 1.7 5 0 5 C0 3.35 0 1.7 0 0 Z " fill="#0A0C15" transform="translate(88,41)"/>
<path d="M0 0 C2.31 0.66 4.62 1.32 7 2 C6.67 3.65 6.34 5.3 6 7 C5.01 7 4.02 7 3 7 C3.33 6.34 3.66 5.68 4 5 C3.34 4.67 2.68 4.34 2 4 C2.66 4 3.32 4 4 4 C4 3.34 4 2.68 4 2 C2.68 2.33 1.36 2.66 0 3 C0 2.01 0 1.02 0 0 Z " fill="#074172" transform="translate(74,13)"/>
<path d="M0 0 C0.66 0.33 1.32 0.66 2 1 C1.67 1.66 1.34 2.32 1 3 C0.34 3 -0.32 3 -1 3 C-1 3.66 -1 4.32 -1 5 C-0.01 5.33 0.98 5.66 2 6 C0.68 6.99 -0.64 7.98 -2 9 C-2.33 8.01 -2.66 7.02 -3 6 C-2.67 5.34 -2.34 4.68 -2 4 C-2.99 4 -3.98 4 -5 4 C-5 3.34 -5 2.68 -5 2 C-3.35 2 -1.7 2 0 2 C0 1.34 0 0.68 0 0 Z " fill="#B2B4B5" transform="translate(70,74)"/>
<path d="M0 0 C0.66 0.33 1.32 0.66 2 1 C2 1.66 2 2.32 2 3 C-2.68493876 5.48887372 -5.9444214 4.85687773 -11 4 C-11 3.67 -11 3.34 -11 3 C-10.28972656 2.86722656 -9.57945313 2.73445313 -8.84765625 2.59765625 C-7.92855469 2.42105469 -7.00945312 2.24445312 -6.0625 2.0625 C-4.68771484 1.80146484 -4.68771484 1.80146484 -3.28515625 1.53515625 C-1.04710156 1.22285012 -1.04710156 1.22285012 0 0 Z " fill="#275987" transform="translate(77,21)"/>
<path d="M0 0 C-2.12780579 2.34058637 -4.11562221 3.70700306 -7 5 C-7.33 3.68 -7.66 2.36 -8 1 C-4.93251126 -0.86240388 -3.40254489 -1.2151946 0 0 Z " fill="#DCEDF5" transform="translate(31,9)"/>
<path d="M0 0 C1.98 0 3.96 0 6 0 C6 1.32 6 2.64 6 4 C5.34 4 4.68 4 4 4 C4 4.66 4 5.32 4 6 C3.34 6 2.68 6 2 6 C2 4.68 2 3.36 2 2 C1.34 2 0.68 2 0 2 C0 1.34 0 0.68 0 0 Z " fill="#747474" transform="translate(86,67)"/>
<path d="M0 0 C1.98 0 3.96 0 6 0 C6 0.99 6 1.98 6 3 C5.01 3.495 5.01 3.495 4 4 C4 4.66 4 5.32 4 6 C3.34 6 2.68 6 2 6 C1.34 4.02 0.68 2.04 0 0 Z " fill="#C3BAB2" transform="translate(66,37)"/>
<path d="M0 0 C0.66 0 1.32 0 2 0 C2.33 2.64 2.66 5.28 3 8 C1.68 7.67 0.36 7.34 -1 7 C-0.67 4.69 -0.34 2.38 0 0 Z " fill="#E6EDF0" transform="translate(4,89)"/>
<path d="M0 0 C-0.99 0.495 -0.99 0.495 -2 1 C-2.65213292 3.02463255 -2.65213292 3.02463255 -3 5 C-3.33 4.34 -3.66 3.68 -4 3 C-4.99 2.67 -5.98 2.34 -7 2 C-7.33 1.34 -7.66 0.68 -8 0 C-5.13822943 -1.43088528 -3.06624227 -0.59991697 0 0 Z " fill="#F8FDFD" transform="translate(86,89)"/>
<path d="M0 0 C0.33 0.99 0.66 1.98 1 3 C1.66 3.33 2.32 3.66 3 4 C0.69 3.67 -1.62 3.34 -4 3 C-4 3.66 -4 4.32 -4 5 C-4.66 5 -5.32 5 -6 5 C-6 3.68 -6 2.36 -6 1 C-4.02 0.67 -2.04 0.34 0 0 Z " fill="#E2E1DF" transform="translate(69,82)"/>
<path d="M0 0 C1.98 0.99 1.98 0.99 4 2 C3.34 2 2.68 2 2 2 C2 4.64 2 7.28 2 10 C1.34 10 0.68 10 0 10 C0 6.7 0 3.4 0 0 Z " fill="#2A2A2A" transform="translate(45,64)"/>
<path d="M0 0 C2.125 0.9375 2.125 0.9375 4 2 C2.68 2.33 1.36 2.66 0 3 C0 3.66 0 4.32 0 5 C-1.65 5 -3.3 5 -5 5 C-5 4.34 -5 3.68 -5 3 C-4.01 3 -3.02 3 -2 3 C-2 2.34 -2 1.68 -2 1 C-1.34 0.67 -0.68 0.34 0 0 Z " fill="#C3C3C3" transform="translate(74,64)"/>
<path d="M0 0 C0 2.64 0 5.28 0 8 C-0.33 7.01 -0.66 6.02 -1 5 C-2.32 5.33 -3.64 5.66 -5 6 C-5.33 5.01 -5.66 4.02 -6 3 C-1.125 0 -1.125 0 0 0 Z " fill="#C8EEF8" transform="translate(27,59)"/>
<path d="M0 0 C0.66 1.32 1.32 2.64 2 4 C1.01 4 0.02 4 -1 4 C-1 3.01 -1 2.02 -1 1 C-1.66 1 -2.32 1 -3 1 C-3 1.66 -3 2.32 -3 3 C-4.98 3 -6.96 3 -9 3 C-9 2.34 -9 1.68 -9 1 C-5.8035914 -0.06546953 -3.34252724 -0.07427838 0 0 Z " fill="#D6EDF8" transform="translate(16,63)"/>
<path d="M0 0 C0.66 0 1.32 0 2 0 C2 0.66 2 1.32 2 2 C4.475 2.99 4.475 2.99 7 4 C3.25 5.125 3.25 5.125 1 4 C1 5.65 1 7.3 1 9 C0.67 9 0.34 9 0 9 C0 6.03 0 3.06 0 0 Z " fill="#B3DEEE" transform="translate(35,59)"/>
<path d="M0 0 C0.33 1.32 0.66 2.64 1 4 C-1.64 4 -4.28 4 -7 4 C-7 3.34 -7 2.68 -7 2 C-4 0 -4 0 0 0 Z " fill="#0D4372" transform="translate(33,50)"/>
<path d="M0 0 C2.64 0 5.28 0 8 0 C8.33 1.32 8.66 2.64 9 4 C8.34 4 7.68 4 7 4 C7 3.34 7 2.68 7 2 C4.69 2.33 2.38 2.66 0 3 C0 2.01 0 1.02 0 0 Z " fill="#D7D7D8" transform="translate(74,39)"/>
<path d="M0 0 C0.33 1.32 0.66 2.64 1 4 C-1.35438733 5.42944945 -2.48032433 6.08661261 -5.25 5.625 C-5.8275 5.41875 -6.405 5.2125 -7 5 C-6.67 4.01 -6.34 3.02 -6 2 C-5.01 2.33 -4.02 2.66 -3 3 C-2.67 2.34 -2.34 1.68 -2 1 C-2 1.66 -2 2.32 -2 3 C-1.34 3 -0.68 3 0 3 C0 2.01 0 1.02 0 0 Z " fill="#D7E9F2" transform="translate(82,94)"/>
<path d="M0 0 C0 0.99 0 1.98 0 3 C-1.32 3 -2.64 3 -4 3 C-4.33 5.31 -4.66 7.62 -5 10 C-5.33 10 -5.66 10 -6 10 C-6 7.03 -6 4.06 -6 1 C-4 0 -4 0 0 0 Z " fill="#A0A2A3" transform="translate(65,78)"/>
<path d="M0 0 C0.66 0 1.32 0 2 0 C1.814375 0.928125 1.62875 1.85625 1.4375 2.8125 C0.75876119 6.01343771 0.75876119 6.01343771 2 9 C-1 8 -1 8 -2.1875 5.9375 C-2.455625 5.298125 -2.72375 4.65875 -3 4 C-2.34 4 -1.68 4 -1 4 C-0.67 2.68 -0.34 1.36 0 0 Z " fill="#444444" transform="translate(86,51)"/>
<path d="M0 0 C0.33 0.66 0.66 1.32 1 2 C1.99 2 2.98 2 4 2 C4 3.32 4 4.64 4 6 C1.69 5.34 -0.62 4.68 -3 4 C-3 3.34 -3 2.68 -3 2 C-2.01 2 -1.02 2 0 2 C0 1.34 0 0.68 0 0 Z " fill="#625F5D" transform="translate(68,44)"/>
<path d="M0 0 C2 2 2 2 2.125 4.625 C2.08375 5.40875 2.0425 6.1925 2 7 C0.35 7 -1.3 7 -3 7 C-3 6.34 -3 5.68 -3 5 C-2.34 5 -1.68 5 -1 5 C-0.67 3.35 -0.34 1.7 0 0 Z " fill="#ABCEE9" transform="translate(34,17)"/>
<path d="M0 0 C1.98 0 3.96 0 6 0 C5.67 0.99 5.34 1.98 5 3 C3.02 3.33 1.04 3.66 -1 4 C-0.67 2.68 -0.34 1.36 0 0 Z " fill="#FDFBFA" transform="translate(62,87)"/>
<path d="M0 0 C0.66 1.32 1.32 2.64 2 4 C0.625 5.5 0.625 5.5 -1 7 C-1.66 7 -2.32 7 -3 7 C-3.33 5.35 -3.66 3.7 -4 2 C-2.68 2 -1.36 2 0 2 C0 1.34 0 0.68 0 0 Z " fill="#295B82" transform="translate(35,68)"/>
<path d="M0 0 C0.99 0.33 1.98 0.66 3 1 C4.99961564 1.03920815 7.00049364 1.04443347 9 1 C8.67 1.66 8.34 2.32 8 3 C5.07286212 3.94934202 3.57168632 4.23176473 0.6875 3.0625 C0.130625 2.711875 -0.42625 2.36125 -1 2 C-0.67 1.34 -0.34 0.68 0 0 Z " fill="#164F80" transform="translate(54,30)"/>
<path d="M0 0 C0.33 0.99 0.66 1.98 1 3 C-1.31 3 -3.62 3 -6 3 C-6.33 2.34 -6.66 1.68 -7 1 C-4.53721199 -0.231394 -2.7204945 -0.07159196 0 0 Z " fill="#F5FDFF" transform="translate(35,97)"/>
<path d="M0 0 C2.31 0 4.62 0 7 0 C7 0.99 7 1.98 7 3 C4.69 3 2.38 3 0 3 C0 2.01 0 1.02 0 0 Z " fill="#5A6F7F" transform="translate(66,94)"/>
<path d="M0 0 C1.125 1.625 1.125 1.625 2 4 C1.125 7.25 1.125 7.25 0 10 C-0.99 9.01 -1.98 8.02 -3 7 C-2.67 6.01 -2.34 5.02 -2 4 C-1.34 4 -0.68 4 0 4 C0 2.68 0 1.36 0 0 Z " fill="#1A598B" transform="translate(28,70)"/>
<path d="M0 0 C1.98 0 3.96 0 6 0 C6.33 1.32 6.66 2.64 7 4 C6.01 4.495 6.01 4.495 5 5 C3.35 3.35 1.7 1.7 0 0 Z " fill="#D4EAF6" transform="translate(37,53)"/>
<path d="M0 0 C1.32 0.33 2.64 0.66 4 1 C4 2.32 4 3.64 4 5 C2.02 5 0.04 5 -2 5 C-1.34 3.35 -0.68 1.7 0 0 Z " fill="#8E7E72" transform="translate(61,36)"/>
<path d="M0 0 C0.66 0.66 1.32 1.32 2 2 C0.02 2.33 -1.96 2.66 -4 3 C-4.66 2.01 -5.32 1.02 -6 0 C-3 -1 -3 -1 0 0 Z " fill="#FBF6EF" transform="translate(22,37)"/>
<path d="M0 0 C2.31 0.33 4.62 0.66 7 1 C7 1.33 7 1.66 7 2 C5.35 2 3.7 2 2 2 C2.33 2.99 2.66 3.98 3 5 C2.01 5.33 1.02 5.66 0 6 C0 4.02 0 2.04 0 0 Z " fill="#064075" transform="translate(25,19)"/>
<path d="M0 0 C1.32 0 2.64 0 4 0 C4 1.32 4 2.64 4 4 C2.35 4.33 0.7 4.66 -1 5 C-0.67 3.35 -0.34 1.7 0 0 Z " fill="#3E3E3E" transform="translate(79,74)"/>
<path d="M0 0 C0.33 0.99 0.66 1.98 1 3 C1.99 3 2.98 3 4 3 C4 3.99 4 4.98 4 6 C2.68 6.33 1.36 6.66 0 7 C0 6.34 0 5.68 0 5 C-0.66 4.67 -1.32 4.34 -2 4 C-1.34 4 -0.68 4 0 4 C0 2.68 0 1.36 0 0 Z " fill="#B8B8B8" transform="translate(54,62)"/>
<path d="M0 0 C2.16874252 0.50603992 3.99967627 0.99983813 6 2 C6 2.66 6 3.32 6 4 C4.02 4 2.04 4 0 4 C0 2.68 0 1.36 0 0 Z " fill="#98928E" transform="translate(77,46)"/>
<path d="M0 0 C2 3 2 3 2 5 C1.01 5 0.02 5 -1 5 C-1 5.66 -1 6.32 -1 7 C-1.66 7 -2.32 7 -3 7 C-3 3 -3 3 -1.5 1.25 C-1.005 0.8375 -0.51 0.425 0 0 Z " fill="#D1D3D5" transform="translate(66,41)"/>
<path d="M0 0 C1.65 0.33 3.3 0.66 5 1 C5 1.66 5 2.32 5 3 C3.68 3 2.36 3 1 3 C1 3.66 1 4.32 1 5 C0.34 5 -0.32 5 -1 5 C-0.67 3.35 -0.34 1.7 0 0 Z " fill="#0B0909" transform="translate(76,43)"/>
<path d="M0 0 C0.33 0 0.66 0 1 0 C1 1.98 1 3.96 1 6 C0.01 6 -0.98 6 -2 6 C-2 5.01 -2 4.02 -2 3 C-2.99 2.67 -3.98 2.34 -5 2 C-3.35 2 -1.7 2 0 2 C0 1.34 0 0.68 0 0 Z " fill="#D5E4ED" transform="translate(58,91)"/>
<path d="M0 0 C0.66 0.33 1.32 0.66 2 1 C1.67 2.32 1.34 3.64 1 5 C-0.65 5 -2.3 5 -4 5 C-3.67 4.01 -3.34 3.02 -3 2 C-2.01 2 -1.02 2 0 2 C0 1.34 0 0.68 0 0 Z " fill="#9EABB4" transform="translate(23,92)"/>
<path d="M0 0 C0.99 0.33 1.98 0.66 3 1 C3 2.65 3 4.3 3 6 C2.67 5.01 2.34 4.02 2 3 C1.01 3 0.02 3 -1 3 C-1.33 3.66 -1.66 4.32 -2 5 C-2 3.68 -2 2.36 -2 1 C-1.34 0.67 -0.68 0.34 0 0 Z " fill="#E1F0F7" transform="translate(71,91)"/>
<path d="M0 0 C2.31 0.33 4.62 0.66 7 1 C7.33 1.99 7.66 2.98 8 4 C5.6875 4.25 5.6875 4.25 3 4 C1.1875 2 1.1875 2 0 0 Z " fill="#C2D8E6" transform="translate(5,83)"/>
<path d="M0 0 C0.66 0.33 1.32 0.66 2 1 C2 2.65 2 4.3 2 6 C1.01 6.495 1.01 6.495 0 7 C-0.66 6.67 -1.32 6.34 -2 6 C-1.34 4.02 -0.68 2.04 0 0 Z " fill="#FDFDFD" transform="translate(98,80)"/>
<path d="M0 0 C0.66 0 1.32 0 2 0 C2 2.31 2 4.62 2 7 C1.01 7.495 1.01 7.495 0 8 C-1.125 2.25 -1.125 2.25 0 0 Z " fill="#DDE9EE" transform="translate(30,72)"/>
<path d="M0 0 C1.32 0 2.64 0 4 0 C4 0.66 4 1.32 4 2 C3.34 2 2.68 2 2 2 C2 2.66 2 3.32 2 4 C0.35 4.33 -1.3 4.66 -3 5 C-2.34 4.67 -1.68 4.34 -1 4 C-0.34786708 1.97536745 -0.34786708 1.97536745 0 0 Z " fill="#DADADA" transform="translate(70,60)"/>
<path d="M0 0 C1.65 0 3.3 0 5 0 C4.67 1.65 4.34 3.3 4 5 C2.68 4.34 1.36 3.68 0 3 C0 2.01 0 1.02 0 0 Z " fill="#2F5A83" transform="translate(27,21)"/>
<path d="M0 0 C-0.33 1.32 -0.66 2.64 -1 4 C-2.32 4.33 -3.64 4.66 -5 5 C-5 3.68 -5 2.36 -5 1 C-2 0 -2 0 0 0 Z " fill="#044A87" transform="translate(29,15)"/>
<path d="M0 0 C2.31 0.66 4.62 1.32 7 2 C4.36095629 3.41377341 1.92879371 4.37240135 -1 5 C-0.67 3.35 -0.34 1.7 0 0 Z " fill="#D4E8F1" transform="translate(33,4)"/>
</svg>
