<?xml version="1.0" encoding="UTF-8"?>
<svg version="1.1" xmlns="http://www.w3.org/2000/svg" width="109" height="89">
<path d="M0 0 C35.97 0 71.94 0 109 0 C109 29.37 109 58.74 109 89 C73.03 89 37.06 89 0 89 C0 59.63 0 30.26 0 0 Z " fill="#FBFCFC" transform="translate(0,0)"/>
<path d="M0 0 C25.08 0 50.16 0 76 0 C76 29.37 76 58.74 76 89 C40.03 89 4.06 89 -33 89 C-33 86.36 -33 83.72 -33 81 C-29.35907791 78.57271861 -28.02495331 78.95174744 -23.75 79.25 C-18.98016758 79.35658843 -16.32004323 79.19246099 -12.6875 76 C-11.12532159 74.40928145 -11.12532159 74.40928145 -10 73 C-10 73.99 -10 74.98 -10 76 C-6.37206002 74.13433512 -6.37206002 74.13433512 -4 71 C-1.66705225 70.95758277 0.66702567 70.95907063 3 71 C4.66342837 72.66342837 4.36048097 74.7825709 4.5625 77.0625 C4.64628906 77.98160156 4.73007812 78.90070313 4.81640625 79.84765625 C4.90728516 80.91306641 4.90728516 80.91306641 5 82 C5.99 82.33 6.98 82.66 8 83 C7.505 84.98 7.505 84.98 7 87 C8.32 87 9.64 87 11 87 C11.99 85.515 11.99 85.515 13 84 C13 84.99 13 85.98 13 87 C16.63 86.67 20.26 86.34 24 86 C24.66 84.02 25.32 82.04 26 80 C25.01 80.33 24.02 80.66 23 81 C22.34 78.69 21.68 76.38 21 74 C21.66 74 22.32 74 23 74 C23 72.68 23 71.36 23 70 C23.99 70 24.98 70 26 70 C26 68.35 26 66.7 26 65 C25.505 65.185625 25.01 65.37125 24.5 65.5625 C20.84918311 66.20139296 17.66035276 65.54905291 14 65 C14 64.34 14 63.68 14 63 C13.34 63 12.68 63 12 63 C12.061875 64.11375 12.12375 65.2275 12.1875 66.375 C12.0946875 68.169375 12.0946875 68.169375 12 70 C11.01 70.66 10.02 71.32 9 72 C8.89042969 71.43410156 8.78085937 70.86820312 8.66796875 70.28515625 C8.50941406 69.55167969 8.35085937 68.81820312 8.1875 68.0625 C8.03667969 67.33160156 7.88585938 66.60070312 7.73046875 65.84765625 C7.48941406 65.23792969 7.24835937 64.62820312 7 64 C6.01 63.67 5.02 63.34 4 63 C4.46329677 58.43892323 5.93748925 56.64108933 9.375 53.6875 C10.16648438 52.99011719 10.95796875 52.29273438 11.7734375 51.57421875 C14 50 14 50 17 50 C17.33 48.02 17.66 46.04 18 44 C18.886875 44.103125 19.77375 44.20625 20.6875 44.3125 C24.16039066 44.29553184 24.16039066 44.29553184 26.75 41.75 C28.995709 39.23288422 28.995709 39.23288422 30 36.875 C31.43319602 34.18775746 33.29695426 33.28394673 36 32 C36.66 32.33 37.32 32.66 38 33 C38 32.34 38 31.68 38 31 C39.23363281 30.94392578 39.23363281 30.94392578 40.4921875 30.88671875 C47.77604451 30.45776181 54.10983745 29.33478805 61 27 C62.32991118 26.65326501 63.66232536 26.31546069 65 26 C65 25.34 65 24.68 65 24 C59.06 23.67 53.12 23.34 47 23 C47 22.67 47 22.34 47 22 C48.59328125 21.94392578 48.59328125 21.94392578 50.21875 21.88671875 C60.98051667 21.56062516 60.98051667 21.56062516 71 18 C71.66 16.68 72.32 15.36 73 14 C69.04 14 65.08 14 61 14 C61 13.67 61 13.34 61 13 C60.07316406 12.93941406 59.14632812 12.87882813 58.19140625 12.81640625 C56.99386719 12.73261719 55.79632813 12.64882812 54.5625 12.5625 C53.36753906 12.48128906 52.17257813 12.40007813 50.94140625 12.31640625 C48 12 48 12 47 11 C44.87615672 10.9268649 42.74999728 10.91639076 40.625 10.9375 C39.46226563 10.94652344 38.29953125 10.95554687 37.1015625 10.96484375 C36.07804687 10.97644531 35.05453125 10.98804688 34 11 C31 11 31 11 28.8125 9.125 C27 7 27 7 27 5 C20.65192054 2.96861457 14.91824614 2.85874348 8.26953125 3.02734375 C5.34200341 3.00286024 2.83442184 2.68858836 0 2 C0 1.34 0 0.68 0 0 Z " fill="#FCFCFD" transform="translate(33,0)"/>
<path d="M0 0 C4.45936139 0.43862571 7.69551375 1.6415321 11.8125 3.375 C11.8125 4.035 11.8125 4.695 11.8125 5.375 C12.7715625 5.808125 12.7715625 5.808125 13.75 6.25 C15.8125 7.375 15.8125 7.375 16.8125 9.375 C17.8025 9.045 18.7925 8.715 19.8125 8.375 C22.38515818 8.30470879 24.92891431 8.28129168 27.5 8.3125 C28.20189453 8.31701172 28.90378906 8.32152344 29.62695312 8.32617188 C31.35550538 8.33793073 33.08401365 8.35586546 34.8125 8.375 C34.8125 8.705 34.8125 9.035 34.8125 9.375 C36.09447266 9.46587891 36.09447266 9.46587891 37.40234375 9.55859375 C38.50707031 9.64238281 39.61179687 9.72617188 40.75 9.8125 C41.85214844 9.89371094 42.95429687 9.97492187 44.08984375 10.05859375 C46.8125 10.375 46.8125 10.375 47.8125 11.375 C49.84255482 11.375 51.87314427 11.37142412 53.90234375 11.3125 C55.8125 11.375 55.8125 11.375 57.8125 12.375 C57.3125 14.6875 57.3125 14.6875 55.8125 17.375 C53.2434588 18.71719295 50.59436561 19.57925705 47.8125 20.375 C48.8025 21.035 49.7925 21.695 50.8125 22.375 C48.67078458 24.76357981 46.8966719 25.94444475 43.875 27 C42.87146484 27.35964844 42.87146484 27.35964844 41.84765625 27.7265625 C37.43619411 29.13213393 33.7337409 29.48421241 29.0625 29.4375 C27.89203125 29.42847656 26.7215625 29.41945313 25.515625 29.41015625 C24.62359375 29.39855469 23.7315625 29.38695313 22.8125 29.375 C22.8125 30.035 22.8125 30.695 22.8125 31.375 C21.99458984 31.49875 21.99458984 31.49875 21.16015625 31.625 C18.01211057 32.63069846 15.87313952 34.37641751 13.25 36.375 C7.61444779 40.65710209 3.77705244 41.83425294 -3.25 41.796875 C-8.05822044 41.1063327 -11.70668845 38.70200825 -15.1875 35.375 C-15.5175 34.385 -15.8475 33.395 -16.1875 32.375 C-16.8475 32.375 -17.5075 32.375 -18.1875 32.375 C-18.6825 29.9 -18.6825 29.9 -19.1875 27.375 C-19.8475 27.375 -20.5075 27.375 -21.1875 27.375 C-22.87512851 25.7295622 -24.5415349 24.06211423 -26.1875 22.375 C-29.92724432 20.50512784 -34.65540828 21.06858166 -38.6875 21.875 C-39.43 22.1225 -39.43 22.1225 -40.1875 22.375 C-38.90904222 18.4330885 -37.77613298 16.4888523 -34.1875 14.375 C-31.390625 14.08203125 -31.390625 14.08203125 -28.4375 14.1875 C-27.45265625 14.21457031 -26.4678125 14.24164063 -25.453125 14.26953125 C-24.70546875 14.30433594 -23.9578125 14.33914063 -23.1875 14.375 C-22.5275 13.055 -21.8675 11.735 -21.1875 10.375 C-19.5375 10.375 -17.8875 10.375 -16.1875 10.375 C-16.1875 11.365 -16.1875 12.355 -16.1875 13.375 C-8.2675 13.375 -0.3475 13.375 7.8125 13.375 C5.29233761 9.59475642 4.18634455 9.44927761 -0.1875 8.375 C-3.84789013 7.93192664 -7.50915384 7.6237138 -11.1875 7.375 C-10.8575 6.385 -10.5275 5.395 -10.1875 4.375 C-8.85953709 4.02087656 -7.52533393 3.68978446 -6.1875 3.375 C-5.754375 2.859375 -5.32125 2.34375 -4.875 1.8125 C-3.1875 0.375 -3.1875 0.375 0 0 Z " fill="#3545A3" transform="translate(48.1875,1.625)"/>
<path d="M0 0 C0.33 0 0.66 0 1 0 C1.125 6.75 1.125 6.75 0 9 C0.66 9 1.32 9 2 9 C2 7.02 2 5.04 2 3 C2.99 4.2375 2.99 4.2375 4 5.5 C8.02366618 8.85305515 9.90700467 8.43160977 15 8 C15.33 6.35 15.66 4.7 16 3 C16.99 3 17.98 3 19 3 C19 3.66 19 4.32 19 5 C20.32 4.67 21.64 4.34 23 4 C23 4.66 23 5.32 23 6 C23.99 6 24.98 6 26 6 C26 6.66 26 7.32 26 8 C26.66 8 27.32 8 28 8 C27.505 6.515 27.505 6.515 27 5 C28.32 5 29.64 5 31 5 C30.67 5.99 30.34 6.98 30 8 C32.64 7.67 35.28 7.34 38 7 C38.33 6.01 38.66 5.02 39 4 C39.33 4 39.66 4 40 4 C40 8.95 40 13.9 40 19 C4.03 19 -31.94 19 -69 19 C-69 16.36 -69 13.72 -69 11 C-65.35907791 8.57271861 -64.02495331 8.95174744 -59.75 9.25 C-54.98016758 9.35658843 -52.32004323 9.19246099 -48.6875 6 C-47.12532159 4.40928145 -47.12532159 4.40928145 -46 3 C-46 3.99 -46 4.98 -46 6 C-42.37206002 4.13433512 -42.37206002 4.13433512 -40 1 C-37.66705225 0.95758277 -35.33297433 0.95907063 -33 1 C-31.33657163 2.66342837 -31.63951903 4.7825709 -31.4375 7.0625 C-31.35371094 7.98160156 -31.26992188 8.90070313 -31.18359375 9.84765625 C-31.12300781 10.55792969 -31.06242187 11.26820312 -31 12 C-30.01 12.33 -29.02 12.66 -28 13 C-28.33 14.32 -28.66 15.64 -29 17 C-27.68 17 -26.36 17 -25 17 C-24.34 16.01 -23.68 15.02 -23 14 C-23 14.99 -23 15.98 -23 17 C-21.20739868 16.94004678 -19.41574205 16.8512759 -17.625 16.75 C-16.62726562 16.70359375 -15.62953125 16.6571875 -14.6015625 16.609375 C-11.8473523 16.27839115 -11.8473523 16.27839115 -10.6484375 13.953125 C-10.43445312 13.30859375 -10.22046875 12.6640625 -10 12 C-9.34 12 -8.68 12 -8 12 C-8.66 10.02 -9.32 8.04 -10 6 C-7.35261084 4.5393715 -6.10551666 4 -3 4 C-1.36323743 2.0399719 -1.36323743 2.0399719 0 0 Z " fill="#FAFCFD" transform="translate(69,70)"/>
<path d="M0 0 C25.08 0 50.16 0 76 0 C76 5.28 76 10.56 76 16 C75.34 16 74.68 16 74 16 C73.505 17.485 73.505 17.485 73 19 C72.34 18.67 71.68 18.34 71 18 C71.66 16.68 72.32 15.36 73 14 C69.04 14 65.08 14 61 14 C61 13.67 61 13.34 61 13 C60.07316406 12.93941406 59.14632812 12.87882813 58.19140625 12.81640625 C56.99386719 12.73261719 55.79632813 12.64882812 54.5625 12.5625 C53.36753906 12.48128906 52.17257813 12.40007813 50.94140625 12.31640625 C48 12 48 12 47 11 C44.87615672 10.9268649 42.74999728 10.91639076 40.625 10.9375 C39.46226563 10.94652344 38.29953125 10.95554687 37.1015625 10.96484375 C36.07804687 10.97644531 35.05453125 10.98804688 34 11 C31 11 31 11 28.8125 9.125 C27 7 27 7 27 5 C20.65192054 2.96861457 14.91824614 2.85874348 8.26953125 3.02734375 C5.34200341 3.00286024 2.83442184 2.68858836 0 2 C0 1.34 0 0.68 0 0 Z " fill="#FAFBFB" transform="translate(33,0)"/>
<path d="M0 0 C5.61 0 11.22 0 17 0 C17 0.33 17 0.66 17 1 C17.85464844 1.06058594 18.70929688 1.12117187 19.58984375 1.18359375 C20.69457031 1.26738281 21.79929687 1.35117188 22.9375 1.4375 C24.59072266 1.55931641 24.59072266 1.55931641 26.27734375 1.68359375 C29 2 29 2 30 3 C32.03005482 3 34.06064427 2.99642412 36.08984375 2.9375 C38 3 38 3 40 4 C39.5 6.3125 39.5 6.3125 38 9 C35.4309588 10.34219295 32.78186561 11.20425705 30 12 C30.99 12.66 31.98 13.32 33 14 C30.85828458 16.38857981 29.0841719 17.56944475 26.0625 18.625 C25.39347656 18.86476563 24.72445312 19.10453125 24.03515625 19.3515625 C19.62369411 20.75713393 15.9212409 21.10921241 11.25 21.0625 C10.07953125 21.05347656 8.9090625 21.04445313 7.703125 21.03515625 C6.81109375 21.02355469 5.9190625 21.01195313 5 21 C5 21.66 5 22.32 5 23 C2.50935112 23.68707555 0.62113708 24 -2 24 C-1.51015625 23.45859375 -1.0203125 22.9171875 -0.515625 22.359375 C1.37050156 19.42323985 1.33970694 17.71268807 1.25 14.25 C1.23453125 13.26515625 1.2190625 12.2803125 1.203125 11.265625 C0.96867231 7.49634709 0.46842492 3.74739938 0 0 Z " fill="#F4F9FE" transform="translate(66,10)"/>
<path d="M0 0 C3.15761669 3.02032901 3.95237776 4.27376088 4.25 8.8125 C4.18712633 12.66875189 3.51790161 14.96115323 1 18 C-3.4938287 21.93210011 -9.25951405 22.00842949 -15 22 C-18.17264799 21.32014686 -20.1727643 20.52391594 -22.875 18.8125 C-24.61876421 16.00310211 -24.05603139 13.24982043 -24 10 C-24.6599679 8.33066942 -25.32558869 6.6635479 -26 5 C-25.55859375 2.85546875 -25.55859375 2.85546875 -25 1 C-23.91730835 1.00785522 -23.91730835 1.00785522 -22.81274414 1.01586914 C-19.56267151 1.03657358 -16.31261272 1.04963918 -13.0625 1.0625 C-11.35803711 1.07506836 -11.35803711 1.07506836 -9.61914062 1.08789062 C-8.53955078 1.09111328 -7.45996094 1.09433594 -6.34765625 1.09765625 C-5.34742432 1.10289307 -4.34719238 1.10812988 -3.31665039 1.11352539 C-1.03792772 1.26181095 -1.03792772 1.26181095 0 0 Z " fill="#D3E4F9" transform="translate(57,14)"/>
<path d="M0 0 C2.76692708 0.52083333 5.53385417 1.04166667 8.30078125 1.5625 C11.03781805 2.07999796 11.03781805 2.07999796 14 2 C14 3.65 14 5.3 14 7 C13.01 7 12.02 7 11 7 C11 10.3 11 13.6 11 17 C11.99 17 12.98 17 14 17 C13.67 18.98 13.34 20.96 13 23 C9.32146819 24.22617727 6.21796373 24.02899914 2.375 23.9375 C-0.1512134 23.88864801 -0.1512134 23.88864801 -3 25 C-3.66 24.67 -4.32 24.34 -5 24 C-5 22.68 -5 21.36 -5 20 C-5.66 19.67 -6.32 19.34 -7 19 C-7.59355614 16.35139573 -7.74209269 13.70802678 -8 11 C-7.67 11.99 -7.34 12.98 -7 14 C-5.02 13.67 -3.04 13.34 -1 13 C-0.67 8.71 -0.34 4.42 0 0 Z " fill="#EFF1F9" transform="translate(45,63)"/>
<path d="M0 0 C1.65 0 3.3 0 5 0 C4.95875 1.2375 4.9175 2.475 4.875 3.75 C4.86306581 7.15721082 5.44016414 8.97781803 7 12 C6.979375 13.175625 6.95875 14.35125 6.9375 15.5625 C6.70013346 18.88574964 6.70013346 18.88574964 8.1875 20.875 C10.4225789 22.26229035 12.40905378 22.64987213 15 23 C15 23.99 15 24.98 15 26 C15.515625 26.103125 16.03125 26.20625 16.5625 26.3125 C19.86026435 27.24263866 22.86633332 28.61395512 26 30 C26 30.33 26 30.66 26 31 C18.49364759 31.75765052 13.84571484 31.0489582 7.6796875 26.60546875 C6 25 6 25 5 22 C4.34 22 3.68 22 3 22 C2.505 19.525 2.505 19.525 2 17 C1.34 17 0.68 17 0 17 C-1.68762851 15.3545622 -3.3540349 13.68711423 -5 12 C-8.73974432 10.13012784 -13.46790828 10.69358166 -17.5 11.5 C-17.995 11.665 -18.49 11.83 -19 12 C-17.72154222 8.0580885 -16.58863298 6.1138523 -13 4 C-10.203125 3.70703125 -10.203125 3.70703125 -7.25 3.8125 C-6.26515625 3.83957031 -5.2803125 3.86664063 -4.265625 3.89453125 C-3.51796875 3.92933594 -2.7703125 3.96414063 -2 4 C-1.34 2.68 -0.68 1.36 0 0 Z " fill="#233F93" transform="translate(27,12)"/>
<path d="M0 0 C2 2 2 2 3 5 C2.5625 7.6875 2.5625 7.6875 2 10 C3.32 10.33 4.64 10.66 6 11 C3.69 11.66 1.38 12.32 -1 13 C-1 13.99 -1 14.98 -1 16 C-1.66 16 -2.32 16 -3 16 C-3 15.34 -3 14.68 -3 14 C-3.99 14 -4.98 14 -6 14 C-6 13.34 -6 12.68 -6 12 C-7.32 12.33 -8.64 12.66 -10 13 C-10 12.34 -10 11.68 -10 11 C-10.99 11 -11.98 11 -13 11 C-13.33 12.65 -13.66 14.3 -14 16 C-19.28497409 17.05699482 -19.28497409 17.05699482 -22 17 C-24.5 15.0625 -24.5 15.0625 -26 13 C-26.33 14.32 -26.66 15.64 -27 17 C-27.66 17 -28.32 17 -29 17 C-29 14.36 -29 11.72 -29 9 C-29.7425 9.845625 -30.485 10.69125 -31.25 11.5625 C-32.1575 12.366875 -33.065 13.17125 -34 14 C-36.171875 13.65234375 -36.171875 13.65234375 -38 13 C-37.88637738 11.5199159 -37.75877092 10.04089926 -37.625 8.5625 C-37.55539063 7.73878906 -37.48578125 6.91507812 -37.4140625 6.06640625 C-37.20910156 5.04353516 -37.20910156 5.04353516 -37 4 C-36.34 3.67 -35.68 3.34 -35 3 C-35.33 5.64 -35.66 8.28 -36 11 C-34.68 11 -33.36 11 -32 11 C-32 9.35 -32 7.7 -32 6 C-29.35261084 4.5393715 -28.10551666 4 -25 4 C-25.33 5.32 -25.66 6.64 -26 8 C-22.7 7.67 -19.4 7.34 -16 7 C-16 7.99 -16 8.98 -16 10 C-17.65 10 -19.3 10 -21 10 C-21.33 11.32 -21.66 12.64 -22 14 C-18.54863159 13.61135346 -18.54863159 13.61135346 -15 12 C-13.91639797 9.98637734 -13.32308994 8.0365353 -12.6875 5.84375 C-12 4 -12 4 -9.8125 2.5 C-9.214375 2.335 -8.61625 2.17 -8 2 C-8 4.31 -8 6.62 -8 9 C-7.01 9 -6.02 9 -5 9 C-4.67 8.34 -4.34 7.68 -4 7 C-3.34 7.33 -2.68 7.66 -2 8 C-2.7018576 5.1490712 -2.7018576 5.1490712 -4 4 C-4 3.01 -4 2.02 -4 1 C-2 0 -2 0 0 0 Z " fill="#DDDFE8" transform="translate(98,62)"/>
<path d="M0 0 C12.21 0 24.42 0 37 0 C34.87779863 4.24440274 33.91891562 5.00373229 29.55859375 6.45947266 C24.26234657 7.57835541 18.8857033 7.30290793 13.5 7.1875 C11.69402344 7.16719727 11.69402344 7.16719727 9.8515625 7.14648438 C6.90057027 7.11135352 3.95052588 7.06215996 1 7 C0.67 4.69 0.34 2.38 0 0 Z " fill="#314795" transform="translate(69,15)"/>
<path d="M0 0 C0.66 0 1.32 0 2 0 C2 1.32 2 2.64 2 4 C2.66 4 3.32 4 4 4 C3.67 5.32 3.34 6.64 3 8 C3.99 7.34 4.98 6.68 6 6 C6.36521739 12.45217391 6.36521739 12.45217391 4.75 14.875 C3 16 3 16 0.9375 16.4375 C0.298125 16.623125 -0.34125 16.80875 -1 17 C-1.33 17.66 -1.66 18.32 -2 19 C-3 21 -3 21 -5.125 21.75 C-6.053125 21.87375 -6.053125 21.87375 -7 22 C-7.33 21.34 -7.66 20.68 -8 20 C-8.43570312 20.433125 -8.87140625 20.86625 -9.3203125 21.3125 C-14.205 25.88 -14.205 25.88 -18.3125 26.5 C-21 26 -21 26 -23 24 C-23.125 21.375 -23.125 21.375 -23 19 C-22.34 19.99 -21.68 20.98 -21 22 C-17.91634129 22.2502157 -17.91634129 22.2502157 -15 22 C-15.37125 20.14375 -15.37125 20.14375 -15.75 18.25 C-16.25463011 14.35121394 -16.25463011 14.35121394 -14.1875 11.5 C-12 10 -12 10 -10 10 C-11 13 -11 13 -12.625 14.4375 C-13.07875 14.953125 -13.5325 15.46875 -14 16 C-13.67156616 18.06381575 -13.67156616 18.06381575 -13 20 C-13.33 20.66 -13.66 21.32 -14 22 C-13.34 22 -12.68 22 -12 22 C-11.67 21.01 -11.34 20.02 -11 19 C-10.34 18.67 -9.68 18.34 -9 18 C-8.27840576 16.35636866 -7.60648579 14.68949614 -7 13 C-6.34 13.66 -5.68 14.32 -5 15 C-5.33 15.33 -5.66 15.66 -6 16 C-5.34 16.33 -4.68 16.66 -4 17 C-3.67 15.68 -3.34 14.36 -3 13 C-2.34 13 -1.68 13 -1 13 C-1 12.34 -1 11.68 -1 11 C-1.99 10.67 -2.98 10.34 -4 10 C-3.01 10 -2.02 10 -1 10 C-1.20625 9.278125 -1.4125 8.55625 -1.625 7.8125 C-2.05952211 4.55358415 -1.41680669 2.91695496 0 0 Z " fill="#ECF2F8" transform="translate(30,54)"/>
<path d="M0 0 C1.9375 0.6875 1.9375 0.6875 4 2 C4.75 4.625 4.75 4.625 5 7 C5.99 7.33 6.98 7.66 8 8 C7.67 8.99 7.34 9.98 7 11 C6.34 11 5.68 11 5 11 C5.26296875 11.73605469 5.5259375 12.47210938 5.796875 13.23046875 C8.37911647 21.24176707 8.37911647 21.24176707 6.5 25 C5.675 25.66 4.85 26.32 4 27 C3.278125 27.61875 2.55625 28.2375 1.8125 28.875 C-2.29786011 30.51914405 -5.74944832 30.02228458 -10 29 C-13.0625 27.5625 -13.0625 27.5625 -15 26 C-15 25.34 -15 24.68 -15 24 C-14.26394531 23.89042969 -13.52789062 23.78085937 -12.76953125 23.66796875 C-4.23330324 22.48554248 -4.23330324 22.48554248 2.3125 17.3125 C3.73607321 12.52411739 3.7822761 8.49936253 1.5 4.125 C1.005 3.42375 0.51 2.7225 0 2 C0 1.34 0 0.68 0 0 Z " fill="#2F4690" transform="translate(57,12)"/>
<path d="M0 0 C9.57 0 19.14 0 29 0 C28 3 28 3 26.3828125 4.16796875 C17.56944216 8.14770864 8.45464535 7.34945301 -1 7 C-0.67 4.69 -0.34 2.38 0 0 Z " fill="#485995" transform="translate(70,23)"/>
<path d="M0 0 C3.93711437 -0.14492719 7.87354625 -0.23394537 11.8125 -0.3125 C13.49182617 -0.3753418 13.49182617 -0.3753418 15.20507812 -0.43945312 C16.81479492 -0.46362305 16.81479492 -0.46362305 18.45703125 -0.48828125 C19.44678955 -0.51446533 20.43654785 -0.54064941 21.45629883 -0.56762695 C24 0 24 0 25.84643555 2.40551758 C27 5 27 5 27 7 C18.75 7 10.5 7 2 7 C0 3 0 3 0 0 Z " fill="#2C3999" transform="translate(32,15)"/>
<path d="M0 0 C0.66 0 1.32 0 2 0 C2.10655578 6.44070471 1.96205088 12.62641289 1 19 C2.79199472 19.78282648 2.79199472 19.78282648 5 20 C6.33849671 19.00692179 7.67151309 18.00642948 9 17 C11.75 16.8125 11.75 16.8125 14 17 C13.67 18.98 13.34 20.96 13 23 C9.32146819 24.22617727 6.21796373 24.02899914 2.375 23.9375 C-0.1512134 23.88864801 -0.1512134 23.88864801 -3 25 C-3.66 24.67 -4.32 24.34 -5 24 C-5 22.68 -5 21.36 -5 20 C-5.66 19.67 -6.32 19.34 -7 19 C-7.59355614 16.35139573 -7.74209269 13.70802678 -8 11 C-7.67 11.99 -7.34 12.98 -7 14 C-5.02 13.67 -3.04 13.34 -1 13 C-0.67 8.71 -0.34 4.42 0 0 Z " fill="#A9AEC3" transform="translate(45,63)"/>
<path d="M0 0 C7.92 0 15.84 0 24 0 C23.67 1.98 23.34 3.96 23 6 C15.41 6 7.82 6 0 6 C0 4.02 0 2.04 0 0 Z " fill="#284283" transform="translate(35,24)"/>
<path d="M0 0 C0 0.66 0 1.32 0 2 C0.66 1.67 1.32 1.34 2 1 C8.63679951 0.42767235 14.21177283 0.55169445 20 4 C20.66 5.32 21.32 6.64 22 8 C13.75 7.67 5.5 7.34 -3 7 C-3.33 8.32 -3.66 9.64 -4 11 C-3.979375 10.05125 -3.95875 9.1025 -3.9375 8.125 C-3.77448174 5.09333717 -3.77448174 5.09333717 -5 3 C-2.25 0 -2.25 0 0 0 Z " fill="#DFECF3" transform="translate(35,8)"/>
<path d="M0 0 C1.8125 0.1875 1.8125 0.1875 4 1 C4.45375 1.804375 4.9075 2.60875 5.375 3.4375 C7.46686958 6.73621742 9.29350529 7.09396796 13 8 C13 8.99 13 9.98 13 11 C13.7734375 11.1546875 13.7734375 11.1546875 14.5625 11.3125 C17.86026435 12.24263866 20.86633332 13.61395512 24 15 C24 15.33 24 15.66 24 16 C16.49364759 16.75765052 11.84571484 16.0489582 5.6796875 11.60546875 C4 10 4 10 3 7 C2.34 7 1.68 7 1 7 C0.31292445 4.50935112 0 2.62113708 0 0 Z " fill="#41548D" transform="translate(29,27)"/>
<path d="M0 0 C0.33 0.99 0.66 1.98 1 3 C1.95865509 5.33075929 1.95865509 5.33075929 5 7 C1.77690394 9.59927102 -0.47211602 10.2313904 -4.5 9.875 C-8.22058087 9.30976985 -11.0176415 8.40512782 -14 6 C-14 5.34 -14 4.68 -14 4 C-13.24074219 3.87882812 -12.48148438 3.75765625 -11.69921875 3.6328125 C-10.20841797 3.38144531 -10.20841797 3.38144531 -8.6875 3.125 C-7.70136719 2.96257813 -6.71523438 2.80015625 -5.69921875 2.6328125 C-2.79940173 2.11914546 -2.79940173 2.11914546 0 0 Z " fill="#26369B" transform="translate(56,32)"/>
<path d="M0 0 C2 2 2 2 3 5 C2.5625 7.6875 2.5625 7.6875 2 10 C3.32 10.33 4.64 10.66 6 11 C3.69 11.66 1.38 12.32 -1 13 C-1 13.99 -1 14.98 -1 16 C-1.66 16 -2.32 16 -3 16 C-3 15.34 -3 14.68 -3 14 C-3.99 14 -4.98 14 -6 14 C-6.33 12.35 -6.66 10.7 -7 9 C-6.34 9 -5.68 9 -5 9 C-4.67 8.34 -4.34 7.68 -4 7 C-3.34 7.33 -2.68 7.66 -2 8 C-2.7018576 5.1490712 -2.7018576 5.1490712 -4 4 C-4 3.01 -4 2.02 -4 1 C-2 0 -2 0 0 0 Z " fill="#B1B7C0" transform="translate(98,62)"/>
<path d="M0 0 C8.25 0.33 16.5 0.66 25 1 C19.21109723 5.63112221 16.14230983 6.09439176 9 6 C3.87212293 4.99273843 3.26635691 4.35514254 0 0 Z " fill="#E4ECF9" transform="translate(33,30)"/>
<path d="M0 0 C0.66 0.66 1.32 1.32 2 2 C3.32 1.34 4.64 0.68 6 0 C6 0.66 6 1.32 6 2 C6.99 2.33 7.98 2.66 9 3 C8.125 7.75 8.125 7.75 7 10 C6.01 10 5.02 10 4 10 C3.67 10.66 3.34 11.32 3 12 C2.01 12.495 2.01 12.495 1 13 C1 12.34 1 11.68 1 11 C0.34 11 -0.32 11 -1 11 C-1 9.68 -1 8.36 -1 7 C-0.01 6.67 0.98 6.34 2 6 C1.34 5.67 0.68 5.34 0 5 C0 3.35 0 1.7 0 0 Z " fill="#F8F7FC" transform="translate(100,67)"/>
<path d="M0 0 C2.97 0.33 5.94 0.66 9 1 C9 2.65 9 4.3 9 6 C8.01 6 7.02 6 6 6 C6 6.99 6 7.98 6 9 C5.01 9 4.02 9 3 9 C3 9.66 3 10.32 3 11 C1.68 10.67 0.36 10.34 -1 10 C-0.67 6.7 -0.34 3.4 0 0 Z " fill="#CED1DF" transform="translate(50,64)"/>
<path d="M0 0 C7.92 0 15.84 0 24 0 C24.33 0.99 24.66 1.98 25 3 C21.77138267 3.19789024 18.54210273 3.38146345 15.3125 3.5625 C14.40048828 3.61857422 13.48847656 3.67464844 12.54882812 3.73242188 C11.21948242 3.80493164 11.21948242 3.80493164 9.86328125 3.87890625 C9.05157471 3.9260376 8.23986816 3.97316895 7.40356445 4.02172852 C4.8210515 3.99838228 2.51150091 3.5804792 0 3 C0 2.01 0 1.02 0 0 Z " fill="#375091" transform="translate(32,15)"/>
<path d="M0 0 C1.23723976 2.47447952 1 4.2553349 1 7 C1.33 7.99 1.66 8.98 2 10 C1.01 10.33 0.02 10.66 -1 11 C-1 10.34 -1 9.68 -1 9 C-1.99 9 -2.98 9 -4 9 C-4.33 10.65 -4.66 12.3 -5 14 C-11.15234375 14.87890625 -11.15234375 14.87890625 -13 15 C-14 14 -14 14 -14.0625 10.9375 C-14.041875 9.968125 -14.02125 8.99875 -14 8 C-13.67 9.32 -13.34 10.64 -13 12 C-9.54863159 11.61135346 -9.54863159 11.61135346 -6 10 C-4.87640851 7.98351641 -4.27750931 6.10689331 -3.703125 3.875 C-3 2 -3 2 0 0 Z " fill="#A6ACC4" transform="translate(89,64)"/>
<path d="M0 0 C2.31 0.33 4.62 0.66 7 1 C6.8125 2.8125 6.8125 2.8125 6 5 C4.36816893 6.05589069 2.69207001 7.0436126 1 8 C-0.85878785 9.55498596 -2.65809721 11.160705 -4.44921875 12.79296875 C-6 14 -6 14 -8 14 C-7.67 13.01 -7.34 12.02 -7 11 C-6.34 10.67 -5.68 10.34 -5 10 C-3.94773272 8.02699884 -2.95211112 6.02323613 -2 4 C-1 2 -1 2 0 0 Z " fill="#EEEEEA" transform="translate(44,45)"/>
<path d="M0 0 C2 1 2 1 2.8515625 3.06640625 C3.10679688 3.89011719 3.36203125 4.71382813 3.625 5.5625 C3.88539062 6.38878906 4.14578125 7.21507813 4.4140625 8.06640625 C4.60742188 8.70449219 4.80078125 9.34257813 5 10 C4 11 4 11 0.9375 11.0625 C-0.031875 11.041875 -1.00125 11.02125 -2 11 C-2.226875 10.195625 -2.45375 9.39125 -2.6875 8.5625 C-3.120625 7.716875 -3.55375 6.87125 -4 6 C-6.54775306 5.10613836 -6.54775306 5.10613836 -9 5 C-8.34 4.34 -7.68 3.68 -7 3 C-4.73725212 3.35355436 -3.04911148 3.97544426 -1 5 C-0.67 3.35 -0.34 1.7 0 0 Z " fill="#E8ECF1" transform="translate(40,66)"/>
<path d="M0 0 C1.4606285 2.64738916 2 3.89448334 2 7 C5.3 7 8.6 7 12 7 C12 7.33 12 7.66 12 8 C8.7 8 5.4 8 2 8 C1.67 10.31 1.34 12.62 1 15 C5.95 15 10.9 15 16 15 C16 15.33 16 15.66 16 16 C11.71 16 7.42 16 3 16 C3 16.66 3 17.32 3 18 C0.50935112 18.68707555 -1.37886292 19 -4 19 C-3.50757812 18.48824219 -3.01515625 17.97648437 -2.5078125 17.44921875 C-0.45268989 14.11097555 -0.73813568 11.69703139 -0.875 7.8125 C-0.94513797 5.54236767 -0.99412365 3.27120796 -1 1 C-0.67 0.67 -0.34 0.34 0 0 Z " fill="#C4D5F2" transform="translate(68,15)"/>
<path d="M0 0 C1.65 0 3.3 0 5 0 C5 2.9178516 4.59228483 4.45445752 3.5625 7.125 C3.29566406 7.82882813 3.02882813 8.53265625 2.75390625 9.2578125 C2 11 2 11 1 12 C-0.99958364 12.04080783 -3.00045254 12.04254356 -5 12 C-4.67 10.35 -4.34 8.7 -4 7 C-2.35 7.33 -0.7 7.66 1 8 C1 7.01 1 6.02 1 5 C0.34 4.67 -0.32 4.34 -1 4 C-0.67 2.68 -0.34 1.36 0 0 Z " fill="#EDF0FB" transform="translate(81,64)"/>
<path d="M0 0 C1.65 0 3.3 0 5 0 C5 0.66 5 1.32 5 2 C7.12493141 2.02693575 9.24995912 2.04636628 11.375 2.0625 C13.15003906 2.07990234 13.15003906 2.07990234 14.9609375 2.09765625 C17.91921521 2.21466593 17.91921521 2.21466593 20 1 C22.125 1.9375 22.125 1.9375 24 3 C23.67 3.66 23.34 4.32 23 5 C15.08 4.67 7.16 4.34 -1 4 C-1.33 5.32 -1.66 6.64 -2 8 C-2 6.35 -2 4.7 -2 3 C-1.34 3 -0.68 3 0 3 C0 2.01 0 1.02 0 0 Z " fill="#F1FAFD" transform="translate(33,11)"/>
<path d="M0 0 C4.45936139 0.43862571 7.69551375 1.6415321 11.8125 3.375 C11.8125 3.705 11.8125 4.035 11.8125 4.375 C4.8825 3.88 4.8825 3.88 -2.1875 3.375 C-2.5175 4.365 -2.8475 5.355 -3.1875 6.375 C-6.1575 5.88 -6.1575 5.88 -9.1875 5.375 C-9.1875 6.035 -9.1875 6.695 -9.1875 7.375 C-9.8475 7.045 -10.5075 6.715 -11.1875 6.375 C-10.8575 5.715 -10.5275 5.055 -10.1875 4.375 C-9.56875 4.230625 -8.95 4.08625 -8.3125 3.9375 C-6.09436587 3.56849802 -6.09436587 3.56849802 -4.875 1.8125 C-3.1875 0.375 -3.1875 0.375 0 0 Z " fill="#3D488E" transform="translate(48.1875,1.625)"/>
<path d="M0 0 C6.93 0.495 6.93 0.495 14 1 C13.01 1.495 13.01 1.495 12 2 C12 2.66 12 3.32 12 4 C7.75448144 5.09587955 4.0407161 4.92865836 -0.3125 4.5625 C-1.56675781 4.46066406 -2.82101563 4.35882812 -4.11328125 4.25390625 C-5.06589844 4.17011719 -6.01851562 4.08632812 -7 4 C-7 3.34 -7 2.68 -7 2 C-5.02 2 -3.04 2 -1 2 C-0.67 1.34 -0.34 0.68 0 0 Z " fill="#243C91" transform="translate(46,5)"/>
<path d="M0 0 C0.556875 0.474375 1.11375 0.94875 1.6875 1.4375 C4.18346074 3.12395996 6.0446237 3.58953107 9 4 C9.33 4.99 9.66 5.98 10 7 C9.01 7.495 9.01 7.495 8 8 C7.34 7.67 6.68 7.34 6 7 C-0.08516056 6.76666713 -0.08516056 6.76666713 -6 8 C-4.73058503 4.08597051 -3.48832306 2.20927127 0 0 Z " fill="#4A5A8A" transform="translate(14,16)"/>
<path d="M0 0 C4.95 0 9.9 0 15 0 C15 0.33 15 0.66 15 1 C11.7 1.33 8.4 1.66 5 2 C5 2.66 5 3.32 5 4 C11.27 4.33 17.54 4.66 24 5 C24 5.33 24 5.66 24 6 C16.41 6 8.82 6 1 6 C0.67 4.02 0.34 2.04 0 0 Z " fill="#283F7F" transform="translate(69,15)"/>
<path d="M0 0 C3.11954738 0.33724836 4.6209965 0.6209965 6.875 2.875 C7.24625 3.57625 7.6175 4.2775 8 5 C7.67 5.99 7.34 6.98 7 8 C5 6 5 6 3 3 C3 3.66 3 4.32 3 5 C3 5.99 3 6.98 3 8 C1.68 7.01 0.36 6.02 -1 5 C-1.33 5.66 -1.66 6.32 -2 7 C-2.66 6.34 -3.32 5.68 -4 5 C-5.98356483 4.28591666 -7.98315437 3.61382258 -10 3 C-10 2.67 -10 2.34 -10 2 C-6.7 2 -3.4 2 0 2 C0 1.34 0 0.68 0 0 Z " fill="#3A4F9B" transform="translate(58,7)"/>
<path d="M0 0 C-1 3 -1 3 -2.625 4.4375 C-3.07875 4.953125 -3.5325 5.46875 -4 6 C-3.835 6.61875 -3.67 7.2375 -3.5 7.875 C-3 10 -3 10 -4.125 12.6875 C-6 15 -6 15 -8.5625 15.9375 C-9.366875 15.958125 -10.17125 15.97875 -11 16 C-13 14 -13 14 -13.125 11.375 C-13.08375 10.59125 -13.0425 9.8075 -13 9 C-12.01 10.485 -12.01 10.485 -11 12 C-7.91634129 12.2502157 -7.91634129 12.2502157 -5 12 C-5.37125 10.14375 -5.37125 10.14375 -5.75 8.25 C-6.25463011 4.35121394 -6.25463011 4.35121394 -4.1875 1.5 C-2 0 -2 0 0 0 Z " fill="#797F96" transform="translate(20,64)"/>
<path d="M0 0 C0.66 0 1.32 0 2 0 C2.05449838 1.72880982 2.09301688 3.45812712 2.125 5.1875 C2.14820313 6.15042969 2.17140625 7.11335938 2.1953125 8.10546875 C1.9913544 11.12812778 1.26874632 13.26769985 0 16 C-2.3260857 16.38063221 -4.66055264 16.71269945 -7 17 C-8 16 -8 16 -8.0625 13.4375 C-8.041875 12.633125 -8.02125 11.82875 -8 11 C-7.67 11.99 -7.34 12.98 -7 14 C-5.02 13.67 -3.04 13.34 -1 13 C-0.67 8.71 -0.34 4.42 0 0 Z " fill="#6A6F8B" transform="translate(45,63)"/>
<path d="M0 0 C0.98120464 3.05263664 0.98120464 4.94736336 0 8 C1.32 8 2.64 8 4 8 C4 6.35 4 4.7 4 3 C6.64738916 1.5393715 7.89448334 1 11 1 C11 1.66 11 2.32 11 3 C10.01 3.33 9.02 3.66 8 4 C7.01 5.485 7.01 5.485 6 7 C4 10 4 10 1 11 C0.01 10.67 -0.98 10.34 -2 10 C-1.85950482 8.52031676 -1.71245174 7.04125484 -1.5625 5.5625 C-1.48128906 4.73878906 -1.40007813 3.91507812 -1.31640625 3.06640625 C-1 1 -1 1 0 0 Z " fill="#68718A" transform="translate(62,65)"/>
<path d="M0 0 C-0.99 0.495 -0.99 0.495 -2 1 C-2 1.66 -2 2.32 -2 3 C-7.28 3 -12.56 3 -18 3 C-18 2.01 -18 1.02 -18 0 C-11.78675502 -0.73030908 -6.15901243 -1.23180249 0 0 Z " fill="#203C91" transform="translate(90,25)"/>
<path d="M0 0 C0.33 0.66 0.66 1.32 1 2 C3.34907875 2.68931344 3.34907875 2.68931344 6.0625 3.125 C6.98160156 3.29257812 7.90070312 3.46015625 8.84765625 3.6328125 C9.91306641 3.81457031 9.91306641 3.81457031 11 4 C11 3.34 11 2.68 11 2 C13.97 2 16.94 2 20 2 C20.33 2.99 20.66 3.98 21 5 C14.4 5 7.8 5 1 5 C0.67 3.35 0.34 1.7 0 0 Z " fill="#293D86" transform="translate(37,25)"/>
<path d="M0 0 C0.66 1.32 1.32 2.64 2 4 C9.59 4.33 17.18 4.66 25 5 C25 5.33 25 5.66 25 6 C17.74 6 10.48 6 3 6 C3.33 7.32 3.66 8.64 4 10 C3.67 10.66 3.34 11.32 3 12 C2.34 12 1.68 12 1 12 C1.04125 11.113125 1.0825 10.22625 1.125 9.3125 C1.00102754 6.02722987 0.38612096 3.94550705 -1 1 C-0.67 0.67 -0.34 0.34 0 0 Z " fill="#B4C9F6" transform="translate(32,18)"/>
<path d="M0 0 C0.66 0.66 1.32 1.32 2 2 C1.67 2.33 1.34 2.66 1 3 C1.99 3.33 2.98 3.66 4 4 C4 4.66 4 5.32 4 6 C3.34 6 2.68 6 2 6 C2.33 6.99 2.66 7.98 3 9 C2.01 9 1.02 9 0 9 C-0.33 8.34 -0.66 7.68 -1 7 C-3.31 8.98 -5.62 10.96 -8 13 C-8 12.01 -8 11.02 -8 10 C-7.01 9.67 -6.02 9.34 -5 9 C-4.67 8.01 -4.34 7.02 -4 6 C-3.34 5.67 -2.68 5.34 -2 5 C-1.27840576 3.35636866 -0.60648579 1.68949614 0 0 Z " fill="#D8DBE6" transform="translate(23,67)"/>
<path d="M0 0 C1.10914742 3.32744227 1.03211839 5.64561525 0 9 C-1.4375 10.8125 -1.4375 10.8125 -3 12 C-3.66 12 -4.32 12 -5 12 C-5 9.33333333 -5 6.66666667 -5 4 C-3.35 3.34 -1.7 2.68 0 2 C0 1.34 0 0.68 0 0 Z " fill="#EDF1F8" transform="translate(21,64)"/>
<path d="M0 0 C-0.33 1.65 -0.66 3.3 -1 5 C-1.99 4.67 -2.98 4.34 -4 4 C-4 4.66 -4 5.32 -4 6 C-4.66 5.67 -5.32 5.34 -6 5 C-7.3734635 4.84995027 -8.7528526 4.75161994 -10.1328125 4.68359375 C-10.93847656 4.64169922 -11.74414062 4.59980469 -12.57421875 4.55664062 C-13.41597656 4.51732422 -14.25773437 4.47800781 -15.125 4.4375 C-15.97449219 4.39431641 -16.82398437 4.35113281 -17.69921875 4.30664062 C-19.79928223 4.20045764 -21.89961948 4.09971503 -24 4 C-24 3.67 -24 3.34 -24 3 C-22.91460937 2.95101563 -21.82921875 2.90203125 -20.7109375 2.8515625 C-19.26560216 2.77648014 -17.82029081 2.70093472 -16.375 2.625 C-15.66214844 2.5940625 -14.94929688 2.563125 -14.21484375 2.53125 C-9.33406064 2.26258304 -4.68975657 0 0 0 Z " fill="#E0EBFA" transform="translate(104,19)"/>
<path d="M0 0 C2.52845528 1.26422764 2.76422764 2.52845528 4 5 C4.66 5.33 5.32 5.66 6 6 C6.96070434 8.88211302 7.10581883 10.69850044 7.0625 13.6875 C7.05347656 14.49574219 7.04445313 15.30398437 7.03515625 16.13671875 C7.02355469 16.75160156 7.01195313 17.36648437 7 18 C6.01 17.34 5.02 16.68 4 16 C4 15.01 4 14.02 4 13 C4.66 13 5.32 13 6 13 C5.4225 12.13375 4.845 11.2675 4.25 10.375 C1.125 5.6875 1.125 5.6875 -2 1 C-1.34 0.67 -0.68 0.34 0 0 Z " fill="#21388F" transform="translate(61,9)"/>
<path d="M0 0 C1.65 0 3.3 0 5 0 C4.96744792 1.98567708 4.93489583 3.97135417 4.90234375 5.95703125 C4.91736783 8.20305461 4.91736783 8.20305461 6 11 C5.01 11.495 5.01 11.495 4 12 C3.67 10.02 3.34 8.04 3 6 C2.34 6 1.68 6 1 6 C0.67 5.34 0.34 4.68 0 4 C-0.33 4.66 -0.66 5.32 -1 6 C-1.99 5.67 -2.98 5.34 -4 5 C-3.34 4.67 -2.68 4.34 -2 4 C-0.86649466 1.98330173 -0.86649466 1.98330173 0 0 Z " fill="#405696" transform="translate(27,12)"/>
<path d="M0 0 C6.6 0 13.2 0 20 0 C20.33 0.66 20.66 1.32 21 2 C15.555 1.505 15.555 1.505 10 1 C10 1.66 10 2.32 10 3 C7.03 3 4.06 3 1 3 C0.67 2.01 0.34 1.02 0 0 Z " fill="#2C44A4" transform="translate(38,26)"/>
<path d="M0 0 C2.35482691 0.9571232 4.67466114 1.97148474 7 3 C7 3.33 7 3.66 7 4 C5.20841511 4.02696365 3.41671527 4.04637917 1.625 4.0625 C0.62726562 4.07410156 -0.37046875 4.08570313 -1.3984375 4.09765625 C-4 4 -4 4 -6 3 C-6 2.01 -6 1.02 -6 0 C-3.39109439 -1.3044528 -2.75956619 -0.89499444 0 0 Z " fill="#4458A4" transform="translate(46,39)"/>
<path d="M0 0 C0.33 0.99 0.66 1.98 1 3 C1.95865509 5.33075929 1.95865509 5.33075929 5 7 C0.25 10 0.25 10 -2 10 C-2 8.68 -2 7.36 -2 6 C-3.98 5.34 -5.96 4.68 -8 4 C-8 3.67 -8 3.34 -8 3 C-7.05125 2.690625 -6.1025 2.38125 -5.125 2.0625 C-2.13919592 1.12605258 -2.13919592 1.12605258 0 0 Z " fill="#4550A0" transform="translate(56,32)"/>
<path d="M0 0 C1.9375 0.6875 1.9375 0.6875 4 2 C4.75 4.625 4.75 4.625 5 7 C5.99 7.33 6.98 7.66 8 8 C7.67 8.99 7.34 9.98 7 11 C6.34 11 5.68 11 5 11 C5.33 13.31 5.66 15.62 6 18 C4.02148594 15.03222891 3.58164628 13.54217187 3 10.125 C2.3390781 6.53713827 1.55251971 3.32682794 0 0 Z " fill="#213883" transform="translate(57,12)"/>
<path d="M0 0 C1 3 1 3 0 6 C0.66 6 1.32 6 2 6 C2 4.35 2 2.7 2 1 C2.99 1.33 3.98 1.66 5 2 C5.33 3.98 5.66 5.96 6 8 C4.0085944 8.38133299 2.00720923 8.71325582 0 9 C-1 8 -1 8 -1.125 5.0625 C-1 2 -1 2 0 0 Z " fill="#D8E0EF" transform="translate(9,68)"/>
<path d="M0 0 C7.92 0 15.84 0 24 0 C20.13209648 2.57860235 17.23386085 2.01114505 12.8125 1.625 C12.06291016 1.56828125 11.31332031 1.5115625 10.54101562 1.453125 C8.69323441 1.31189331 6.846488 1.15723833 5 1 C5 1.66 5 2.32 5 3 C3.35 2.67 1.7 2.34 0 2 C0 1.34 0 0.68 0 0 Z " fill="#223FA5" transform="translate(73,17)"/>
<path d="M0 0 C0.33 0 0.66 0 1 0 C1.36521739 6.45217391 1.36521739 6.45217391 -0.25 8.875 C-2 10 -2 10 -4.0625 10.4375 C-6.21173571 10.82450832 -6.21173571 10.82450832 -7.25 13.0625 C-7.4975 13.701875 -7.745 14.34125 -8 15 C-8.66 15 -9.32 15 -10 15 C-10 14.34 -10 13.68 -10 13 C-9.34 13 -8.68 13 -8 13 C-8.33 11.68 -8.66 10.36 -9 9 C-6.23735711 8.40267181 -3.83967231 8 -1 8 C-0.67 5.36 -0.34 2.72 0 0 Z " fill="#73788C" transform="translate(35,60)"/>
<path d="M0 0 C3.3 0 6.6 0 10 0 C9.34 1.32 8.68 2.64 8 4 C4.375 4.75 4.375 4.75 1 5 C0.67 3.35 0.34 1.7 0 0 Z " fill="#2E3B79" transform="translate(96,15)"/>
<path d="M0 0 C1.98 0 3.96 0 6 0 C5.67 0.66 5.34 1.32 5 2 C7.97 2.33 10.94 2.66 14 3 C14 3.33 14 3.66 14 4 C11.85529407 4.36093104 9.70919203 4.71357589 7.5625 5.0625 C5.77005859 5.35833984 5.77005859 5.35833984 3.94140625 5.66015625 C2.97074219 5.77230469 2.00007813 5.88445313 1 6 C0 5 0 5 -0.0625 2.4375 C-0.041875 1.633125 -0.02125 0.82875 0 0 Z " fill="#E9F3FD" transform="translate(66,10)"/>
<path d="M0 0 C3.3 0 6.6 0 10 0 C10.33 0.99 10.66 1.98 11 3 C7.37 3 3.74 3 0 3 C0 2.01 0 1.02 0 0 Z " fill="#2D4281" transform="translate(48,19)"/>
<path d="M0 0 C0.66 0 1.32 0 2 0 C1.40312566 3.34249629 0.26396123 5.46436342 -2 8 C-2.66 8 -3.32 8 -4 8 C-4.33 6.35 -4.66 4.7 -5 3 C-4.34 3 -3.68 3 -3 3 C-2.67 2.34 -2.34 1.68 -2 1 C-1.34 1.33 -0.68 1.66 0 2 C0 1.34 0 0.68 0 0 Z " fill="#BEC9D5" transform="translate(96,68)"/>
<path d="M0 0 C2 1.25 2 1.25 4 3 C4 4.32 4 5.64 4 7 C2.68 7 1.36 7 0 7 C0.33 7.66 0.66 8.32 1 9 C0.01 8.67 -0.98 8.34 -2 8 C-2 6.35 -2 4.7 -2 3 C-1.34 3 -0.68 3 0 3 C0 2.01 0 1.02 0 0 Z " fill="#1A3E90" transform="translate(30,21)"/>
<path d="M0 0 C0.66 0.66 1.32 1.32 2 2 C3.32 1.34 4.64 0.68 6 0 C6.33 1.65 6.66 3.3 7 5 C3.86650268 6.04449911 3.01031744 5.93423645 0 5 C0 3.35 0 1.7 0 0 Z " fill="#DBDFEA" transform="translate(100,67)"/>
<path d="M0 0 C0.66 0 1.32 0 2 0 C2 1.32 2 2.64 2 4 C2.66 4 3.32 4 4 4 C3.67 4.99 3.34 5.98 3 7 C1.35 7.33 -0.3 7.66 -2 8 C-1.125 1.125 -1.125 1.125 0 0 Z " fill="#8784A7" transform="translate(30,54)"/>
<path d="M0 0 C4.29 0 8.58 0 13 0 C9.6133629 3.3866371 8.8662468 3.41963254 4.3125 3.6875 C3.31863281 3.75324219 2.32476562 3.81898437 1.30078125 3.88671875 C0.54152344 3.92410156 -0.21773438 3.96148438 -1 4 C-0.67 2.68 -0.34 1.36 0 0 Z " fill="#33469C" transform="translate(70,24)"/>
<path d="M0 0 C2.475 0.99 2.475 0.99 5 2 C4.01 2.495 4.01 2.495 3 3 C3 4.65 3 6.3 3 8 C1.68 8 0.36 8 -1 8 C-0.67 5.36 -0.34 2.72 0 0 Z " fill="#DEE9F1" transform="translate(63,65)"/>
<path d="M0 0 C2.97 0 5.94 0 9 0 C8.67 0.99 8.34 1.98 8 3 C4.9375 4.1875 4.9375 4.1875 2 5 C0 1.125 0 1.125 0 0 Z " fill="#2B4E8A" transform="translate(88,24)"/>
<path d="M0 0 C3.63 0 7.26 0 11 0 C6.577168 3.317124 5.28089024 3.30466674 0 3 C0 2.01 0 1.02 0 0 Z " fill="#F6FAF2" transform="translate(43,31)"/>
<path d="M0 0 C0 3 0 3 -1.8984375 5.04296875 C-2.71570312 5.75066406 -3.53296875 6.45835938 -4.375 7.1875 C-5.59316406 8.26064453 -5.59316406 8.26064453 -6.8359375 9.35546875 C-9 11 -9 11 -11 11 C-9.79447401 7.38342204 -8.51483415 6.61704438 -5.5 4.375 C-4.6853125 3.76398437 -3.870625 3.15296875 -3.03125 2.5234375 C-2.3609375 2.02070312 -1.690625 1.51796875 -1 1 C-0.67 0.67 -0.34 0.34 0 0 Z " fill="#808894" transform="translate(47,48)"/>
<path d="M0 0 C0 3 0 3 -1.8125 5.0625 C-4 7 -4 7 -7 9 C-7.99 8.67 -8.98 8.34 -10 8 C-10 7.34 -10 6.68 -10 6 C-9.44570313 5.73445313 -8.89140625 5.46890625 -8.3203125 5.1953125 C-7.59585938 4.84210937 -6.87140625 4.48890625 -6.125 4.125 C-5.40570313 3.77695312 -4.68640625 3.42890625 -3.9453125 3.0703125 C-1.84864981 2.03442457 -1.84864981 2.03442457 0 0 Z " fill="#DEE9F9" transform="translate(63,36)"/>
<path d="M0 0 C0.33 1.32 0.66 2.64 1 4 C3.31 4 5.62 4 8 4 C7.01 5.485 7.01 5.485 6 7 C3.4375 7.25 3.4375 7.25 1 7 C0 6 0 6 -0.0625 2.9375 C-0.041875 1.968125 -0.02125 0.99875 0 0 Z " fill="#4F5877" transform="translate(75,72)"/>
<path d="M0 0 C0.99 1.485 0.99 1.485 2 3 C5.06556598 3.73343428 5.06556598 3.73343428 8 4 C6.75 5.5625 6.75 5.5625 5 7 C2.86254078 6.74853421 1.54074221 6.54074221 0 5 C-0.04063832 3.33382885 -0.042721 1.66611905 0 0 Z " fill="#4A527D" transform="translate(7,73)"/>
<path d="M0 0 C0.66 0.66 1.32 1.32 2 2 C1.75 4.0625 1.75 4.0625 1 6 C0.01 6.495 0.01 6.495 -1 7 C-1 6.34 -1 5.68 -1 5 C-1.66 5 -2.32 5 -3 5 C-3 3.68 -3 2.36 -3 1 C-2.01 0.67 -1.02 0.34 0 0 Z " fill="#DEE6EC" transform="translate(102,73)"/>
<path d="M0 0 C0.66 0.33 1.32 0.66 2 1 C2.625 3.5625 2.625 3.5625 3 6 C2.01 6.33 1.02 6.66 0 7 C-0.33 6.01 -0.66 5.02 -1 4 C-1.66 3.67 -2.32 3.34 -3 3 C-2.34 3 -1.68 3 -1 3 C-0.67 2.01 -0.34 1.02 0 0 Z " fill="#22358E" transform="translate(58,31)"/>
<path d="M0 0 C1.32 0 2.64 0 4 0 C4 1.32 4 2.64 4 4 C3.34 4 2.68 4 2 4 C2 5.65 2 7.3 2 9 C0 7 0 7 -0.125 3.375 C-0.08375 2.26125 -0.0425 1.1475 0 0 Z " fill="#26449B" transform="translate(26,20)"/>
<path d="M0 0 C3.3 0 6.6 0 10 0 C10 0.66 10 1.32 10 2 C6.30458414 2.95024979 3.69541586 2.95024979 0 2 C0 1.34 0 0.68 0 0 Z " fill="#F3FDEF" transform="translate(33,0)"/>
<path d="M0 0 C0.98120464 3.05263664 0.98120464 4.94736336 0 8 C0.66 8 1.32 8 2 8 C1.67 8.99 1.34 9.98 1 11 C0.01 10.67 -0.98 10.34 -2 10 C-1.85950482 8.52031676 -1.71245174 7.04125484 -1.5625 5.5625 C-1.48128906 4.73878906 -1.40007813 3.91507812 -1.31640625 3.06640625 C-1 1 -1 1 0 0 Z " fill="#A6AFB6" transform="translate(62,65)"/>
<path d="M0 0 C0.33 0 0.66 0 1 0 C1 2.97 1 5.94 1 9 C1.66 9 2.32 9 3 9 C3 9.66 3 10.32 3 11 C1.68 10.67 0.36 10.34 -1 10 C-0.67 6.7 -0.34 3.4 0 0 Z " fill="#717698" transform="translate(50,64)"/>
<path d="M0 0 C0.66 0 1.32 0 2 0 C2.66 2.31 3.32 4.62 4 7 C2.35 6.67 0.7 6.34 -1 6 C-1.042721 4.33388095 -1.04063832 2.66617115 -1 1 C-0.67 0.67 -0.34 0.34 0 0 Z " fill="#E9EDF9" transform="translate(5,73)"/>
<path d="M0 0 C0.99 0.66 1.98 1.32 3 2 C2.01 3.485 2.01 3.485 1 5 C-1.1640625 5.29296875 -1.1640625 5.29296875 -3.625 5.1875 C-4.44226563 5.16042969 -5.25953125 5.13335938 -6.1015625 5.10546875 C-7.04128906 5.05326172 -7.04128906 5.05326172 -8 5 C-8 4.67 -8 4.34 -8 4 C-6.02 3.67 -4.04 3.34 -2 3 C-2 2.34 -2 1.68 -2 1 C-1.34 0.67 -0.68 0.34 0 0 Z " fill="#D1DAF0" transform="translate(24,11)"/>
<path d="M0 0 C0 3 0 3 -1.3125 4.38671875 C-2.875 5.59114583 -4.4375 6.79557292 -6 8 C-6 7.01 -6 6.02 -6 5 C-5.01 4.67 -4.02 4.34 -3 4 C-2.67 3.01 -2.34 2.02 -2 1 C-1.34 0.67 -0.68 0.34 0 0 Z " fill="#C1C8CF" transform="translate(21,72)"/>
<path d="M0 0 C-0.33 0.99 -0.66 1.98 -1 3 C-3.97 2.505 -3.97 2.505 -7 2 C-7 2.66 -7 3.32 -7 4 C-7.66 3.67 -8.32 3.34 -9 3 C-8 1 -8 1 -6.1875 0.375 C-4 0 -4 0 0 0 Z " fill="#646EA2" transform="translate(46,5)"/>
<path d="M0 0 C0.66 1.32 1.32 2.64 2 4 C-3.75 4.125 -3.75 4.125 -6 3 C-6 2.34 -6 1.68 -6 1 C-4.7934375 1.0309375 -4.7934375 1.0309375 -3.5625 1.0625 C-1.06645115 1.29633621 -1.06645115 1.29633621 0 0 Z " fill="#F4F9EE" transform="translate(31,76)"/>
<path d="M0 0 C1.23723976 2.47447952 1 4.2553349 1 7 C1.33 7.99 1.66 8.98 2 10 C1.01 10.33 0.02 10.66 -1 11 C-1.02688151 9.35425434 -1.04634123 7.70838587 -1.0625 6.0625 C-1.07410156 5.14597656 -1.08570312 4.22945313 -1.09765625 3.28515625 C-1 1 -1 1 0 0 Z " fill="#5F6679" transform="translate(89,64)"/>
<path d="M0 0 C1.32 0.66 2.64 1.32 4 2 C3.67 2.99 3.34 3.98 3 5 C1.68 5 0.36 5 -1 5 C-0.67 3.35 -0.34 1.7 0 0 Z " fill="#F6F5FC" transform="translate(77,71)"/>
<path d="M0 0 C1.98 0 3.96 0 6 0 C6 0.99 6 1.98 6 3 C3.69 3 1.38 3 -1 3 C-0.67 2.01 -0.34 1.02 0 0 Z " fill="#ABA9B3" transform="translate(76,69)"/>
<path d="M0 0 C0.33 0 0.66 0 1 0 C1 1.65 1 3.3 1 5 C-0.65 5.66 -2.3 6.32 -4 7 C-4 6.01 -4 5.02 -4 4 C-3.01 4 -2.02 4 -1 4 C-0.67 2.68 -0.34 1.36 0 0 Z " fill="#E9F2FA" transform="translate(60,66)"/>
<path d="M0 0 C0.99 0.33 1.98 0.66 3 1 C1.35 2.65 -0.3 4.3 -2 6 C-2.33 5.34 -2.66 4.68 -3 4 C-2.01 2.68 -1.02 1.36 0 0 Z " fill="#E1EAF1" transform="translate(43,48)"/>
<path d="M0 0 C2.89932357 2.39509338 3.50168276 4.31245243 4 8 C3.34 8 2.68 8 2 8 C0.23537317 4.91190305 0 3.76687864 0 0 Z " fill="#ABC3E6" transform="translate(57,14)"/>
</svg>
